<svg width="16" height="16" viewBox="0 0 16 16" fill="none" xmlns="http://www.w3.org/2000/svg">
<g clip-path="url(#clip0_458_6070)">
<rect width="16" height="16" fill="#37C7A3"/>
<g filter="url(#filter0_i_458_6070)">
<path d="M5.30517 4.52197C5.62802 4.77284 5.83182 4.85826 6.04052 5.15869C6.01227 5.1961 5.99133 5.23205 5.97802 5.26123L5.97704 5.26318C5.76349 5.7722 5.58374 6.26576 5.35595 6.76416C4.90982 7.74472 4.38232 8.69927 4.1206 9.771C4.11273 9.80306 4.10003 9.84322 4.08642 9.89111C4.0732 9.93769 4.0589 9.99127 4.04931 10.0435C4.03987 10.0951 4.03456 10.1511 4.03954 10.2026C4.04471 10.2541 4.06162 10.3101 4.104 10.3521L4.12353 10.3716L4.15185 10.3735C4.16706 10.3744 4.20197 10.3768 4.2329 10.3706C4.24988 10.3671 4.27217 10.3599 4.2915 10.3442C4.31226 10.3273 4.32689 10.3032 4.33251 10.2759C4.37952 10.0403 4.41155 9.82178 4.45654 9.60693C4.50085 9.46332 4.54918 9.31989 4.60204 9.17529C4.87775 8.42129 5.29482 7.73664 5.62743 7.01318C5.74944 6.74902 5.86519 6.48166 5.97314 6.21143C6.14045 5.79144 6.28861 5.31517 6.65282 5.02197C7.12621 4.64137 7.84005 4.65557 8.41161 4.72217C9.68918 4.87111 10.9561 5.10652 12.2183 5.3501C12.661 5.46767 13.3827 5.51772 13.7827 5.7085C14.5321 6.06626 15.4633 6.75239 15.98 7.39404V16.0054H3.68798C3.57513 15.83 3.44745 15.6163 3.39794 15.4048C3.18462 14.4903 3.5565 13.4421 3.69286 12.5347C3.71912 12.3603 3.80108 12.0602 3.77099 11.9067C3.72686 11.6849 3.51788 11.3736 3.39794 11.1694C3.1414 10.7325 2.98785 10.2954 2.8081 9.82568C2.34971 8.62801 2.10437 7.3898 2.23974 6.13818C2.46112 6.20248 2.69497 6.23975 2.937 6.23975C4.04247 6.23919 4.97785 5.51823 5.30517 4.52197ZM13.3227 9.04932C13.116 9.34981 12.924 9.5779 12.6431 9.81494C12.2622 10.1362 11.8481 10.4151 11.4448 10.7222C10.7729 11.2339 10.3279 11.9261 10.2456 12.6333C10.1632 13.3446 10.449 14.0611 11.2163 14.6079C11.7721 15.0034 12.4319 15.036 13.0747 14.9282H13.0757C14.0324 14.7506 14.9215 14.0771 15.4585 13.2866H15.4595C15.5554 13.1423 15.6443 12.9931 15.7261 12.8403L15.6616 12.8052H15.6606C15.6727 12.7681 15.6832 12.7397 15.6841 12.7134C15.6832 12.7397 15.6737 12.7682 15.6616 12.8052L15.727 12.8403L15.7309 12.8276C15.7361 12.8118 15.7437 12.7904 15.7485 12.7739C15.7537 12.756 15.7592 12.734 15.7593 12.7104C15.7591 12.6569 15.733 12.6121 15.6919 12.5698L15.6753 12.5532L15.6518 12.5493L15.602 12.5435C15.5735 12.5448 15.5413 12.556 15.5171 12.5864C15.4373 12.6869 15.3654 12.8101 15.2964 12.9272C15.2612 12.987 15.2264 13.0461 15.1919 13.1011L15.0864 13.2534C14.4196 14.1146 13.3678 14.7469 12.2651 14.644H12.2632C11.7616 14.6064 11.2773 14.3307 10.9604 13.9331C10.5452 13.4111 10.4805 12.8587 10.6352 12.3442C10.7914 11.826 11.1726 11.342 11.6548 10.9692C11.8372 10.8283 12.3024 10.5033 12.7192 10.1655C12.929 9.99547 13.1316 9.81806 13.2856 9.65381C13.3626 9.57173 13.4295 9.49047 13.479 9.41455C13.5276 9.33994 13.5638 9.2633 13.5737 9.19092L13.5757 9.17432L13.5708 9.15869C13.5599 9.12484 13.5442 9.08194 13.5073 9.0542C13.4893 9.04101 13.4691 9.03338 13.4517 9.02881C13.4347 9.02444 13.4137 9.02195 13.394 9.01904L13.3491 9.01221L13.3227 9.04932ZM14.8726 13.6147C14.8508 13.6376 14.8274 13.6588 14.8052 13.6812C14.8305 13.6557 14.8567 13.631 14.8813 13.605L14.8726 13.6147ZM11.2124 11.2681C11.2289 11.2508 11.2443 11.2323 11.2612 11.2153L11.272 11.2056C11.2515 11.2259 11.2323 11.2473 11.2124 11.2681ZM4.15575 10.2993L4.15868 10.2983L4.15966 10.2993C4.15852 10.2993 4.15689 10.3002 4.15575 10.3003C4.14306 10.2877 4.13244 10.2714 4.12548 10.2544C4.13271 10.2713 4.14308 10.2868 4.15575 10.2993ZM13.227 9.30713C13.1223 9.4439 13.0142 9.56782 12.8901 9.68896H12.8892C13.0133 9.5678 13.1213 9.4439 13.2261 9.30713H13.227ZM14.1919 6.51025C14.1609 6.62414 14.2135 6.73278 14.2622 6.81592C14.286 6.85653 14.3175 6.90499 14.3393 6.94092C14.3635 6.9806 14.3828 7.01642 14.394 7.04834C14.4181 7.11718 14.4353 7.16607 14.4517 7.23389V7.23486C14.5251 7.53057 14.5629 7.83425 14.563 8.13818L14.5503 8.44189C14.5457 8.49406 14.5316 8.60523 14.519 8.71924C14.5129 8.77524 14.5069 8.83193 14.5034 8.87939C14.5001 8.92414 14.498 8.96897 14.5015 8.99756L14.5044 9.021L14.52 9.03857C14.5443 9.06509 14.5711 9.08678 14.6059 9.09912C14.637 9.10991 14.6709 9.11184 14.7007 9.11279L14.7485 9.11377L14.769 9.0708C14.799 9.00826 14.8217 8.92065 14.8384 8.8208C14.8552 8.71978 14.8672 8.60039 14.8735 8.47119C14.8862 8.21225 14.877 7.90734 14.8442 7.6167C14.8115 7.32701 14.7538 7.04452 14.6665 6.8335C14.623 6.72851 14.5698 6.63569 14.5054 6.56885C14.4399 6.50118 14.3585 6.45669 14.2632 6.45654H14.2075L14.1919 6.51025Z" fill="white"/>
</g>
<g filter="url(#filter1_i_458_6070)">
<path d="M8.67617 8.08301C8.8062 8.08556 8.89702 8.19741 9.0293 8.2647L9.03997 8.27005C9.16565 8.33389 9.48051 8.18711 9.62253 8.29233C9.68011 8.38304 9.60238 8.44077 9.53332 8.49924C9.46406 8.53139 9.3903 8.55279 9.31457 8.56268C9.06693 8.59306 8.36604 8.4242 8.67617 8.08301Z" fill="#404040"/>
</g>
<g filter="url(#filter2_i_458_6070)">
<path d="M9.96174 7.3501C10.3374 7.39027 10.3155 7.82644 9.99548 7.96747C9.64594 7.94343 9.63343 7.46566 9.96174 7.3501Z" fill="#404040"/>
</g>
<g filter="url(#filter3_i_458_6070)">
<path d="M8.47796 7.07554C8.86611 7.0534 8.88953 7.4782 8.5863 7.67404C8.21402 7.68997 8.18864 7.2581 8.47796 7.07554Z" fill="#404040"/>
</g>
<g filter="url(#filter4_i_458_6070)">
<path d="M6.19836 12.2416L6.52229 11.9177L6.45796 11.8534L6.19836 12.113L6.06742 11.982L6.00309 12.0463L6.19836 12.2416ZM6.26269 12.4897C6.19913 12.4897 6.1394 12.4777 6.0835 12.4536C6.0276 12.4294 5.97897 12.3967 5.93762 12.3553C5.89626 12.314 5.86353 12.2654 5.83941 12.2095C5.81528 12.1536 5.80322 12.0938 5.80322 12.0303C5.80322 11.9667 5.81528 11.907 5.83941 11.8511C5.86353 11.7952 5.89626 11.7465 5.93762 11.7052C5.97897 11.6638 6.0276 11.6311 6.0835 11.607C6.1394 11.5829 6.19913 11.5708 6.26269 11.5708C6.32625 11.5708 6.38598 11.5829 6.44188 11.607C6.49778 11.6311 6.54641 11.6638 6.58776 11.7052C6.62912 11.7465 6.66185 11.7952 6.68597 11.8511C6.7101 11.907 6.72216 11.9667 6.72216 12.0303C6.72216 12.0938 6.7101 12.1536 6.68597 12.2095C6.66185 12.2654 6.62912 12.314 6.58776 12.3553C6.54641 12.3967 6.49778 12.4294 6.44188 12.4536C6.38598 12.4777 6.32625 12.4897 6.26269 12.4897Z" fill="#37C7A3"/>
</g>
<g filter="url(#filter5_i_458_6070)">
<path d="M6.19836 13.9926L6.52229 13.6687L6.45796 13.6043L6.19836 13.8639L6.06742 13.733L6.00309 13.7973L6.19836 13.9926ZM6.26269 14.2407C6.19913 14.2407 6.1394 14.2287 6.0835 14.2045C6.0276 14.1804 5.97897 14.1477 5.93762 14.1063C5.89626 14.065 5.86353 14.0163 5.83941 13.9604C5.81528 13.9045 5.80322 13.8448 5.80322 13.7812C5.80322 13.7177 5.81528 13.658 5.83941 13.6021C5.86353 13.5462 5.89626 13.4975 5.93762 13.4562C5.97897 13.4148 6.0276 13.3821 6.0835 13.358C6.1394 13.3338 6.19913 13.3218 6.26269 13.3218C6.32625 13.3218 6.38598 13.3338 6.44188 13.358C6.49778 13.3821 6.54641 13.4148 6.58776 13.4562C6.62912 13.4975 6.66185 13.5462 6.68597 13.6021C6.7101 13.658 6.72216 13.7177 6.72216 13.7812C6.72216 13.8448 6.7101 13.9045 6.68597 13.9604C6.66185 14.0163 6.62912 14.065 6.58776 14.1063C6.54641 14.1477 6.49778 14.1804 6.44188 14.2045C6.38598 14.2287 6.32625 14.2407 6.26269 14.2407Z" fill="#37C7A3"/>
</g>
<g filter="url(#filter6_i_458_6070)">
<rect x="7.0459" y="11.8164" width="2.86239" height="0.440367" rx="0.220183" fill="#D4D4D4"/>
</g>
<g filter="url(#filter7_i_458_6070)">
<path d="M7.0459 13.7983C7.0459 13.6767 7.14448 13.5781 7.26608 13.5781H9.6881C9.8097 13.5781 9.90828 13.6767 9.90828 13.7983C9.90828 13.9199 9.8097 14.0185 9.6881 14.0185H7.26608C7.14448 14.0185 7.0459 13.9199 7.0459 13.7983Z" fill="#D4D4D4"/>
</g>
<g filter="url(#filter8_i_458_6070)">
<path d="M11.2014 10.9224C11.0151 11.091 10.8544 11.2767 10.717 11.4702V11.3062C10.717 10.8584 10.3542 10.4958 9.90649 10.4956H6.12231C5.67453 10.4956 5.31177 10.8584 5.31177 11.3062V16.4194C5.31178 16.8672 5.67454 17.2299 6.12231 17.23H9.90649C10.3542 17.2298 10.717 16.8671 10.717 16.4194V14.1538C10.8528 14.3141 11.0184 14.467 11.2161 14.6079C11.2297 14.6176 11.2443 14.626 11.2581 14.6353V16.4194C11.258 17.1541 10.6709 17.7525 9.94067 17.771H6.12231C5.37601 17.771 4.77077 17.1657 4.77075 16.4194V11.3062C4.77075 10.5598 5.376 9.95462 6.12231 9.95459H9.94067C10.5383 9.96972 11.0391 10.3737 11.2014 10.9224Z" fill="black" fill-opacity="0.2"/>
</g>
<g filter="url(#filter9_i_458_6070)">
<path d="M5.13756 3.74334C5.13756 4.95938 4.15176 5.94517 2.93572 5.94517C1.71968 5.94517 0.733887 4.95938 0.733887 3.74334C0.733887 2.5273 1.71968 1.5415 2.93572 1.5415C4.15176 1.5415 5.13756 2.5273 5.13756 3.74334Z" fill="#FFCC00"/>
</g>
<g filter="url(#filter10_d_458_6070)">
<path d="M3.84521 2.90925C3.86263 2.90925 3.87567 2.92523 3.87218 2.94229L3.769 3.44649C3.76551 3.46355 3.77855 3.47953 3.79597 3.47953H3.93068C3.94588 3.47953 3.95821 3.49185 3.95821 3.50705V3.74925C3.95821 3.76445 3.94588 3.77677 3.93068 3.77677H3.72526C3.71219 3.77677 3.70091 3.78598 3.6983 3.79879L3.55977 4.47696C3.55715 4.48977 3.54588 4.49898 3.5328 4.49898H3.19716C3.18393 4.49898 3.17257 4.48956 3.17012 4.47657L3.04208 3.79919C3.03962 3.78619 3.02826 3.77677 3.01503 3.77677H2.84053C2.82727 3.77677 2.8159 3.78623 2.81347 3.79927L2.68753 4.47649C2.6851 4.48952 2.67373 4.49898 2.66047 4.49898H2.3249C2.31182 4.49898 2.30055 4.48977 2.29793 4.47696L2.1594 3.79879C2.15678 3.78598 2.14551 3.77677 2.13243 3.77677H1.92481C1.90961 3.77677 1.89729 3.76445 1.89729 3.74925V3.50705C1.89729 3.49185 1.90961 3.47953 1.92481 3.47953H2.05953C2.07694 3.47953 2.08998 3.46355 2.08649 3.44649L1.98332 2.94229C1.97982 2.92523 1.99286 2.90925 2.01028 2.90925H2.22272C2.23579 2.90925 2.24706 2.91845 2.24968 2.93126L2.35737 3.45752C2.35999 3.47033 2.37126 3.47953 2.38434 3.47953H2.59467C2.60782 3.47953 2.61913 3.47023 2.62167 3.45734L2.7252 2.93364C2.72775 2.92075 2.73905 2.91145 2.7522 2.91145H3.1055C3.11864 2.91145 3.12995 2.92075 3.1325 2.93364L3.23602 3.45734C3.23857 3.47023 3.24988 3.47953 3.26302 3.47953H3.47336C3.48643 3.47953 3.4977 3.47033 3.50032 3.45752L3.60802 2.93126C3.61064 2.91845 3.62191 2.90925 3.63498 2.90925H3.84521ZM2.45498 3.77677C2.43759 3.77677 2.42455 3.79271 2.42801 3.80976L2.46438 3.98936C2.47036 4.01886 2.51257 4.01873 2.51836 3.98919L2.5536 3.8096C2.55694 3.79259 2.54392 3.77677 2.52659 3.77677H2.45498ZM2.88085 3.44704C2.87776 3.46395 2.89074 3.47953 2.90793 3.47953H2.94952C2.96679 3.47953 2.97979 3.46381 2.97656 3.44684L2.95533 3.33564C2.94962 3.30571 2.90672 3.30587 2.90123 3.33584L2.88085 3.44704ZM3.3311 3.77677C3.31378 3.77677 3.30076 3.79259 3.3041 3.8096L3.33933 3.98919C3.34513 4.01873 3.38734 4.01886 3.39332 3.98936L3.42969 3.80976C3.43314 3.79271 3.42011 3.77677 3.40272 3.77677H3.3311Z" fill="white" fill-opacity="0.9"/>
<path d="M1.86987 3.74918V3.50702C1.86989 3.47667 1.89436 3.45197 1.9247 3.45192L1.92481 3.47953L1.91422 3.48175C1.90431 3.4859 1.8973 3.49563 1.89729 3.50705V3.74925C1.89729 3.76071 1.90427 3.77057 1.91422 3.77472L1.92481 3.77677H2.13243C2.14551 3.77677 2.15678 3.78598 2.1594 3.79879L2.29793 4.47696C2.29992 4.48653 2.30672 4.49429 2.31551 4.49746L2.3249 4.49898H2.66047L2.67003 4.4972C2.67598 4.49498 2.68107 4.49085 2.68427 4.48537L2.68753 4.47649L2.81347 3.79927C2.81532 3.78955 2.82216 3.78175 2.83103 3.77848L2.84053 3.77677H3.01503C3.02826 3.77677 3.03962 3.78619 3.04208 3.79919L3.17012 4.47657C3.17196 4.4863 3.17882 4.49393 3.18769 4.4972L3.19716 4.49898H3.5328L3.54221 4.49746C3.54804 4.49535 3.55293 4.49118 3.55619 4.48591L3.55977 4.47696L3.6983 3.79879C3.70025 3.78921 3.70707 3.78169 3.71584 3.77848L3.72526 3.77677H3.93068L3.94135 3.77472C3.94799 3.77193 3.95334 3.76657 3.95613 3.75994L3.95821 3.74925V3.50705C3.95819 3.49566 3.95123 3.48592 3.94135 3.48175L3.93068 3.47953L3.9306 3.45192C3.96099 3.45192 3.98568 3.47663 3.9857 3.50702V3.74918C3.9857 3.77959 3.961 3.80428 3.9306 3.80428H3.72525L3.58683 4.48241C3.5816 4.50804 3.55896 4.52649 3.53281 4.52649H3.1971C3.17067 4.52646 3.14799 4.50759 3.14308 4.48161L3.01514 3.80428H2.84043L2.71464 4.48161C2.70977 4.50764 2.68685 4.52649 2.66035 4.52649H2.32492C2.29876 4.52649 2.27613 4.50804 2.27089 4.48241L2.13247 3.80428H1.9247C1.89435 3.80423 1.86987 3.77955 1.86987 3.74918ZM2.45498 3.77677H2.52659C2.54392 3.77677 2.55694 3.79259 2.5536 3.8096L2.51836 3.98919L2.51467 3.99888C2.50438 4.01552 2.47864 4.01565 2.46817 3.99915L2.46438 3.98936L2.42801 3.80976C2.42546 3.79702 2.43211 3.78484 2.44291 3.77956L2.45498 3.77677ZM3.3311 3.77677H3.40272C3.42011 3.77677 3.43314 3.79271 3.42969 3.80976L3.39332 3.98936L3.38955 3.99915C3.37909 4.01566 3.35335 4.01551 3.34305 3.99888L3.33933 3.98919L3.3041 3.8096C3.30159 3.79684 3.30831 3.7848 3.31913 3.77956L3.3311 3.77677ZM2.49129 3.98383L2.5265 3.80428H2.455L2.49129 3.98383ZM3.36643 3.98383L3.40272 3.80428H3.33122L3.36643 3.98383ZM3.9306 3.45192L3.93068 3.47953H3.79597L3.79594 3.45192H3.9306ZM3.84513 2.88184C3.87992 2.88184 3.90605 2.9136 3.89915 2.94769L3.79594 3.45192L3.79597 3.47953L3.78385 3.47664C3.77668 3.47311 3.77134 3.46663 3.76933 3.4589L3.769 3.44649L3.87218 2.94229C3.87567 2.92523 3.86263 2.90925 3.84521 2.90925L3.84513 2.88184ZM2.05963 3.45192L2.05953 3.47953H1.92481L1.9247 3.45192H2.05963ZM2.01028 2.90925C1.99286 2.90925 1.97982 2.92523 1.98332 2.94229L2.08649 3.44649C2.08908 3.45928 2.08232 3.47137 2.07146 3.47664L2.05953 3.47953L2.05963 3.45192L1.95642 2.94769C1.94952 2.91363 1.97543 2.8819 2.01018 2.88184L2.01028 2.90925ZM2.59477 3.45192L2.59467 3.47953H2.38434L2.38432 3.45192H2.59477ZM2.7522 2.91145L2.74287 2.91301C2.73398 2.91621 2.72711 2.92393 2.7252 2.93364L2.62167 3.45734C2.61913 3.47023 2.60782 3.47953 2.59467 3.47953L2.59477 3.45192L2.69825 2.92833C2.70335 2.90255 2.72599 2.88399 2.75227 2.88399L2.7522 2.91145ZM2.94956 3.45192L2.94952 3.47953H2.90793L2.9079 3.45192H2.94956ZM2.90123 3.33584C2.90672 3.30587 2.94962 3.30571 2.95533 3.33564L2.97656 3.44684C2.97979 3.46381 2.96679 3.47953 2.94952 3.47953L2.94956 3.45192L2.92832 3.34091L2.9079 3.45192L2.90793 3.47953L2.89607 3.47691C2.88883 3.47346 2.88338 3.46692 2.88129 3.45917L2.88085 3.44704L2.90123 3.33584ZM3.47341 3.45192L3.47336 3.47953H3.26302L3.26295 3.45192H3.47341ZM3.63498 2.90925C3.62191 2.90925 3.61064 2.91845 3.60802 2.93126L3.50032 3.45752L3.49679 3.46643C3.4919 3.47437 3.48312 3.47951 3.47336 3.47953L3.47341 3.45192L3.58092 2.92565C3.58618 2.90007 3.60883 2.88185 3.63494 2.88184L3.63498 2.90925ZM3.10545 2.88399C3.13173 2.88399 3.15438 2.90255 3.15947 2.92833L3.26295 3.45192L3.26302 3.47953L3.25355 3.47799C3.24765 3.47584 3.24281 3.47153 3.23957 3.46616L3.23602 3.45734L3.1325 2.93364C3.12995 2.92075 3.11864 2.91145 3.1055 2.91145L3.10545 2.88399ZM2.22278 2.88184C2.24886 2.88187 2.27126 2.90011 2.27654 2.92565L2.38432 3.45192L2.38434 3.47953L2.37491 3.47799C2.36908 3.47587 2.36419 3.47171 2.36093 3.46643L2.35737 3.45752L2.24968 2.93126C2.24772 2.92168 2.24095 2.91407 2.23219 2.91086L2.22272 2.90925L2.22278 2.88184ZM3.10545 2.88399L3.1055 2.91145H2.7522L2.75227 2.88399H3.10545ZM3.84513 2.88184L3.84521 2.90925H3.63498L3.63494 2.88184H3.84513ZM2.22278 2.88184L2.22272 2.90925H2.01028L2.01018 2.88184H2.22278Z" fill="white"/>
</g>
<g filter="url(#filter11_i_458_6070)">
<path d="M8.76025 9.5415C8.90342 9.54166 9.01904 9.65807 9.01904 9.80127H9.04834C9.24734 9.80129 9.40869 9.96261 9.40869 10.1616V10.2837C9.40868 10.4827 9.24734 10.644 9.04834 10.644H7.01221C6.8132 10.644 6.65187 10.4827 6.65186 10.2837V10.1616C6.65186 9.9626 6.81319 9.80128 7.01221 9.80127H7.0415C7.0415 9.65803 7.15708 9.5416 7.30029 9.5415H8.76025Z" fill="#666672"/>
</g>
</g>
<defs>
<filter id="filter0_i_458_6070" x="2.20264" y="4.52197" width="13.7773" height="11.4834" filterUnits="userSpaceOnUse" color-interpolation-filters="sRGB">
<feFlood flood-opacity="0" result="BackgroundImageFix"/>
<feBlend mode="normal" in="SourceGraphic" in2="BackgroundImageFix" result="shape"/>
<feColorMatrix in="SourceAlpha" type="matrix" values="0 0 0 0 0 0 0 0 0 0 0 0 0 0 0 0 0 0 127 0" result="hardAlpha"/>
<feOffset/>
<feGaussianBlur stdDeviation="0.0733945"/>
<feComposite in2="hardAlpha" operator="arithmetic" k2="-1" k3="1"/>
<feColorMatrix type="matrix" values="0 0 0 0 0.164706 0 0 0 0 0.768627 0 0 0 0 0.615686 0 0 0 1 0"/>
<feBlend mode="normal" in2="shape" result="effect1_innerShadow_458_6070"/>
</filter>
<filter id="filter1_i_458_6070" x="8.59839" y="8.08301" width="1.04419" height="0.483398" filterUnits="userSpaceOnUse" color-interpolation-filters="sRGB">
<feFlood flood-opacity="0" result="BackgroundImageFix"/>
<feBlend mode="normal" in="SourceGraphic" in2="BackgroundImageFix" result="shape"/>
<feColorMatrix in="SourceAlpha" type="matrix" values="0 0 0 0 0 0 0 0 0 0 0 0 0 0 0 0 0 0 127 0" result="hardAlpha"/>
<feOffset/>
<feGaussianBlur stdDeviation="0.0733945"/>
<feComposite in2="hardAlpha" operator="arithmetic" k2="-1" k3="1"/>
<feColorMatrix type="matrix" values="0 0 0 0 1 0 0 0 0 1 0 0 0 0 1 0 0 0 0.7 0"/>
<feBlend mode="normal" in2="shape" result="effect1_innerShadow_458_6070"/>
</filter>
<filter id="filter2_i_458_6070" x="9.72412" y="7.3501" width="0.515381" height="0.617188" filterUnits="userSpaceOnUse" color-interpolation-filters="sRGB">
<feFlood flood-opacity="0" result="BackgroundImageFix"/>
<feBlend mode="normal" in="SourceGraphic" in2="BackgroundImageFix" result="shape"/>
<feColorMatrix in="SourceAlpha" type="matrix" values="0 0 0 0 0 0 0 0 0 0 0 0 0 0 0 0 0 0 127 0" result="hardAlpha"/>
<feOffset/>
<feGaussianBlur stdDeviation="0.0733945"/>
<feComposite in2="hardAlpha" operator="arithmetic" k2="-1" k3="1"/>
<feColorMatrix type="matrix" values="0 0 0 0 1 0 0 0 0 1 0 0 0 0 1 0 0 0 0.7 0"/>
<feBlend mode="normal" in2="shape" result="effect1_innerShadow_458_6070"/>
</filter>
<filter id="filter3_i_458_6070" x="8.28149" y="7.07471" width="0.512207" height="0.599609" filterUnits="userSpaceOnUse" color-interpolation-filters="sRGB">
<feFlood flood-opacity="0" result="BackgroundImageFix"/>
<feBlend mode="normal" in="SourceGraphic" in2="BackgroundImageFix" result="shape"/>
<feColorMatrix in="SourceAlpha" type="matrix" values="0 0 0 0 0 0 0 0 0 0 0 0 0 0 0 0 0 0 127 0" result="hardAlpha"/>
<feOffset/>
<feGaussianBlur stdDeviation="0.0733945"/>
<feComposite in2="hardAlpha" operator="arithmetic" k2="-1" k3="1"/>
<feColorMatrix type="matrix" values="0 0 0 0 1 0 0 0 0 1 0 0 0 0 1 0 0 0 0.7 0"/>
<feBlend mode="normal" in2="shape" result="effect1_innerShadow_458_6070"/>
</filter>
<filter id="filter4_i_458_6070" x="5.80322" y="11.5708" width="0.918945" height="0.918945" filterUnits="userSpaceOnUse" color-interpolation-filters="sRGB">
<feFlood flood-opacity="0" result="BackgroundImageFix"/>
<feBlend mode="normal" in="SourceGraphic" in2="BackgroundImageFix" result="shape"/>
<feColorMatrix in="SourceAlpha" type="matrix" values="0 0 0 0 0 0 0 0 0 0 0 0 0 0 0 0 0 0 127 0" result="hardAlpha"/>
<feOffset/>
<feGaussianBlur stdDeviation="0.0733945"/>
<feComposite in2="hardAlpha" operator="arithmetic" k2="-1" k3="1"/>
<feColorMatrix type="matrix" values="0 0 0 0 1 0 0 0 0 1 0 0 0 0 1 0 0 0 0.7 0"/>
<feBlend mode="normal" in2="shape" result="effect1_innerShadow_458_6070"/>
</filter>
<filter id="filter5_i_458_6070" x="5.80322" y="13.3218" width="0.918945" height="0.918945" filterUnits="userSpaceOnUse" color-interpolation-filters="sRGB">
<feFlood flood-opacity="0" result="BackgroundImageFix"/>
<feBlend mode="normal" in="SourceGraphic" in2="BackgroundImageFix" result="shape"/>
<feColorMatrix in="SourceAlpha" type="matrix" values="0 0 0 0 0 0 0 0 0 0 0 0 0 0 0 0 0 0 127 0" result="hardAlpha"/>
<feOffset/>
<feGaussianBlur stdDeviation="0.0733945"/>
<feComposite in2="hardAlpha" operator="arithmetic" k2="-1" k3="1"/>
<feColorMatrix type="matrix" values="0 0 0 0 1 0 0 0 0 1 0 0 0 0 1 0 0 0 0.7 0"/>
<feBlend mode="normal" in2="shape" result="effect1_innerShadow_458_6070"/>
</filter>
<filter id="filter6_i_458_6070" x="7.0459" y="11.8164" width="2.8623" height="0.44043" filterUnits="userSpaceOnUse" color-interpolation-filters="sRGB">
<feFlood flood-opacity="0" result="BackgroundImageFix"/>
<feBlend mode="normal" in="SourceGraphic" in2="BackgroundImageFix" result="shape"/>
<feColorMatrix in="SourceAlpha" type="matrix" values="0 0 0 0 0 0 0 0 0 0 0 0 0 0 0 0 0 0 127 0" result="hardAlpha"/>
<feOffset/>
<feGaussianBlur stdDeviation="0.0733945"/>
<feComposite in2="hardAlpha" operator="arithmetic" k2="-1" k3="1"/>
<feColorMatrix type="matrix" values="0 0 0 0 1 0 0 0 0 1 0 0 0 0 1 0 0 0 0.7 0"/>
<feBlend mode="normal" in2="shape" result="effect1_innerShadow_458_6070"/>
</filter>
<filter id="filter7_i_458_6070" x="7.0459" y="13.5781" width="2.8623" height="0.44043" filterUnits="userSpaceOnUse" color-interpolation-filters="sRGB">
<feFlood flood-opacity="0" result="BackgroundImageFix"/>
<feBlend mode="normal" in="SourceGraphic" in2="BackgroundImageFix" result="shape"/>
<feColorMatrix in="SourceAlpha" type="matrix" values="0 0 0 0 0 0 0 0 0 0 0 0 0 0 0 0 0 0 127 0" result="hardAlpha"/>
<feOffset/>
<feGaussianBlur stdDeviation="0.0733945"/>
<feComposite in2="hardAlpha" operator="arithmetic" k2="-1" k3="1"/>
<feColorMatrix type="matrix" values="0 0 0 0 1 0 0 0 0 1 0 0 0 0 1 0 0 0 0.7 0"/>
<feBlend mode="normal" in2="shape" result="effect1_innerShadow_458_6070"/>
</filter>
<filter id="filter8_i_458_6070" x="4.77075" y="9.95459" width="6.4873" height="7.81641" filterUnits="userSpaceOnUse" color-interpolation-filters="sRGB">
<feFlood flood-opacity="0" result="BackgroundImageFix"/>
<feBlend mode="normal" in="SourceGraphic" in2="BackgroundImageFix" result="shape"/>
<feColorMatrix in="SourceAlpha" type="matrix" values="0 0 0 0 0 0 0 0 0 0 0 0 0 0 0 0 0 0 127 0" result="hardAlpha"/>
<feOffset/>
<feGaussianBlur stdDeviation="0.0733945"/>
<feComposite in2="hardAlpha" operator="arithmetic" k2="-1" k3="1"/>
<feColorMatrix type="matrix" values="0 0 0 0 1 0 0 0 0 1 0 0 0 0 1 0 0 0 0.7 0"/>
<feBlend mode="normal" in2="shape" result="effect1_innerShadow_458_6070"/>
</filter>
<filter id="filter9_i_458_6070" x="0.733887" y="1.5415" width="4.40356" height="4.40381" filterUnits="userSpaceOnUse" color-interpolation-filters="sRGB">
<feFlood flood-opacity="0" result="BackgroundImageFix"/>
<feBlend mode="normal" in="SourceGraphic" in2="BackgroundImageFix" result="shape"/>
<feColorMatrix in="SourceAlpha" type="matrix" values="0 0 0 0 0 0 0 0 0 0 0 0 0 0 0 0 0 0 127 0" result="hardAlpha"/>
<feOffset/>
<feGaussianBlur stdDeviation="0.366973"/>
<feComposite in2="hardAlpha" operator="arithmetic" k2="-1" k3="1"/>
<feColorMatrix type="matrix" values="0 0 0 0 1 0 0 0 0 1 0 0 0 0 1 0 0 0 0.8 0"/>
<feBlend mode="normal" in2="shape" result="effect1_innerShadow_458_6070"/>
</filter>
<filter id="filter10_d_458_6070" x="1.45562" y="2.46758" width="2.94423" height="2.47304" filterUnits="userSpaceOnUse" color-interpolation-filters="sRGB">
<feFlood flood-opacity="0" result="BackgroundImageFix"/>
<feColorMatrix in="SourceAlpha" type="matrix" values="0 0 0 0 0 0 0 0 0 0 0 0 0 0 0 0 0 0 127 0" result="hardAlpha"/>
<feOffset/>
<feGaussianBlur stdDeviation="0.207127"/>
<feComposite in2="hardAlpha" operator="out"/>
<feColorMatrix type="matrix" values="0 0 0 0 1 0 0 0 0 1 0 0 0 0 1 0 0 0 0.5 0"/>
<feBlend mode="normal" in2="BackgroundImageFix" result="effect1_dropShadow_458_6070"/>
<feBlend mode="normal" in="SourceGraphic" in2="effect1_dropShadow_458_6070" result="shape"/>
</filter>
<filter id="filter11_i_458_6070" x="6.65186" y="9.5415" width="2.75684" height="1.10254" filterUnits="userSpaceOnUse" color-interpolation-filters="sRGB">
<feFlood flood-opacity="0" result="BackgroundImageFix"/>
<feBlend mode="normal" in="SourceGraphic" in2="BackgroundImageFix" result="shape"/>
<feColorMatrix in="SourceAlpha" type="matrix" values="0 0 0 0 0 0 0 0 0 0 0 0 0 0 0 0 0 0 127 0" result="hardAlpha"/>
<feOffset/>
<feGaussianBlur stdDeviation="0.0733945"/>
<feComposite in2="hardAlpha" operator="arithmetic" k2="-1" k3="1"/>
<feColorMatrix type="matrix" values="0 0 0 0 1 0 0 0 0 1 0 0 0 0 1 0 0 0 0.7 0"/>
<feBlend mode="normal" in2="shape" result="effect1_innerShadow_458_6070"/>
</filter>
<clipPath id="clip0_458_6070">
<rect width="16" height="16" fill="white"/>
</clipPath>
</defs>
</svg>
