<svg style="filter: drop-shadow(0 0 2px rgba(255, 255, 255, 0.70));" width="28" height="14" viewBox="0 0 28 14" fill="none" xmlns="http://www.w3.org/2000/svg">
<g>
<path d="M4.96818 4.96851H0V13.9979H4.96818V4.96851Z" fill="#00C4A6"/>
</g>
<mask id="mask0_615_2863" style="mask-type:luminance" maskUnits="userSpaceOnUse" x="4" y="0" width="15" height="14">
<path d="M4.96777 4.9683C7.36171 4.97091 9.65686 5.92305 11.3496 7.61583C13.0424 9.3086 13.9945 11.6037 13.9972 13.9977H18.9653C18.9653 12.1595 18.6033 10.3393 17.8998 8.64105C17.1964 6.94279 16.1653 5.3997 14.8655 4.09991C13.5657 2.80012 12.0227 1.76907 10.3244 1.06562C8.62614 0.36218 6.80596 0.00012207 4.96777 0.00012207V4.9683Z" fill="white"/>
</mask>
<g mask="url(#mask0_615_2863)">
<g>
<path d="M18.9653 0.000976562H4.96777V13.9985H18.9653V0.000976562Z" fill="url(#paint0_linear_615_2863)"/>
</g>
</g>
<g>
<path d="M28.0005 0.000122936V4.9683C25.6066 4.97091 23.3114 5.92305 21.6187 7.61583C19.9259 9.3086 18.9738 11.6037 18.9711 13.9977H13.998C13.998 12.1591 14.3603 10.3385 15.064 8.63991C15.7678 6.94133 16.7993 5.39803 18.0996 4.09817C19.3999 2.79832 20.9436 1.76736 22.6424 1.06421C24.3412 0.361057 26.1619 -0.00052382 28.0005 0.000122936Z" fill="#00C4A6"/>
</g>
<defs>
<linearGradient id="paint0_linear_615_2863" x1="5.00414" y1="7.22836" x2="18.9861" y2="7.22836" gradientUnits="userSpaceOnUse">
<stop stop-color="#00C4A6"/>
<stop offset="0.11" stop-color="#0FC7A1"/>
<stop offset="0.31" stop-color="#38CE94"/>
<stop offset="0.6" stop-color="#78DB7F"/>
<stop offset="0.95" stop-color="#D1EB63"/>
<stop offset="1" stop-color="#DFEE5E"/>
</linearGradient>
</defs>
</svg>
