<svg width="28" height="20" viewBox="0 0 28 20" fill="none" xmlns="http://www.w3.org/2000/svg">
<g clip-path="url(#clip0_364_2117)">
<g>
<path d="M27.5496 9.94654L27.306 9.79859C26.4793 8.99817 25.3269 8.65049 23.7923 8.7363C22.5135 8.81323 21.498 9.30591 20.7231 9.77196C20.7231 9.76012 20.7231 9.74829 20.7231 9.73645C20.7319 9.32788 20.7619 8.92 20.8129 8.51437C20.8656 8.10193 20.8961 7.6871 20.9043 7.27158C20.9182 6.88651 20.8525 6.50263 20.7109 6.14271C20.6936 6.1005 20.6632 6.06458 20.6239 6.03992C20.5846 6.01527 20.5384 6.0031 20.4917 6.00511C20.0776 6.01399 19.2738 6.28918 19.0744 6.45636L18.9678 6.68273C18.9678 7.12658 18.8612 8.37086 18.7592 8.52177L18.7044 8.66972C18.5314 10.2233 18.5257 11.7902 18.6877 13.345C18.7059 13.4781 18.9708 13.6808 19.1764 13.7533C19.3819 13.8258 20.1035 13.6513 20.5085 13.5018L20.6607 13.4796C20.6914 13.4755 20.721 13.4654 20.7477 13.45C20.7744 13.4346 20.7976 13.4142 20.816 13.3899C20.8345 13.3656 20.8477 13.338 20.8551 13.3087C20.8624 13.2794 20.8636 13.249 20.8586 13.2192L20.8662 12.8331C21.1601 11.6761 22.346 10.2987 23.7466 10.0901C24.5398 9.96873 25.1655 10.164 25.6588 10.6819C25.7257 10.7751 25.8704 11.6066 25.3543 12.5638C24.9645 13.2725 24.1881 13.8673 23.1651 14.2416C22.1968 14.5981 21.1311 14.7431 19.8158 14.6973L18.5781 13.888C17.5367 13.1763 16.2412 12.2901 15.0644 11.8566C14.8588 11.7811 14.4874 11.4823 14.2666 11.3033L14.1448 11.2071C13.4674 10.6774 12.1779 9.84298 11.1411 9.17276L10.5824 8.8088V8.69487C10.6113 8.6638 11.2614 8.28505 11.2614 8.28505C12.1748 7.76722 12.5935 7.51274 12.6833 7.38106C12.6651 7.40177 12.8051 7.31152 12.8051 7.31152L15.0628 6.07021C17.2292 4.91175 19.6864 3.59794 20.9774 2.3004L21.0398 2.10215L21.0672 1.92609C21.152 1.68736 21.1589 1.42901 21.087 1.18633C21.0756 1.14589 21.0535 1.10911 21.0227 1.07974C20.9919 1.05037 20.9537 1.02946 20.9119 1.01914C19.9056 0.922976 18.6055 1.50886 17.4226 2.58595C17.2052 2.78158 16.9601 2.94599 16.6949 3.07419L16.5137 3.17184C15.2105 3.89236 12.2723 5.66335 10.7286 6.62059C10.8746 4.67477 11.1363 2.73879 11.5126 0.822369L11.47 0.594522L11.3177 0.298619L11.1975 0.0929662L11.1624 0.0840895C11.0482 0.0289114 10.9236 -0.00332483 10.7962 -0.0106965C10.6689 -0.0180682 10.5412 -0.000423349 10.421 0.0411845L10.1166 0.149189L9.70855 0.29714C9.66907 0.304633 9.6324 0.322328 9.6024 0.348364C9.57239 0.3744 9.55016 0.407815 9.53804 0.445092C8.80425 2.17021 8.19224 5.01088 8.05523 7.2775C6.92553 6.5887 5.75647 5.96284 4.5537 5.40295L4.53391 5.39259L4.45322 5.37632C4.21573 5.34525 3.92343 5.1751 3.64178 5.0094L3.08459 4.65875L2.23661 4.12317C2.24574 4.12317 2.01282 4.07435 2.01282 4.07435C1.64592 4.13501 0.947134 4.59514 0.73552 4.90583C0.709106 4.94593 0.695834 4.99288 0.69746 5.04047C0.701049 5.10694 0.713851 5.17262 0.73552 5.23576L0.77358 5.40443L0.813163 5.50652C1.22117 5.91338 2.25183 6.59248 3.26423 7.12215L4.43648 7.72579L6.22834 8.68304C6.22834 8.69044 6.53282 8.91828 6.53282 8.91828L6.74444 9.03664L6.78097 9.05883L3.52304 11.1775L1.81338 12.2827C1.49311 12.4543 1.16326 12.6084 0.825342 12.7443C0.499124 12.8522 0.224656 13.0721 0.0534847 13.3627L0.0078125 13.4589L0.0550071 13.5225L0.184411 13.6187L0.362532 13.7311L0.549788 13.8569L0.729431 13.8835C1.03391 13.8954 1.47845 13.7282 2.31425 13.3731C3.07545 13.0417 5.16571 11.8211 6.05631 11.3018L6.43691 11.0799C6.58915 11.0917 6.76727 10.963 6.92104 10.849C7.17271 10.6666 7.4425 10.509 7.72639 10.3786C7.72639 10.3786 7.86949 10.3031 7.99433 10.2306C7.99433 10.2706 7.99433 10.3312 7.99433 10.3312C8.03391 12.9795 8.19224 14.9044 8.48911 16.3884V16.4165L8.51803 16.4756C8.67027 16.6857 8.83165 17.3131 8.97476 17.8664L9.31425 18.9716C9.31425 18.9849 9.41168 19.0766 9.41168 19.0766C9.60503 19.2024 10.1942 19.4228 10.59 19.3725L10.6875 19.3607L10.7499 19.2261C10.7823 19.0593 10.7976 18.8898 10.7955 18.7201C10.7955 18.5174 10.7803 18.294 10.7605 18.0217L10.7347 17.6223C10.6098 15.7803 10.4911 13.1083 10.4911 11.3329C10.4911 11.284 10.4911 11.2396 10.4911 11.1849C10.8123 11.3832 12.2281 12.2487 12.2281 12.2487C14.635 13.7652 18.2705 16.0584 20.4674 16.665C20.5221 16.6817 20.5804 16.684 20.6364 16.6715C20.6923 16.659 20.7438 16.6323 20.7855 16.594L21.125 16.3824L21.1859 16.3573C21.3138 16.2996 21.3991 16.0925 21.4128 15.8676C23.2655 15.7788 25.849 15.0849 27.2299 13.3968C27.7257 12.7854 27.9988 12.0314 28.0063 11.253C28.0063 10.6922 27.8449 10.2055 27.5496 9.93914" fill="url(#paint0_linear_364_2117)"/>
</g>
</g>
<defs>
<linearGradient id="paint0_linear_364_2117" x1="14.0071" y1="19.3799" x2="14.0071" y2="-0.0123291" gradientUnits="userSpaceOnUse">
<stop stop-color="#F8B500"/>
<stop offset="1" stop-color="#F8B500"/>
</linearGradient>
<clipPath id="clip0_364_2117">
<rect width="28" height="19.3846" fill="white"/>
</clipPath>
</defs>
</svg>
