<svg width="28" height="9" viewBox="0 0 28 9" fill="none" xmlns="http://www.w3.org/2000/svg">
<g filter="url(#filter0_i_364_2289)">
<path d="M6.51617 4.28844C7.16471 4.01768 7.70299 3.40967 7.70299 2.40444C7.70299 0.907947 6.41889 0 4.87052 0H0.0843259C0.0619656 0 0.0405206 0.00888401 0.0247095 0.0246951C0.00889837 0.0405062 1.55931e-05 0.0619475 1.55931e-05 0.0843078V1.44461C-0.000199973 1.45582 0.00182144 1.46696 0.00596177 1.47737C0.0101021 1.48779 0.0162789 1.49728 0.0241293 1.50528C0.0319798 1.51328 0.0413471 1.51963 0.0516831 1.52397C0.0620192 1.52831 0.0731164 1.53055 0.0843259 1.53054H4.53976C5.25801 1.53054 5.74442 1.96993 5.74442 2.50335C5.74442 3.03677 5.25801 3.48425 4.53976 3.48425H1.89212V2.4774C1.89234 2.46606 1.89027 2.45479 1.88603 2.44426C1.88179 2.43374 1.87546 2.42417 1.86744 2.41615C1.85942 2.40813 1.84985 2.4018 1.83933 2.39756C1.8288 2.39332 1.81753 2.39125 1.80619 2.39147H0.0843259C0.0731164 2.39147 0.0620192 2.39371 0.0516831 2.39804C0.0413471 2.40238 0.0319798 2.40874 0.0241293 2.41674C0.0162789 2.42474 0.0101021 2.43423 0.00596177 2.44464C0.00182144 2.45506 -0.000199973 2.4662 1.55931e-05 2.4774V8.48771C1.55931e-05 8.51007 0.00889837 8.53151 0.0247095 8.54732C0.0405206 8.56313 0.0619656 8.57201 0.0843259 8.57201H4.80242C6.56643 8.57201 7.82946 7.75 7.82946 6.07191C7.83307 5.67255 7.70699 5.2828 7.47018 4.9612C7.23337 4.63961 6.89861 4.40354 6.51617 4.28844ZM4.63218 7.082H1.89212V5.07155H4.63218C5.36827 5.07155 5.86764 5.52228 5.86764 6.07678C5.86764 6.63127 5.36827 7.082 4.63218 7.082Z" fill="#D7191F"/>
</g>
<g filter="url(#filter1_i_364_2289)">
<path d="M26.309 1.53068H27.0305C27.0533 1.53068 27.0751 1.52163 27.0912 1.50551C27.1074 1.4894 27.1164 1.46754 27.1164 1.44475V0.0844455C27.1164 0.073236 27.1142 0.06214 27.1098 0.0518039C27.1055 0.0414679 27.0991 0.0320994 27.0911 0.0242489C27.0831 0.0163985 27.0737 0.0102254 27.0632 0.00608507C27.0528 0.00194473 27.0417 -7.79115e-05 27.0305 0.000137655H26.0171C24.8449 0.000137655 24.2239 0.374667 23.8689 1.17074L21.6655 6.56818C21.6212 6.71692 21.5267 6.8457 21.3981 6.93261C21.2695 7.01952 21.1147 7.05919 20.9602 7.04485V0.0844455C20.9602 0.073236 20.958 0.06214 20.9536 0.0518039C20.9493 0.0414679 20.9429 0.0320994 20.9349 0.0242489C20.9269 0.0163985 20.9174 0.0102254 20.907 0.00608507C20.8966 0.00194473 20.8855 -7.79115e-05 20.8743 0.000137655H19.2529C19.2417 -7.79115e-05 19.2306 0.00194473 19.2202 0.00608507C19.2097 0.0102254 19.2003 0.0163985 19.1923 0.0242489C19.1843 0.0320994 19.1779 0.0414679 19.1736 0.0518039C19.1692 0.06214 19.167 0.073236 19.167 0.0844455V8.42623C19.1674 8.46594 19.1835 8.50388 19.2117 8.53181C19.24 8.55973 19.2781 8.57539 19.3178 8.57539H21.1353C22.3059 8.57539 22.8426 8.20087 23.196 7.40479L25.3719 2.07383C25.547 1.69606 25.7983 1.53068 26.309 1.53068Z" fill="#D7191F"/>
</g>
<g filter="url(#filter2_i_364_2289)">
<path d="M27.9854 8.47625L25.2081 4.92552C25.2069 4.92349 25.2053 4.9218 25.2033 4.92062C25.2013 4.91945 25.199 4.91882 25.1967 4.91882C25.1944 4.91882 25.1921 4.91945 25.1901 4.92062C25.1881 4.9218 25.1865 4.92349 25.1854 4.92552L24.4379 6.75439C24.4351 6.75961 24.4336 6.76546 24.4336 6.77141C24.4336 6.77735 24.4351 6.78321 24.4379 6.78843L25.6523 8.40977C25.6874 8.46283 25.7358 8.50574 25.7928 8.53419C25.8497 8.56265 25.9131 8.57565 25.9766 8.5719H27.9319C27.9437 8.57379 27.9558 8.57201 27.9666 8.5668C27.9773 8.56159 27.9862 8.5532 27.9921 8.54276C27.9979 8.53233 28.0004 8.52035 27.9992 8.50846C27.998 8.49656 27.9932 8.48532 27.9854 8.47625Z" fill="#D7191F"/>
</g>
<g filter="url(#filter3_i_364_2289)">
<path d="M10.8694 2.39526H9.24804C9.22525 2.39526 9.20339 2.40432 9.18728 2.42043C9.17116 2.43655 9.16211 2.4584 9.16211 2.48119V8.4915C9.16211 8.50271 9.16434 8.5138 9.16868 8.52414C9.17302 8.53447 9.17937 8.54384 9.18737 8.55169C9.19537 8.55954 9.20486 8.56572 9.21528 8.56986C9.22569 8.574 9.23683 8.57602 9.24804 8.5758H10.8694C10.8919 8.57581 10.9135 8.56698 10.9296 8.55121C10.9456 8.53545 10.9549 8.514 10.9553 8.4915V2.47795C10.9545 2.45573 10.945 2.4347 10.929 2.41928C10.913 2.40386 10.8916 2.39525 10.8694 2.39526Z" fill="#D7191F"/>
</g>
<g filter="url(#filter4_i_364_2289)">
<path d="M17.5415 0.000137655H15.9202C15.9091 0.000137655 15.8981 0.00231817 15.8879 0.00655512C15.8777 0.0107921 15.8684 0.0170039 15.8606 0.0248328C15.8527 0.0326617 15.8465 0.041956 15.8423 0.0521849C15.838 0.0624139 15.8359 0.0733738 15.8359 0.0844455V7.04485C15.6813 7.05919 15.5266 7.01952 15.398 6.93261C15.2694 6.84571 15.1749 6.71692 15.1306 6.56818L12.9239 1.17074C12.5705 0.374667 11.9511 0.000137655 10.7773 0.000137655H9.24999C9.23879 -7.79116e-05 9.22765 0.00194473 9.21723 0.00608507C9.20681 0.0102254 9.19733 0.0163985 9.18933 0.0242489C9.18133 0.0320994 9.17497 0.0414679 9.17063 0.051804C9.16629 0.06214 9.16406 0.073236 9.16406 0.0844455V1.44475C9.16406 1.46754 9.17311 1.4894 9.18923 1.50551C9.20535 1.52163 9.2272 1.53068 9.24999 1.53068H10.4838C10.9962 1.53068 11.2459 1.69282 11.421 2.07383L13.5968 7.40479C13.9519 8.20087 14.4869 8.57539 15.6591 8.57539H17.475C17.5148 8.57539 17.5529 8.55973 17.5811 8.53181C17.6093 8.50388 17.6254 8.46594 17.6258 8.42623V0.0844455C17.6258 0.0620852 17.6169 0.0406439 17.6011 0.0248328C17.5853 0.00902167 17.5639 0.000137655 17.5415 0.000137655Z" fill="#D7191F"/>
</g>
<defs>
<filter id="filter0_i_364_2289" x="0" y="0" width="7.8291" height="8.57202" filterUnits="userSpaceOnUse" color-interpolation-filters="sRGB">
<feFlood flood-opacity="0" result="BackgroundImageFix"/>
<feBlend mode="normal" in="SourceGraphic" in2="BackgroundImageFix" result="shape"/>
<feColorMatrix in="SourceAlpha" type="matrix" values="0 0 0 0 0 0 0 0 0 0 0 0 0 0 0 0 0 0 127 0" result="hardAlpha"/>
<feOffset/>
<feGaussianBlur stdDeviation="1"/>
<feComposite in2="hardAlpha" operator="arithmetic" k2="-1" k3="1"/>
<feColorMatrix type="matrix" values="0 0 0 0 1 0 0 0 0 1 0 0 0 0 1 0 0 0 0.7 0"/>
<feBlend mode="normal" in2="shape" result="effect1_innerShadow_364_2289"/>
</filter>
<filter id="filter1_i_364_2289" x="19.167" y="0.00012207" width="7.94922" height="8.57532" filterUnits="userSpaceOnUse" color-interpolation-filters="sRGB">
<feFlood flood-opacity="0" result="BackgroundImageFix"/>
<feBlend mode="normal" in="SourceGraphic" in2="BackgroundImageFix" result="shape"/>
<feColorMatrix in="SourceAlpha" type="matrix" values="0 0 0 0 0 0 0 0 0 0 0 0 0 0 0 0 0 0 127 0" result="hardAlpha"/>
<feOffset/>
<feGaussianBlur stdDeviation="1"/>
<feComposite in2="hardAlpha" operator="arithmetic" k2="-1" k3="1"/>
<feColorMatrix type="matrix" values="0 0 0 0 1 0 0 0 0 1 0 0 0 0 1 0 0 0 0.7 0"/>
<feBlend mode="normal" in2="shape" result="effect1_innerShadow_364_2289"/>
</filter>
<filter id="filter2_i_364_2289" x="24.4336" y="4.91882" width="3.56543" height="3.65381" filterUnits="userSpaceOnUse" color-interpolation-filters="sRGB">
<feFlood flood-opacity="0" result="BackgroundImageFix"/>
<feBlend mode="normal" in="SourceGraphic" in2="BackgroundImageFix" result="shape"/>
<feColorMatrix in="SourceAlpha" type="matrix" values="0 0 0 0 0 0 0 0 0 0 0 0 0 0 0 0 0 0 127 0" result="hardAlpha"/>
<feOffset/>
<feGaussianBlur stdDeviation="1"/>
<feComposite in2="hardAlpha" operator="arithmetic" k2="-1" k3="1"/>
<feColorMatrix type="matrix" values="0 0 0 0 1 0 0 0 0 1 0 0 0 0 1 0 0 0 0.7 0"/>
<feBlend mode="normal" in2="shape" result="effect1_innerShadow_364_2289"/>
</filter>
<filter id="filter3_i_364_2289" x="9.16211" y="2.39526" width="1.79297" height="6.18054" filterUnits="userSpaceOnUse" color-interpolation-filters="sRGB">
<feFlood flood-opacity="0" result="BackgroundImageFix"/>
<feBlend mode="normal" in="SourceGraphic" in2="BackgroundImageFix" result="shape"/>
<feColorMatrix in="SourceAlpha" type="matrix" values="0 0 0 0 0 0 0 0 0 0 0 0 0 0 0 0 0 0 127 0" result="hardAlpha"/>
<feOffset/>
<feGaussianBlur stdDeviation="1"/>
<feComposite in2="hardAlpha" operator="arithmetic" k2="-1" k3="1"/>
<feColorMatrix type="matrix" values="0 0 0 0 1 0 0 0 0 1 0 0 0 0 1 0 0 0 0.7 0"/>
<feBlend mode="normal" in2="shape" result="effect1_innerShadow_364_2289"/>
</filter>
<filter id="filter4_i_364_2289" x="9.16406" y="0.00012207" width="8.46191" height="8.57532" filterUnits="userSpaceOnUse" color-interpolation-filters="sRGB">
<feFlood flood-opacity="0" result="BackgroundImageFix"/>
<feBlend mode="normal" in="SourceGraphic" in2="BackgroundImageFix" result="shape"/>
<feColorMatrix in="SourceAlpha" type="matrix" values="0 0 0 0 0 0 0 0 0 0 0 0 0 0 0 0 0 0 127 0" result="hardAlpha"/>
<feOffset/>
<feGaussianBlur stdDeviation="1"/>
<feComposite in2="hardAlpha" operator="arithmetic" k2="-1" k3="1"/>
<feColorMatrix type="matrix" values="0 0 0 0 1 0 0 0 0 1 0 0 0 0 1 0 0 0 0.7 0"/>
<feBlend mode="normal" in2="shape" result="effect1_innerShadow_364_2289"/>
</filter>
</defs>
</svg>
