<svg width="28" height="28" viewBox="0 0 28 28" fill="none" xmlns="http://www.w3.org/2000/svg">
<g clip-path="url(#clip0_580_2510)">
<g filter="url(#filter0_i_580_2510)">
<path d="M21.6431 18.1687L21.6225 18.1642L21.5836 18.1117L21.5634 18.1084L21.473 18.0001L21.4128 17.9431V17.9259L21.3735 17.891L21.3716 17.8719L21.3625 17.8704L21.3419 17.8403L21.3224 17.8348L21.3125 17.8153L21.2629 17.7966V17.7881L21.2225 17.772V17.7624L21.184 17.7463L21.1726 17.7264L21.1131 17.697V17.6882L21.0837 17.6732L21.073 17.6522L21.0341 17.6364L21.0231 17.6159L21.0036 17.6126L20.993 17.592L20.9628 17.5777L20.943 17.5468L20.9228 17.5428L20.9129 17.5233L20.8934 17.5193L20.8534 17.4664L20.8339 17.4623L20.7535 17.3661L20.7333 17.3617V17.3529L20.7032 17.3286V17.3106L20.6231 17.2317L20.6223 17.2148L20.6032 17.2012L20.5713 17.1567V17.1571V17.1376L20.6209 17.0825L20.6414 17.0866L20.662 17.0623L20.6818 17.0667L20.6914 17.0491L20.7215 17.0458V17.0366L20.7414 17.0407L20.7516 17.0234L20.7715 17.0271L20.7814 17.0105L20.8009 17.0142L20.81 16.9977L20.8409 16.9933L20.8703 16.9621L20.8905 16.9668L20.9011 16.9492L20.9202 16.9532L20.9801 16.8992L21.011 16.8956L21.0106 16.8772L21.0697 16.8324L21.1101 16.8129L21.12 16.7865L21.1498 16.7733V16.7549L21.1803 16.742V16.7233L21.1997 16.7174V16.6991L21.2188 16.6943V16.6752L21.2387 16.6697L21.2482 16.6436L21.2578 16.6454L21.2681 16.6098L21.2879 16.6043L21.2982 16.5701L21.3283 16.5661L21.3577 16.5341L21.3775 16.5389L21.397 16.5139L21.4172 16.5184L21.4278 16.5007L21.4477 16.504L21.4873 16.4655L21.5083 16.4699L21.5777 16.4085L21.5972 16.4126L21.6071 16.3957L21.6365 16.3825V16.3637L21.646 16.3663L21.6861 16.3274L21.7063 16.3307V16.3127L21.7268 16.2888L21.7658 16.2686V16.2495L21.7951 16.2359V16.2183L21.8264 16.2047L21.8256 16.1859L21.8455 16.1812L21.8447 16.1529L21.8653 16.1566V16.1283L21.9553 16.0721V16.053L22.0354 16.0313L22.0339 16.0126L22.0941 15.9953V15.9773L22.1845 15.938L22.1838 15.9196L22.204 15.9233L22.2745 15.8344L22.2936 15.8385V15.8205L22.3138 15.8234L22.3134 15.8047L22.3336 15.8084L22.3726 15.7606V15.7323L22.403 15.7198L22.4221 15.668L22.4431 15.6713L22.4618 15.6104L22.4816 15.614L22.4809 15.577L22.5004 15.581V15.5439L22.5213 15.5476L22.5305 15.5028L22.5397 15.5046L22.55 15.4414L22.5595 15.4444V15.4249L22.5694 15.4275V15.3904L22.5786 15.3918V15.3731L22.5893 15.3749L22.5878 15.329L22.6087 15.3231L22.608 15.2578L22.6275 15.2526L22.6264 15.1692L22.6473 15.1637L22.6455 15.0065L22.6554 15.0084V14.9702L22.6646 14.9735L22.6433 14.8479L22.6414 14.6903L22.6212 14.6782L22.6201 14.5951L22.5999 14.5816L22.5988 14.5165L22.5786 14.5033V14.4567L22.5691 14.4552V14.4368L22.5577 14.4354V14.3975L22.5478 14.3957V14.3678L22.5371 14.3656V14.3479L22.5268 14.3457V14.3094L22.5162 14.3068L22.5063 14.2583L22.4861 14.2547V14.2491L22.4883 14.2513L22.507 14.2547L22.5176 14.2756L22.5371 14.2793L22.5569 14.3097L22.5771 14.3131L22.5878 14.3333L22.6073 14.3373L22.6473 14.3898L22.6668 14.3935L22.7468 14.4908L22.8074 14.5393L22.8376 14.5896L22.857 14.5933L22.8677 14.6227L22.9173 14.6686V14.6866L22.9672 14.7321V14.7505L22.9882 14.7634V14.7821L23.0175 14.8045V14.8243L23.0377 14.8361L23.0392 14.8548L23.0587 14.8673L23.0693 14.8967L23.0781 14.8989L23.6897 15.577L23.7099 15.5891V15.6078L23.7294 15.6207L23.7408 15.6497L23.7496 15.6519L23.8914 15.8142L23.9108 15.8183L23.9307 15.8488L23.9505 15.8535L23.9817 15.895L24.0012 15.8983L24.0306 15.941L24.0508 15.9446L24.1114 16.0196L24.2403 16.1529L24.2811 16.2058L24.4515 16.3832L24.4618 16.4027L24.5018 16.4195L24.511 16.4401L24.5503 16.4552L24.5613 16.4761L24.951 16.8581L24.9712 16.8622L25.0017 16.9132L25.0113 16.915V16.9334L25.0322 16.9463V16.9554L25.052 16.9683V16.987L25.0715 16.9992L25.0722 17.0186L25.1016 17.0407L25.2625 17.2074L25.282 17.2115L25.2919 17.2317L25.3125 17.235L25.3323 17.2666L25.3514 17.2702L25.3705 17.3011L25.3914 17.3044L25.4212 17.3477L25.4418 17.3503L25.5215 17.4473L25.5409 17.4513V17.4594L25.5707 17.4847L25.5714 17.502L25.6618 17.5916L25.7925 17.7158V17.7253L25.8127 17.7283V17.7382L25.8318 17.7503L25.8715 17.7668L25.9211 17.8047L25.9321 17.8245L25.9626 17.8476L25.9821 17.8509L26.0125 17.8752L26.0214 17.895L26.0522 17.9196L26.0713 17.9222L26.0908 17.945L26.1018 17.9652L26.2616 18.1227L26.4919 18.356L26.5121 18.3773L26.5315 18.3813L26.5415 18.4015L27.0524 18.8706V18.8794L27.0829 18.9033L27.383 19.232L27.4024 19.2349L27.4432 19.2893L27.4619 19.2926L27.4726 19.3124L27.5325 19.3694L27.5732 19.4135L27.6232 19.477L27.6636 19.5303L27.6937 19.5721L27.7139 19.6022L27.7444 19.6636L27.783 19.7165L27.8035 19.7561L27.8142 19.7764L27.8454 19.8373V19.8575L27.8461 19.8645L27.8549 19.8656L27.8656 19.9045L27.8744 19.9064V19.9343L27.8851 19.9358V19.9538L27.8954 19.956L27.8961 19.9828L27.9056 19.985L27.9067 20.0129L27.9159 20.014L27.917 20.0412L27.9258 20.0434L27.9883 20.32L27.9886 20.4291L28 20.4313L27.9931 20.6667L27.9842 20.6652L27.9857 20.7284L27.9747 20.7273V20.7725L27.964 20.7706L27.9655 20.8162L27.9552 20.8147L27.9556 20.8511L27.946 20.8489V20.8856L27.9365 20.8841L27.9369 20.9121L27.9277 20.9095L27.9178 20.9716L27.9075 20.9705V20.9881L27.8983 20.9859V21.0134L27.888 21.0112L27.8891 21.03L27.8796 21.0289V21.056L27.8693 21.0538L27.8505 21.1045L27.8403 21.1027V21.1214L27.83 21.1196V21.1376L27.8204 21.1354V21.1545L27.8109 21.1523L27.7918 21.2037L27.7819 21.2019L27.7723 21.2272L27.7528 21.2327L27.7433 21.2672L27.7235 21.272V21.2904L27.6937 21.3036V21.3216L27.6651 21.3348V21.3528L27.6265 21.3734V21.3925L27.5369 21.4472L27.459 21.5155L27.4392 21.5119L27.4105 21.5431L27.3907 21.539L27.3716 21.5622L27.3514 21.5592L27.3304 21.5824L27.3113 21.5798L27.3022 21.5952L27.2724 21.5989V21.6088L27.2327 21.6107L27.2228 21.6265L27.1633 21.6342L27.1538 21.65L27.0656 21.661V21.6698L27.0252 21.6724V21.6808L26.9958 21.6761V21.6849L26.9764 21.6808V21.69L26.947 21.6849V21.6941L26.9169 21.6885V21.6974L26.8864 21.6926V21.701L26.8577 21.6966V21.7043L26.8177 21.6974V21.7065L26.7787 21.6988V21.708L26.7295 21.6988V21.708C26.7295 21.708 26.4331 21.6713 26.3152 21.6412C26.1958 21.6107 25.8954 21.4986 25.8954 21.4986L25.8506 21.484L25.837 21.4792V21.4704L25.7859 21.4509V21.4428L25.7474 21.4259V21.4164L25.7172 21.412V21.4017L25.6768 21.3866V21.3763L25.6368 21.3598L25.6269 21.3396L25.5681 21.3106V21.3014L25.2779 21.12V21.1111L25.2379 21.1045V21.0946L25.2085 21.0895V21.0799L25.1784 21.0748V21.0656L25.149 21.0505L24.6902 20.7376L24.6708 20.7346L24.6296 20.6814L24.6102 20.6777L24.331 20.4621V20.4522L24.2914 20.436V20.4272L24.2612 20.4217V20.4125L24.2021 20.3831V20.3736L24.1812 20.3707V20.3615L24.1419 20.3446L24.1316 20.3247L24.0724 20.295L24.0614 20.2752L24.042 20.2715V20.2619L24.0115 20.248L24.0012 20.2274L23.9825 20.2241L23.9619 20.1932L23.9424 20.1896L23.9314 20.1694L23.9116 20.165L23.8712 20.1124L23.8513 20.1091L23.5219 19.8384V19.8289L23.4631 19.7995V19.7903L23.4429 19.7863V19.7775L23.4238 19.7741V19.7657L23.3628 19.7363L23.3525 19.7165L23.3125 19.6992L23.3037 19.6786L23.2622 19.6625L23.2434 19.6316L23.2229 19.6283L23.2129 19.6081L23.1935 19.6037L23.1725 19.5721C23.1725 19.5721 22.8328 19.3051 22.7053 19.1846C22.5786 19.0652 22.1694 18.6998 22.1228 18.6498L22.0839 18.6146V18.5969L22.0332 18.5514L22.0225 18.5216L22.0038 18.4904L21.6431 18.1687Z" fill="#99D64B"/>
</g>
<g filter="url(#filter1_i_580_2510)">
<path d="M14.4581 16.006L14.4589 16.0243L14.5382 16.0769V16.0956L14.6201 16.1463V16.1658L14.6502 16.172V16.1801L14.6609 16.2007L14.6917 16.2341L14.7116 16.2377V16.266L14.7329 16.2693L14.752 16.3197L14.763 16.3211V16.3399L14.7832 16.3535V16.3803L14.8034 16.3847L14.8038 16.403L14.824 16.4074L14.8449 16.4574L14.8655 16.4603V16.4791L14.8857 16.4831L14.936 16.5665L14.9558 16.5705V16.5882L15.0363 16.6495L15.0377 16.6686L15.0583 16.6723V16.6903L15.1094 16.7186V16.7369L15.1296 16.7413V16.7601L15.2001 16.8005L15.2104 16.8203L15.2397 16.8262L15.25 16.8471L15.2713 16.8504V16.86L15.3018 16.875V16.8934L15.3419 16.9015V16.9198L15.3922 16.9474L15.5351 17.1215L15.5362 17.1402L15.5553 17.1439L15.6669 17.2669V17.2846L15.6886 17.2882V17.307L15.7187 17.3121V17.3312L15.7378 17.3345V17.3529L15.8708 17.4425L15.9108 17.4774V17.4877L15.9303 17.4914L15.9317 17.5002L15.9523 17.5046L15.9622 17.5233L15.992 17.5296L16.0023 17.5501L16.0324 17.5556V17.5648L16.0728 17.5817V17.6005L16.1238 17.6287V17.646L16.1437 17.6497V17.6691L16.1643 17.6732L16.1955 17.7062V17.7246L16.2142 17.7283L16.2164 17.747L16.2355 17.7507L16.2869 17.8054V17.8249L16.3068 17.8285L16.4684 17.97V17.9887L16.4992 17.9946L16.5007 18.0126L16.5496 18.0397V18.0489L16.5808 18.0552L16.5793 18.0644L16.6212 18.0809V18.0996L16.662 18.1066V18.1257L16.7317 18.1481L16.7431 18.169L16.7824 18.1757V18.194L16.8335 18.2028L16.8427 18.2241L16.8937 18.2333V18.2429L16.9238 18.2484L16.9253 18.2583L16.9642 18.2653V18.2737L17.0351 18.2873L17.0451 18.3082L17.1563 18.3288L17.1663 18.3494L17.2673 18.3674V18.3773L17.297 18.3813V18.3913L17.347 18.4015V18.4104L17.3679 18.414L17.3778 18.4346L17.4583 18.4585V18.4772L17.8212 18.5812L17.9519 18.605V18.5962L17.9725 18.6003V18.5903L18.1628 18.6076V18.5889L18.3435 18.5764V18.5569L18.3721 18.558L18.3644 18.5635V18.5819L18.3148 18.6098L18.2561 18.6535V18.6708L18.2267 18.6756L18.158 18.7358L18.1385 18.7314L18.1084 18.7622L18.0893 18.7593L18.0588 18.7905L18.0393 18.7857L18.0199 18.81L18 18.8067L17.9901 18.8221L17.9611 18.8269V18.8357L17.9413 18.832L17.9325 18.8482L17.9023 18.8522V18.8614L17.8428 18.868L17.8326 18.8849L17.7933 18.886V18.8952L17.7738 18.8923V18.9014L17.7539 18.8974V18.9059L17.6955 18.9139V18.9227L17.6654 18.9172V18.9264L17.6607 18.9503L17.6419 18.9455L17.5931 18.9918L17.5472 18.9863L17.5479 19.0054L17.4899 19.0392L17.4006 19.1145L17.38 19.1104L17.3025 19.16L17.1843 19.2151L17.1541 19.2188V19.2276L17.1354 19.2232L17.1244 19.2397L17.0847 19.2427L17.0752 19.2581L17.0553 19.2544L17.0359 19.2691L17.016 19.2658V19.2746L16.9966 19.2717V19.2805L16.976 19.2765L16.9767 19.2856L16.9576 19.2816V19.2915L16.9382 19.2875V19.2963L16.9172 19.2934L16.918 19.3022L16.8592 19.3095V19.318L16.8287 19.3128V19.3216L16.8089 19.318L16.8096 19.3279L16.7788 19.3216L16.7802 19.3301L16.7516 19.34V19.3492L16.7215 19.344V19.3532L16.6913 19.3477V19.3558L16.554 19.4131L16.5147 19.4509L16.4941 19.4473L16.4559 19.4862L16.4361 19.4822L16.4166 19.506L16.3971 19.5031L16.3773 19.5259L16.3578 19.5229L16.3472 19.5391L16.3082 19.5406L16.2983 19.5571L16.2682 19.5611V19.5696L16.2278 19.5725L16.2186 19.5879L16.1598 19.5953V19.6041L16.1411 19.6012V19.6103L16.1209 19.6063V19.6155L16.1011 19.6118V19.621L16.0408 19.6283V19.6368L16.0115 19.632V19.6401L15.992 19.6368V19.6467L15.9622 19.6401L15.963 19.65L15.9428 19.6467V19.6555L15.9123 19.65L15.9138 19.6596L15.8836 19.6537V19.6625L15.6963 19.7371L15.6765 19.7338L15.6375 19.772L15.6181 19.7679L15.5982 19.7925L15.5788 19.7881L15.5593 19.8124L15.5384 19.8076L15.5292 19.8245L15.5097 19.8204L15.4895 19.8447L15.4506 19.8465L15.4403 19.8631L15.4014 19.8645L15.3922 19.8814L15.333 19.8888L15.3228 19.9049L15.293 19.8994L15.2842 19.9156L14.9573 19.9736L14.918 19.967V19.9754L14.8791 19.9692V19.9777L14.839 19.9703V19.9795L14.8004 19.9725V19.9813L14.7498 19.971V19.981L14.7002 19.971V19.981L14.6208 19.967V19.9751L14.255 19.9163V19.9075L14.1356 19.8855V19.877L14.0563 19.8619L14.0556 19.8531L13.9968 19.8425V19.8326L13.9567 19.8245V19.816L13.9064 19.8069V19.7973L13.7973 19.7591V19.7503L13.7672 19.7448V19.7356L13.6971 19.7136V19.7044L13.6776 19.7007V19.6912L13.6475 19.686V19.6768L13.6273 19.6735V19.6636L13.5979 19.6588V19.6496L13.5586 19.6328L13.5579 19.6239L13.5285 19.6184V19.6096L13.4682 19.5799V19.5703L13.4491 19.5663L13.4477 19.5578L13.4087 19.5417L13.3984 19.5215L13.3375 19.4921L13.3283 19.4722L13.2875 19.4561L13.2883 19.4458L13.2578 19.4315L13.2486 19.4116L13.2276 19.408L13.2185 19.3881L13.1983 19.3841L13.1784 19.3532L13.1582 19.3492L13.1384 19.318L13.1189 19.315L13.0984 19.2831L13.0682 19.2684L12.979 19.1611L12.9588 19.1571L12.8872 19.0623L12.8684 19.059L12.8181 18.9944L12.8174 18.976L12.7979 18.9635V18.9547L12.7773 18.9411V18.9235L12.7479 18.8996L12.7472 18.8805L12.7178 18.857V18.839L12.6984 18.8269L12.6877 18.7971L12.6774 18.7949L12.6767 18.7769L12.6572 18.7641L12.6473 18.7358L12.6374 18.7336L12.6267 18.6947L12.6065 18.6818L12.6058 18.6634L12.586 18.6414V18.6238L12.5772 18.6216L12.5764 18.6039L12.5665 18.601L12.5658 18.5834L12.5562 18.5815L12.5356 18.5228L12.5254 18.5209L12.5154 18.4739L12.5055 18.471V18.4533L12.4952 18.4515V18.4243L12.4846 18.4225L12.4747 18.3839L12.4651 18.3828L12.4442 18.2873L12.4343 18.2855L12.4335 18.2583L12.4233 18.2561V18.2293L12.4137 18.2271L12.4019 18.1613L12.3935 18.1595L12.392 18.1235L12.3828 18.1209L12.3711 18.0093L12.392 17.239L12.4012 17.2405V17.2126L12.4108 17.2151V17.1876L12.421 17.1891L12.4493 17.0763L12.4596 17.0781V17.0598L12.4692 17.0616V17.0344L12.4772 17.037L12.4875 17.0017L12.4974 17.0032V16.9757L12.5074 16.9779L12.5176 16.9422L12.5268 16.9448V16.9173L12.5463 16.9118V16.8941L12.5658 16.8798V16.8611L12.5764 16.8625L12.5742 16.8442L12.5849 16.8464V16.8276L12.6043 16.8229L12.6142 16.7883L12.6341 16.7825V16.7645L12.6536 16.7582L12.6627 16.7237L12.6818 16.7186V16.7002L12.7112 16.6873V16.6686L12.741 16.6561V16.6381L12.7895 16.6109V16.5926L12.8288 16.5724V16.554L12.8482 16.5393L12.878 16.536V16.5176L12.8978 16.5125L12.9173 16.489L12.9654 16.4703V16.4519L12.9852 16.4376L13.0054 16.4416L13.0348 16.41L13.055 16.4137L13.0932 16.3755L13.1138 16.3792L13.1333 16.3553L13.1527 16.359L13.1726 16.3355L13.1928 16.3391L13.2027 16.3222L13.2412 16.3204L13.2512 16.3046L13.2809 16.3002V16.291L13.3209 16.2895L13.3298 16.2734L13.3496 16.2778L13.3698 16.2624L13.39 16.2664V16.2572L13.4095 16.2609V16.2521L13.4297 16.255L13.4385 16.2392L13.4682 16.2436V16.2355L13.5079 16.233L13.5075 16.2242L13.5384 16.2304V16.2209L13.5773 16.219L13.5766 16.2091L13.6067 16.2153V16.2058L13.6258 16.2095L13.6265 16.2007L13.7551 16.1973V16.1878L13.7852 16.1937V16.1838L13.8146 16.1896V16.1805L13.9332 16.1838L13.9439 16.168L13.963 16.172L13.9817 16.1474L14.0027 16.1522L14.0218 16.1279L14.042 16.1316L14.0614 16.1077L14.0816 16.1118L14.0916 16.0956L14.1309 16.0934L14.1408 16.0769L14.1595 16.0805L14.1705 16.0644L14.1893 16.0677L14.1992 16.0504L14.2186 16.0552L14.2377 16.0401L14.2583 16.0442L14.2576 16.0357L14.2785 16.0383V16.0291L14.298 16.0332L14.4416 15.9972L14.4581 16.006Z" fill="#99D64B"/>
</g>
<g filter="url(#filter2_i_580_2510)">
<path d="M17.6626 14.4326L17.6339 14.4631L17.6126 14.4694L17.6141 14.487L17.5935 14.5021L17.5748 14.498L17.5638 14.5145L17.5451 14.5116V14.52L17.5249 14.5164V14.5256L17.4958 14.52V14.5292L17.4352 14.5362V14.5454L17.4161 14.5421L17.4169 14.5505L17.3563 14.5586L17.3478 14.5751L17.3074 14.5755L17.299 14.5931L17.2795 14.5895L17.2688 14.6056L17.2494 14.6016L17.2395 14.6189L17.22 14.6148L17.2101 14.6306L17.1902 14.628L17.1803 14.6435L17.1318 14.6585L17.134 14.6596V14.678L17.1741 14.7048V14.7235L17.2545 14.7852L17.256 14.8032L17.2758 14.8073V14.8249L17.296 14.8297V14.8477L17.317 14.8521V14.8701L17.3368 14.873L17.3882 14.9571L17.4084 14.9604L17.4297 15.0104L17.4488 15.0148V15.0332L17.4694 15.0368L17.5212 15.1478L17.5399 15.1518L17.5818 15.2337L17.6222 15.2778L17.6835 15.3083V15.3278L17.7236 15.3432V15.3619L17.7746 15.3898V15.4078L17.7945 15.4111L17.7959 15.4302L17.8154 15.4346L17.8165 15.453L17.8664 15.5081L17.8874 15.5121V15.5305L17.9072 15.5345V15.5522L17.9274 15.5566L17.9987 15.6712L18.0196 15.6756V15.694L18.0391 15.698V15.7255L18.0593 15.7288L18.0817 15.7887L18.0912 15.7909L18.1111 15.8409L18.1316 15.8446L18.1518 15.8941L18.172 15.8982L18.2341 15.9467V15.965L18.2529 15.9683V15.9874L18.3248 16.0278V16.0466L18.3439 16.0499L18.3752 16.1024L18.395 16.1057L18.3957 16.1248L18.4159 16.1281L18.4468 16.1799L18.4666 16.1839V16.203L18.4868 16.206L18.5184 16.2765L18.5386 16.2805V16.2996L18.5581 16.3029L18.5897 16.3731L18.6088 16.3771L18.6099 16.4051L18.6297 16.4084L18.6411 16.4377L18.6503 16.44L18.6602 16.4888L18.6819 16.5006V16.5197L18.7028 16.5325V16.5604L18.7226 16.5733L18.7329 16.631L18.7539 16.6434V16.6805L18.7638 16.6831L18.7744 16.7309L18.7932 16.7349L18.8045 16.83L18.8163 16.8315V16.8499L18.8255 16.8521L18.8262 16.9075L18.8472 16.9208L18.8571 17.0067L18.878 17.0185L18.8993 17.096L18.9195 17.1004L18.9397 17.1786L18.9599 17.1815L18.9713 17.2488L18.9911 17.2521L19.0033 17.3476L19.0227 17.3509L19.0565 17.6807L19.0466 17.6789L19.0477 17.828L19.0385 17.8251L19.0393 17.8908L19.0293 17.8886L19.0304 17.9437L19.0091 17.9499L19.0011 18.0223L18.9805 18.0186L18.9324 18.1667L18.9114 18.1633L18.8321 18.297L18.8126 18.3018L18.8023 18.3L18.8027 18.3272L18.7825 18.3242V18.333L18.7432 18.354L18.7142 18.3768V18.4039L18.644 18.4271V18.4425L18.6598 18.4443L18.6679 18.4278L18.6885 18.4322L18.6977 18.4153L18.7186 18.4194L18.7278 18.4028L18.7472 18.4065V18.3966L18.7774 18.394L18.7869 18.3771L18.8067 18.3812L18.8369 18.3499L18.8571 18.354L18.896 18.3154L18.9155 18.3187L18.9834 18.2592L19.0033 18.2625V18.253L19.0326 18.2408L19.0433 18.2151L19.1109 18.1729V18.1545L19.159 18.1274V18.1086L19.1792 18.1038V18.0947L19.2001 18.0895L19.1987 18.0719L19.2192 18.066V18.0473L19.2387 18.0418V18.0227L19.2677 18.0105L19.2975 17.9665L19.336 17.9463L19.3463 17.9312L19.3658 17.9338L19.375 17.9022L19.3948 17.907L19.404 17.8901L19.4246 17.8934L19.4337 17.8772L19.4532 17.8816L19.4635 17.8647L19.4925 17.8614L19.5329 17.8232L19.5524 17.8262L19.5917 17.7891L19.6122 17.7916L19.6111 17.7828L19.6302 17.7766V17.7589L19.6504 17.7626L19.6894 17.7241L19.6986 17.7263V17.7083L19.7379 17.6969V17.6789L19.7875 17.651V17.6326L19.8268 17.6131V17.5944L19.8569 17.5966V17.579L19.9347 17.529L19.9733 17.5275L19.9843 17.4956L20.0236 17.4941V17.4857L20.0537 17.4816L20.0622 17.4651L20.0817 17.4691V17.4592L20.1125 17.4559L20.121 17.4398L20.1404 17.4427L20.1599 17.4192L20.1801 17.424L20.1904 17.4067L20.2003 17.4085L20.2099 17.3924L20.2293 17.396V17.3872L20.269 17.3755V17.3578L20.4556 17.237L20.4541 17.219L20.4842 17.2062V17.1871L20.5143 17.1753L20.5474 17.1419L20.5213 17.1007L20.5114 17.0989L20.5015 17.06L20.471 17.0365L20.4596 16.9876L20.4497 16.9865L20.4089 16.9226L20.2767 16.8337V16.8146L20.2473 16.7999L20.2374 16.7804L20.2165 16.7764L20.1856 16.7338L20.165 16.7294L20.1155 16.6736L20.0945 16.6427L20.0739 16.6394L20.0435 16.5865L20.0236 16.5828L19.9722 16.509L19.9616 16.5072V16.4888L19.9009 16.4308L19.9002 16.4124L19.8815 16.3992V16.3812L19.8598 16.3683V16.3485L19.84 16.3272L19.8198 16.3231L19.7474 16.1715L19.7265 16.1674L19.6442 15.9768L19.6244 15.9628V15.9448L19.6141 15.9415L19.6038 15.8846L19.5939 15.8824L19.5924 15.8559L19.5832 15.8537L19.5818 15.8258L19.5729 15.824V15.7961L19.5627 15.795L19.5616 15.7571L19.5524 15.7557L19.5406 15.698L19.53 15.6958V15.6782L19.5208 15.676V15.6385L19.5105 15.6374L19.509 15.5812L19.4999 15.5797L19.4991 15.5323L19.4903 15.5305L19.4885 15.457L19.4782 15.4548L19.4657 15.2308L19.4554 15.2289V15.2014L19.4348 15.1878L19.4238 15.1213L19.404 15.1177L19.393 15.0787L19.3823 15.0765V15.0394L19.372 15.0376V15.01L19.3522 14.9975L19.3507 14.9502L19.3313 14.9469L19.3206 14.8521L19.3103 14.851L19.3096 14.8326L19.2997 14.8301L19.2982 14.7658L19.2795 14.7518L19.2776 14.6497L19.2574 14.6376L19.2534 14.3493L19.274 14.3452V14.2424L19.2931 14.246L19.3011 14.1553L19.3111 14.1557V14.1197L19.3221 14.1223L19.3213 14.0756L19.3404 14.0694V14.033L19.3614 14.0275L19.3698 13.9639L19.3908 13.9684L19.4187 13.871L19.4396 13.8747L19.4381 13.8479L19.4591 13.8512L19.5381 13.727L19.5586 13.7303L19.588 13.6712L19.6071 13.6756V13.6565L19.6277 13.6598L19.6765 13.5955L19.6964 13.5985V13.5805L19.7265 13.5864L19.7566 13.5636L19.7559 13.546L19.7761 13.5493V13.5309L19.797 13.5342L19.8161 13.5107L19.837 13.5136L19.8462 13.4971L19.8756 13.4934V13.4747L19.9274 13.4475L20.0159 13.4361V13.4178L20.1169 13.409L20.1158 13.3899L20.2065 13.3796L20.2374 13.3854V13.3763L20.258 13.3796V13.3693L20.2965 13.377L20.3068 13.3605L20.417 13.3715L20.4258 13.3553L20.5177 13.3715L20.5283 13.3553L20.6885 13.3854L20.7094 13.3799L20.9805 13.4391V13.4574L21.2016 13.5265L21.203 13.5452L21.2523 13.554L21.2545 13.5728L21.3742 13.6231L21.3749 13.6415L21.4749 13.6877V13.7068L21.5149 13.7234L21.5156 13.7333L21.5465 13.7381L21.5667 13.77L21.5975 13.7752V13.7851L21.6177 13.7884V13.7972L21.6971 13.8126V13.8222L21.7676 13.835V13.8438L21.819 13.8534V13.8626L21.8789 13.874V13.8824L21.9197 13.8909L21.9288 13.9111L21.9696 13.9191V13.928L22.0001 13.9335V13.9423L22.031 13.9482V13.9577L22.0706 13.9654V13.975L22.2131 14.0381V14.0561L22.4141 14.1674V14.1854L22.4486 14.2023L22.4368 14.1869V14.1693L22.4166 14.1557V14.1381L22.3968 14.1156V14.0965L22.3766 14.0852L22.3667 14.0462L22.3465 14.0341V14.015L22.3365 14.0128L22.3263 13.9845L22.3064 13.9717V13.9526L22.2664 13.9184L22.266 13.9008L22.226 13.8651V13.8471L22.1547 13.7799L22.1456 13.7502L22.125 13.7461V13.7281L22.1062 13.7248L21.9652 13.59L21.9461 13.5581L21.9252 13.554L21.9153 13.5342L21.8958 13.5305L21.8752 13.4997L21.8355 13.4831L21.826 13.4633L21.7955 13.4479L21.7948 13.4391L21.736 13.4104V13.4012L21.7158 13.3968V13.388L21.6556 13.3594V13.3491L21.6063 13.3307V13.3223L21.5861 13.3182V13.3094L21.5564 13.3039V13.2944L21.5373 13.2903V13.2819L21.5064 13.2767V13.2672L21.487 13.2635V13.2547L21.4176 13.2323V13.2235L21.3882 13.2172L21.3867 13.2084L21.3481 13.2014L21.3474 13.1926L21.2978 13.1831V13.1735L21.2482 13.164V13.1555L21.0895 13.1169V13.1081L20.6532 13.0453L20.6543 13.0545L20.6036 13.0453L20.6043 13.0545L20.5537 13.0453L20.5551 13.0545L20.525 13.0486V13.0578L20.4864 13.0508V13.0596L20.446 13.0527V13.0622L20.4255 13.0567V13.067L20.3667 13.0652V13.0747L20.3472 13.0699V13.0791L20.3171 13.0751V13.0839L20.2785 13.0854V13.0949L20.2488 13.0883L20.2495 13.0975L20.1893 13.1056V13.1144L20.1691 13.1107L20.1698 13.1199L20.1305 13.1217L20.121 13.1386L20.0809 13.1397L20.0717 13.1562L20.0508 13.1529V13.1625L20.0214 13.1651L20.0119 13.1823L19.9913 13.1775L19.9726 13.2018L19.9524 13.1981L19.9329 13.2216L19.9138 13.218L19.8844 13.2495L19.8642 13.2459L18.8027 13.842L18.763 13.8431L18.7638 13.8527L18.734 13.8563L18.7245 13.8725L18.7043 13.8692V13.8784L18.665 13.8986L18.3406 14.0936L18.3414 14.1116L18.3219 14.1171L18.2925 14.1476L18.272 14.1439L18.2529 14.1586L17.6626 14.4326Z" fill="#99D64B"/>
</g>
<g filter="url(#filter3_i_580_2510)">
<path d="M5.28295 13.3788L5.30168 13.3365L5.31197 13.338L5.32115 13.3039L5.3318 13.3061L5.33107 13.2873L5.34062 13.2892V13.2609L5.35127 13.2635L5.36963 13.2128L5.37955 13.2139V13.1959L5.38947 13.1977V13.1797L5.39975 13.1815L5.39902 13.1632L5.40857 13.165V13.1463L5.41775 13.1489V13.1301L5.43795 13.1158V13.0974L5.45779 13.0927L5.46623 13.057L5.4868 13.0519L5.49599 13.0177L5.51582 13.0115L5.51509 12.9931L5.52537 12.9957V12.977L5.54484 12.9714V12.9534L5.5643 12.9479V12.9296L5.58414 12.9244L5.58341 12.9057L5.60324 12.9006V12.8818L5.63226 12.8697V12.8517L5.66164 12.8377V12.8201L5.71123 12.7922V12.7746L5.73069 12.7683V12.7602L5.75016 12.7544L5.74979 12.736L5.99405 12.4344L6.00323 12.4363L6.02858 12.4054L6.03923 12.4065V12.379L6.04952 12.3812L6.04878 12.3625L6.05833 12.3643V12.3382L6.06825 12.3397L6.08698 12.2883L6.09726 12.2897V12.2721L6.10645 12.2732V12.2559L6.11673 12.2574V12.239L6.12592 12.2405V12.2221L6.13583 12.224V12.206L6.14538 12.2078V12.1898L6.1553 12.1917V12.1726L6.1755 12.1586V12.141L6.19387 12.1347L6.20415 12.0998L6.22362 12.0947L6.2328 12.0598L6.25264 12.0543V12.0363L6.26255 12.0378V12.0201L6.29083 12.0069L6.30038 11.9716L6.3305 11.9595L6.33014 11.9415L6.35989 11.929L6.40874 11.8739V11.8556L6.42894 11.86L6.44841 11.8262L6.45759 11.8277V11.8104L6.46861 11.8115L6.49726 11.7806L6.51636 11.7755V11.7568L6.52628 11.7593L6.55566 11.7281L6.5755 11.7318L6.83445 11.4508L6.83334 11.4324L6.84363 11.435L6.85355 11.4001L6.8631 11.4023V11.384L6.87301 11.3854V11.3667L6.88367 11.3693L6.8822 11.3505L6.89248 11.3531V11.3347L6.90166 11.3362V11.3182L6.91195 11.3197V11.3013L6.92113 11.3031V11.2855L6.93141 11.2866L6.92958 11.2686L6.95088 11.2532L6.95015 11.2356L6.97072 11.2308L6.97953 11.1952L7.00965 11.1827L7.01883 11.1481L7.0383 11.143V11.125L7.04858 11.1257L7.04748 11.1081L7.06805 11.1026L7.07687 11.0765L7.10662 11.0644V11.046L7.13637 11.0339L7.14629 10.999L7.19441 10.9711V10.9535L7.24362 10.9256V10.9072L7.39055 10.743L7.4001 10.7456V10.7265L7.40854 10.7283L7.4192 10.6662L7.42875 10.6684L7.42801 10.6497L7.43866 10.6519L7.44748 10.599L7.45813 10.6009L7.4574 10.5825L7.46731 10.5843V10.5568L7.47686 10.559L7.48531 10.5241L7.49596 10.5252V10.4984L7.50588 10.5013L7.52498 10.4492L7.53526 10.4506L7.53453 10.433L7.54408 10.4352V10.4161L7.55363 10.4176V10.3999L7.56355 10.4014V10.3838L7.57346 10.3849V10.3673L7.58301 10.3691V10.3507L7.59367 10.3529L7.5922 10.3338L7.61313 10.3199L7.61166 10.3011L7.63223 10.2956L7.65097 10.2442L7.67117 10.2394V10.2214L7.70055 10.2082L7.70937 10.1733L7.72994 10.1678L7.7292 10.1498L7.75859 10.137V10.119L7.76887 10.1204L7.77769 10.0943L7.79862 10.0899L7.79752 10.0712L7.83682 10.051V10.033L7.88604 10.0055L7.88567 9.98782L7.94481 9.95256V9.9342L8.06088 9.75495L8.07116 9.75752L8.07043 9.73879L8.07998 9.74136L8.09945 9.66239L8.10863 9.66423V9.64586L8.11891 9.6477V9.62015L8.12883 9.62236L8.13801 9.58746L8.1483 9.58967V9.56175L8.15748 9.56322L8.17621 9.5129L8.18686 9.51363V9.49637L8.19568 9.49858V9.47984L8.2067 9.48131L8.20596 9.46331L8.21551 9.46478V9.44605L8.2258 9.44899L8.22433 9.43026L8.23608 9.43283L8.23571 9.41483L8.2449 9.41556V9.3972L8.26437 9.38324V9.36414L8.28457 9.35973L8.29301 9.32484L8.31248 9.31896L8.3224 9.2848L8.34187 9.27893V9.26093L8.36207 9.25505V9.23779L8.3808 9.23191V9.21355L8.401 9.2084L8.40027 9.18894L8.4201 9.18453L8.41349 9.15551L8.44361 9.14339V9.12429L8.48254 9.10519L8.49173 9.07911L8.57951 8.959V8.91272L8.58869 8.91493V8.88738L8.59861 8.88922L8.59751 8.86203L8.6078 8.8635V8.82714L8.61734 8.82824L8.61698 8.8018L8.64306 8.8062V8.77866L8.65334 8.78049L8.65187 8.75368L8.66326 8.75478L8.66179 8.73642L8.67244 8.73862L8.68162 8.68573L8.69191 8.68757L8.69081 8.6692L8.70072 8.67104V8.64349L8.71027 8.64643L8.71982 8.6108L8.72974 8.61264L8.72937 8.5939L8.73966 8.59647L8.73892 8.56892L8.74921 8.57113L8.76904 8.52044L8.77896 8.52154L8.77859 8.50281L8.78814 8.50465L8.78741 8.48738L8.79732 8.48849L8.81716 8.43743L8.83626 8.43192V8.40474L8.85646 8.39813L8.86564 8.36434L8.88474 8.35883V8.34046L8.90384 8.33605V8.31695L8.92368 8.31145V8.29308L8.94388 8.2883V8.26994L8.96371 8.26406L8.96261 8.2457L8.97326 8.24753L8.98318 8.22219L9.00265 8.21705V8.19831L9.0313 8.18546V8.16746L9.08015 8.13991V8.12228L9.22634 7.91218L9.2256 7.88464L9.23589 7.8861V7.85892L9.24507 7.86076V7.8233L9.25462 7.8255L9.25388 7.8075L9.26417 7.80971V7.78216L9.27409 7.78399V7.766L9.284 7.76747V7.73992L9.29319 7.74249V7.72376L9.3031 7.72596L9.30237 7.69841L9.31339 7.69952L9.32184 7.66535L9.33102 7.66719V7.64846L9.34167 7.6503L9.34241 7.62385L9.36077 7.61761V7.58969L9.37142 7.59189V7.57426L9.38061 7.57573L9.37914 7.557L9.40044 7.55186L9.39934 7.53349L9.41954 7.5188V7.50154L9.42946 7.50264V7.48464L9.43864 7.48648V7.46811L9.45811 7.46334L9.46766 7.42771L9.48823 7.42293V7.40457L9.50733 7.39832V7.38033L9.52716 7.37445V7.35645L9.54589 7.35131V7.33331L9.56573 7.32817V7.3087L9.59438 7.29621V7.27895L9.62376 7.26536V7.24773L9.75085 7.07032L9.76003 7.07179V7.04534L9.77032 7.04645V7.0189L9.77987 7.02074L9.77876 6.99355L9.78978 6.99576L9.78831 6.95866L9.79897 6.9605V6.94176L9.80815 6.94434L9.82762 6.86536L9.83753 6.8672L9.8368 6.84884L9.84708 6.85177V6.82349L9.857 6.82533L9.86582 6.7908L9.87573 6.79264L9.88492 6.74856L9.8952 6.75077L9.9143 6.70008L9.92458 6.70081V6.68355L9.93413 6.68502L9.93377 6.66739L9.94368 6.66775L9.94332 6.65012L9.95397 6.65233L9.9525 6.63396L9.9727 6.6189V6.60091L9.99254 6.59576L10.0017 6.5605L10.0216 6.55536L10.0307 6.5212L10.0502 6.51459L10.0605 6.4808L10.0899 6.46721L10.0888 6.44921L10.109 6.44407V6.42533L10.1288 6.42056L10.1384 6.39558L10.1677 6.38199V6.36363L10.1872 6.35775L10.1868 6.3493L10.2063 6.34379L10.2059 6.32543L10.2456 6.30596V6.28649L10.5086 5.93461V5.91698L10.5181 5.91882V5.90045L10.538 5.89458V5.87695L10.5563 5.86225V5.84315L10.5674 5.84536V5.82736L10.5861 5.82148L10.5953 5.78732L10.6052 5.78806L10.6144 5.76308L10.6353 5.75757L10.6441 5.72378L10.6735 5.71056V5.69182L10.6934 5.68705V5.66795L10.7231 5.65583V5.63783L10.7624 5.61763L10.7617 5.5989L10.8006 5.5787V5.56106L10.8895 5.50413V5.48503L10.9082 5.48099L10.9281 5.45638L10.9479 5.46116L11.0265 5.39247L11.0463 5.39688L11.0754 5.36602L11.0952 5.36933L11.1349 5.33076L11.1532 5.33517L11.1734 5.31056L11.1936 5.31423L11.2035 5.29771L11.2333 5.29403V5.28522L11.2524 5.28926L11.2623 5.27273L11.2825 5.2764L11.2917 5.25987L11.3218 5.25583V5.24665L11.3809 5.24004L11.3901 5.22388L11.4103 5.22682L11.4294 5.21176L11.4496 5.21653V5.20662L11.4695 5.20992V5.20111L11.4886 5.20551L11.4985 5.18862L11.5282 5.19376V5.18531L11.5679 5.18311V5.17393L11.5973 5.18054V5.17099L11.6377 5.16878L11.6362 5.15997L11.6671 5.16548V5.15593L11.6862 5.15997V5.15042L11.7159 5.15629V5.14674L11.7347 5.15115V5.14123L11.9033 5.10855L11.9238 5.11332L11.933 5.09606L11.9727 5.09459L11.9815 5.07732L12.0223 5.07549V5.06667L12.0414 5.07034V5.06079L12.1005 5.05455V5.04573L12.1303 5.05014V5.04133L12.1692 5.03986V5.03031L12.1989 5.03655V5.02664L12.2184 5.03068V5.02149L12.2775 5.02333L12.2783 5.01415L12.3069 5.02002V5.01011L12.337 5.01635V5.0068L12.3664 5.01231V5.00239L12.4068 5.01011V5.00129L12.4461 5.00864V4.99945L12.4965 5.00864V4.99945L13.2792 5.1809V5.19082L13.3093 5.19633V5.20551L13.3379 5.21066L13.3394 5.22021L13.3695 5.22498V5.2349L13.3989 5.24004V5.24922L13.4184 5.25253V5.26208L13.4492 5.26722V5.27714L13.4882 5.2933V5.30211L13.5183 5.30836V5.31717L13.5789 5.34656V5.35537L13.6189 5.37153L13.6285 5.39137L13.6678 5.4079L13.6781 5.42847L13.6986 5.43214L13.7086 5.45197L13.728 5.45601L13.7383 5.47585L13.7589 5.47989L13.7692 5.50009L13.7875 5.50413L13.7986 5.5236L13.8184 5.52764L13.8481 5.56915L13.8687 5.57355L13.9076 5.62644L13.9278 5.62938L13.9286 5.6382L13.9484 5.65142V5.67015L14.1104 5.85454L14.139 5.87842L14.1405 5.89641L14.1706 5.92066V5.93865L14.1894 5.95041L14.1993 5.98053L14.2099 5.98236V6.00073L14.2294 6.01395L14.2404 6.04297L14.2496 6.04517V6.0628L14.2702 6.08484V6.10284L14.2808 6.10468V6.12341L14.2907 6.12488V6.14324L14.3014 6.14471V6.16308L14.3106 6.16528V6.18328L14.3205 6.18548L14.3414 6.24425L14.3517 6.24682L14.3521 6.27364L14.3616 6.2751V6.2931L14.373 6.29494V6.32212L14.3822 6.32359V6.34269L14.3929 6.34379V6.37171L14.4024 6.37391V6.40072L14.4123 6.40293L14.4233 6.46868L14.4325 6.47015L14.5357 6.78125L14.5453 6.78382L14.5559 6.82092L14.5651 6.82276L14.5761 6.88042L14.5868 6.88153V6.90026L14.596 6.90173L14.6276 7.02625L14.6375 7.02735V7.05489L14.647 7.0571L14.6485 7.08465L14.6584 7.08575V7.12248L14.6687 7.12431L14.6893 7.26499L14.6889 8.02164L14.6702 8.14506L14.661 8.14359V8.17224L14.6514 8.16967V8.19685L14.5681 8.67398L14.5585 8.67104L14.5596 8.7816L14.549 8.77976L14.5504 8.86167L14.5405 8.86093V8.91383L14.5317 8.91272L14.5324 8.96708L14.5207 8.96598L14.5229 9.01116L14.5122 9.00969L14.513 9.04606L14.503 9.04459L14.3984 9.3803L14.3881 9.37847L14.3796 9.41299L14.3686 9.41152L14.3693 9.43834L14.3587 9.4365L14.3495 9.47139L14.3396 9.46956L14.3407 9.48903L14.3297 9.48609L14.3308 9.5129L14.3106 9.51914V9.53751L14.2911 9.55147L14.185 9.78618L14.1758 9.81078L14.1666 9.78618L14.1368 9.7634L14.1266 9.72484L14.0964 9.70023L14.0957 9.68259L14.0755 9.66901V9.65027L14.045 9.62676L14.0252 9.59554L14.0149 9.59297V9.57498L13.9749 9.53971L13.9231 9.46552L13.9029 9.46258L13.8937 9.43283L13.8827 9.43026V9.40308L13.872 9.40234V9.37296L13.8617 9.37149V9.34431L13.8525 9.3421V9.31492L13.8419 9.31272V9.28517L13.8305 9.28333L13.8301 9.25579L13.8213 9.25432L13.8 9.19445L13.7905 9.19261V9.17461L13.7798 9.17278V9.15404L13.7695 9.15221L13.7692 9.13421L13.7596 9.132V9.11364L13.7497 9.11217L13.749 9.09307L13.7288 9.07103L13.728 9.05267L13.7086 9.03944L13.6873 8.98067L13.6568 8.95717V8.9377L13.6164 8.90354L13.6053 8.87342L13.5859 8.86093V8.8422L13.5558 8.81796V8.79922L13.5249 8.77535L13.5245 8.75699L13.454 8.68793L13.4445 8.65892L13.4239 8.65561L13.4232 8.63688L13.3824 8.6108L13.3328 8.54615L13.3115 8.54285V8.53366L13.2619 8.49657V8.47783L13.2314 8.46314V8.45433L13.2017 8.43927L13.191 8.41943L13.1304 8.38931L13.1205 8.36874L13.0904 8.35479V8.3456L13.0702 8.34193L13.05 8.31952L13.0301 8.31622V8.30667L13.0103 8.303L12.9986 8.28243L12.9791 8.27949V8.26994L12.9589 8.26627L12.9391 8.24312L12.9181 8.24019L12.9082 8.21999L12.8186 8.17517L12.8178 8.16562L12.7984 8.16269V8.15314L12.7374 8.13294L12.5064 8.02531L12.3965 7.99556V7.98711L12.0759 7.91843L11.4764 7.92651L11.446 7.92027V7.93055L11.3865 7.9379V7.94598L11.3475 7.94928L11.3365 7.96544L11.3167 7.9614V7.96985L11.2968 7.96655L11.2961 7.97646L11.277 7.97242L11.2572 7.98748L11.2366 7.98344L11.2274 7.99997L11.1679 8.00768L11.1477 8.03119L11.1073 8.03266L11.0985 8.05066L11.0684 8.05323V8.06315L11.0379 8.06608L11.0394 8.08555L10.9883 8.10355L10.989 8.112L10.9696 8.10906L10.9196 8.15497L10.8792 8.16599L10.8799 8.18362L10.8498 8.18803L10.8506 8.20603L10.83 8.21154L10.8307 8.22145L10.8102 8.21741L10.7617 8.26259L10.7609 8.28133L10.7518 8.28022L10.7319 8.31328L10.7114 8.30961L10.7022 8.33458L10.6923 8.33385L10.6831 8.35883L10.6625 8.36581L10.653 8.40033L10.6232 8.41319L10.6037 8.46388L10.5832 8.46975L10.5843 8.48849L10.5637 8.50281L10.5644 8.52154L10.5545 8.52044V8.53881L10.545 8.5366V8.5546L10.535 8.55276V8.5715L10.5251 8.57039V8.58803L10.5148 8.58582L10.4965 8.63798L10.4858 8.63614L10.3889 8.92154L10.372 9.10225L10.3606 9.10115L10.354 9.31125L10.3635 9.31272L10.3764 9.49931L10.3867 9.50115L10.3973 9.61391L10.4065 9.61501L10.408 9.65211L10.4182 9.65431L10.4186 9.69141L10.4282 9.69325L10.4289 9.72998L10.4381 9.73145L10.4395 9.75899L10.4487 9.7612V9.78874L10.4597 9.79058V9.81886L10.4697 9.82033V9.84788L10.4796 9.85009V9.87764L10.4906 9.87984L10.4913 9.90665L10.5005 9.90959L10.5013 9.93677L10.5104 9.93897L10.5325 9.99774L10.5413 9.99884L10.5424 10.0176L10.5516 10.0194L10.553 10.0378L10.563 10.0407V10.058L10.5721 10.0598V10.0785L10.5828 10.0808V10.0999L10.6034 10.1208L10.6037 10.1399L10.6232 10.1527L10.6441 10.2119L10.6739 10.2361L10.6845 10.2747L10.7051 10.2875L10.715 10.3173L10.7249 10.3184L10.7352 10.3482L10.7562 10.3518V10.3702L10.7866 10.3944V10.4124L10.8069 10.4249V10.4444L10.8377 10.4679V10.4778L10.8572 10.4819L10.8766 10.5032L10.8884 10.5325L10.9281 10.5678V10.595L10.938 10.5979V10.6258L10.9486 10.6273L10.949 10.6545L10.9589 10.6574V10.685L10.9696 10.6857V10.7044L10.9806 10.7063L10.9905 10.7639L10.9997 10.7658L11.0214 10.8245L11.0305 10.8264V10.8447L11.0419 10.847V10.8646L11.0515 10.8675V10.8855L11.0618 10.8874V10.9057L11.0816 10.9289V10.9469L11.1018 10.959L11.1224 11.0189L11.1532 11.0424L11.1642 11.082L11.1833 11.0941L11.1936 11.1243L11.2355 11.1592V11.1775L11.2854 11.2231V11.2418L11.3563 11.3098L11.367 11.3391L11.3865 11.3432L11.4184 11.4133L11.439 11.5004L11.4496 11.5026L11.4489 11.521L11.4584 11.5232V11.5507L11.4695 11.5522L11.4889 11.6106L11.4992 11.6128L11.5 11.6311L11.5106 11.6337V11.6521L11.5205 11.6532V11.6723L11.5304 11.6734V11.7013L11.5506 11.7153L11.5617 11.7542L11.5815 11.7659L11.6017 11.8255L11.6234 11.8376V11.8567L11.6425 11.8692L11.6542 11.9085L11.6726 11.9206V11.9401L11.7134 11.9742V11.9933L11.7549 12.0282V12.0469L11.7846 12.0708L11.796 12.0906L11.8155 12.0943V12.1042L11.8357 12.1171V12.1358L11.8658 12.1502L11.8764 12.1803L11.8966 12.1828L11.9062 12.2041L11.9165 12.2049V12.224L11.9363 12.2376L11.9477 12.2941L11.9576 12.2974V12.3147L11.9675 12.3165V12.3437L11.9782 12.3456L11.9988 12.4054L12.0087 12.4062L12.009 12.4256L12.0193 12.4271V12.4451L12.0292 12.4473V12.4657L12.0399 12.4679V12.4855L12.0502 12.4881V12.5068L12.07 12.5288L12.0707 12.5472L12.0906 12.5608L12.1104 12.6192L12.1413 12.6434L12.1516 12.6728L12.1622 12.6747V12.6927L12.1923 12.7169V12.7356L12.2331 12.7713L12.2338 12.7889L12.2731 12.8238L12.2739 12.8429L12.3444 12.9108L12.3543 12.9399L12.3745 12.9439V12.9623L12.4054 12.977V12.9869L12.4568 13.0324V13.0511L12.4763 13.0644V13.0827L12.4862 13.0849V13.1033L12.4965 13.1048L12.4972 13.1323L12.5064 13.1345L12.5365 13.2091L12.5321 13.2087L12.5229 13.2624L12.5137 13.2598V13.2778L12.5034 13.2767L12.5049 13.3039L12.4943 13.302L12.495 13.3296L12.4847 13.3281V13.3465L12.4748 13.3435L12.4755 13.3711L12.4656 13.3696L12.4568 13.4041L12.4461 13.4019V13.4298L12.437 13.4273L12.4179 13.4794L12.4068 13.4772L12.4076 13.4956L12.3973 13.4938V13.5209L12.3778 13.5264V13.5448L12.3683 13.5426V13.5709L12.3488 13.5764V13.594L12.3392 13.5922L12.3403 13.6106L12.3205 13.6252V13.6429L12.3007 13.6488L12.2816 13.7002L12.2617 13.7053V13.7233L12.2331 13.7365L12.2232 13.7707L12.1934 13.7839V13.8019L12.1743 13.8074L12.1633 13.8335L12.1541 13.8313L12.1549 13.8504L12.1251 13.8625V13.8809L12.0766 13.9264L11.9646 14.0781L11.9495 14.1038L11.9396 14.1016V14.1288L11.9304 14.1263V14.1633L11.9209 14.1619V14.1898L11.911 14.1876L11.8959 14.2118L11.886 14.21V14.2379L11.8764 14.2353V14.2622L11.8665 14.2607V14.2794L11.857 14.2772V14.3051L11.8474 14.3029V14.3213L11.8375 14.3191L11.8122 14.3694L11.8034 14.3676L11.7927 14.4025L11.7835 14.4006V14.419L11.774 14.4168V14.4447L11.764 14.4429L11.7435 14.4502L11.7501 14.4517L11.7508 14.4693L11.7409 14.4671L11.7207 14.5185L11.7023 14.5237L11.6825 14.5751L11.6627 14.5813L11.6439 14.6317L11.6237 14.6372V14.6555L11.6046 14.661V14.6787L11.5837 14.6849L11.5852 14.7026L11.5753 14.7018L11.5653 14.7272L11.5459 14.7327V14.7503L11.5165 14.7632L11.5172 14.7819L11.497 14.7867L11.4978 14.8058L11.4779 14.8102L11.4926 14.823L11.4735 14.8289V14.8462L11.4346 14.9108L11.436 14.9277L11.367 14.9703V14.9887L11.3273 15.0085L11.1224 15.2711L11.1124 15.2693L11.1025 15.3042L11.0937 15.3027V15.3211L11.0842 15.3193V15.3468L11.0739 15.3446L11.0544 15.3953L11.0445 15.3942V15.4111L11.0357 15.4104L11.0364 15.4283L11.025 15.4272L11.0265 15.4449L11.0166 15.4441V15.4614L10.9971 15.4754V15.4945L10.9769 15.4996L10.9776 15.5268L10.9677 15.5249L10.9582 15.5507L10.938 15.5558L10.9281 15.5907L10.9082 15.5966V15.6142L10.8994 15.6127L10.8998 15.6315L10.8792 15.6366V15.6546L10.8506 15.6678L10.8406 15.7024L10.8105 15.7156V15.7328L10.7819 15.7457V15.7648L10.7624 15.7696V15.7879L10.7231 15.8078V15.8258L10.6739 15.8537V15.8728L10.5248 16.0535L10.5141 16.052L10.5148 16.0884L10.5057 16.0866V16.1049L10.4965 16.1027L10.4605 16.1791L10.4509 16.1769L10.441 16.221L10.4318 16.2188V16.2372L10.4215 16.2353L10.4223 16.2629L10.4124 16.2614L10.3922 16.3121L10.383 16.3099L10.3837 16.3286L10.3734 16.3268L10.3738 16.3459L10.3635 16.3433V16.3698L10.3437 16.376V16.4032L10.3257 16.4087V16.4263L10.315 16.4252V16.4436L10.3051 16.441L10.3066 16.4597L10.2952 16.4572L10.2959 16.4763L10.2768 16.4913L10.2772 16.5093L10.2574 16.5148L10.2471 16.549L10.2276 16.5545L10.2184 16.5894L10.189 16.603L10.1799 16.6371L10.1497 16.6493L10.1398 16.6753L10.1204 16.6805L10.1112 16.7154L10.0811 16.7282V16.7462L10.0329 16.7734V16.7922L9.98409 16.8193V16.8381L9.8177 17.0265L9.80815 17.0507L9.79897 17.0496V17.0864L9.78978 17.0845L9.77987 17.1191L9.77032 17.1168L9.76003 17.1705L9.75085 17.1679L9.74093 17.212L9.73138 17.2098L9.72073 17.2443L9.71191 17.2421V17.2612L9.70126 17.259V17.2869L9.69208 17.2843L9.67335 17.3358L9.66343 17.3339V17.3527L9.65388 17.3508L9.63478 17.4015L9.61495 17.4067V17.4258L9.59511 17.4397V17.4581L9.58519 17.4562V17.4746L9.57601 17.4728V17.4915L9.55728 17.497L9.54736 17.5312L9.52716 17.537V17.5547L9.50733 17.5606V17.5789L9.48823 17.5844L9.48859 17.6024L9.46876 17.6083V17.6263L9.44966 17.6314V17.6491L9.41991 17.6623L9.42101 17.6807L9.40081 17.6869V17.7049L9.3615 17.7251V17.7431L9.31339 17.7699V17.789L9.27335 17.8081V17.8177L9.25388 17.8232L9.08382 18.0384L9.0739 18.0542L9.05481 18.106L9.04526 18.1038L9.03644 18.1387L9.02542 18.1365V18.164L9.01624 18.1629V18.1806L9.00706 18.1787V18.2055L8.99677 18.2041L8.96261 18.2526L8.95196 18.2504L8.95233 18.2687L8.94278 18.2665V18.2944L8.92294 18.2999V18.3179L8.90348 18.3323L8.90274 18.3506L8.89429 18.3492V18.3672L8.88364 18.3657V18.3837L8.86491 18.3987V18.416L8.84471 18.4219L8.83516 18.4568L8.81606 18.4627V18.4803L8.79586 18.4865V18.5042L8.77712 18.5097L8.76721 18.5446L8.73745 18.5567L8.72864 18.5916L8.69925 18.6048L8.6504 18.6595V18.6775L8.6302 18.6735L8.61147 18.7065L8.60082 18.7051V18.7234L8.58135 18.7278L8.58282 18.737L8.56225 18.7433V18.7616L8.45389 18.8333L8.45463 18.8509L8.43443 18.8557L8.38521 18.9016L8.36574 18.899L8.35546 18.9144L8.04361 19.2028L8.03186 19.2009L8.03259 19.2193L8.02341 19.2182L8.02451 19.2355L8.00395 19.2505V19.2689L7.98448 19.2737L7.97456 19.3089L7.95509 19.3148L7.94554 19.3486L7.91579 19.3615L7.90771 19.3963L7.87759 19.4096L7.86804 19.4445L7.83829 19.4562V19.4749L7.80927 19.4878L7.81038 19.5054L7.7696 19.526L7.76079 19.5528L7.75087 19.5499V19.5686L7.7314 19.5638L7.53526 19.7468L7.51543 19.7434L7.50588 19.76L7.42801 19.7993V19.8184L7.41736 19.8158L7.37769 19.836L7.37843 19.8459L7.35896 19.8423V19.8599L7.31892 19.8709V19.8801L7.29982 19.8764L7.28954 19.8926L7.28035 19.8907L7.2697 19.9069L7.0743 20.099L7.05446 20.1041L7.04491 20.1387L7.02618 20.1442V20.1625L7.00524 20.1684L7.00561 20.1864L6.98614 20.1923V20.2103L6.96631 20.2162V20.2334L6.94684 20.2393V20.258L6.91746 20.2705V20.2885L6.89873 20.2948V20.312L6.87889 20.3175V20.3271L6.85942 20.3326V20.3502L6.82049 20.3712V20.3892L6.7518 20.4303V20.4494L6.68201 20.4913L6.67246 20.5163L6.65263 20.5133L6.64382 20.5394L6.6137 20.5431L6.52628 20.5985L6.271 20.852L6.2317 20.9001V20.9185L6.21186 20.9229L6.20305 20.9581L6.18211 20.9636L6.18358 20.9824L6.16301 20.9879L6.14465 21.011V21.0298L6.12481 21.0349L6.10865 21.036L6.08918 21.0411V21.0591L6.06935 21.0654L6.07008 21.0826L6.0407 21.0959L5.99222 21.151V21.1693L5.97165 21.1649L5.96246 21.191L5.93308 21.2035L5.93345 21.2222L5.88349 21.2494L5.6969 21.3875V21.4062L5.6789 21.4206L5.65907 21.4169L5.63887 21.4408L5.5397 21.4863L5.5408 21.5043L5.51105 21.5087L5.45191 21.5333L5.43281 21.5576L5.41298 21.5532L5.38249 21.5668L5.37331 21.5833L5.36963 21.5969L5.36045 21.6134L5.29066 21.6281V21.6461L5.25173 21.6483V21.6575L5.23189 21.6534L5.22271 21.6696L5.20178 21.6663V21.6751L5.18268 21.6711L5.16321 21.6769L4.5634 22.067L4.54393 22.0637L4.51418 22.0946L4.49581 22.0909V22.0997L4.4657 22.1129L4.45541 22.1291L4.43631 22.1262L4.42713 22.142L4.40656 22.1383L4.38709 22.1622L4.36689 22.1581L4.34742 22.1831L4.30812 22.1838L4.28902 22.2077L4.26919 22.2044L4.26 22.2206L4.21923 22.222L4.21042 22.2382L4.17112 22.2411L4.16083 22.2569L4.14063 22.2532L4.12153 22.2683L4.10059 22.2635V22.2731L4.08149 22.2694L4.07194 22.2863L4.03228 22.2878L4.03301 22.2973L4.01244 22.2933V22.3017L3.95294 22.3098L3.95441 22.3194L3.92355 22.3138V22.3219L3.90482 22.3194V22.3274L3.84532 22.3348V22.3443L3.78581 22.3425V22.3517L3.76635 22.3473V22.3576L3.67709 22.359V22.3675L3.65762 22.3634V22.3723L3.61796 22.366V22.3748L3.58857 22.3693V22.3778L3.55845 22.3723V22.3822L3.52907 22.3778V22.3858L3.49013 22.3778L3.32191 22.3936L3.22273 22.3844V22.3936L2.62844 22.3102V22.3003L2.41907 22.2532L2.02238 22.1063L2.02165 22.0975L1.89309 22.0465V22.0373L1.87326 22.034V22.0244L1.84387 22.0193V22.0094L1.78437 21.9895V21.9803L1.76343 21.9767V21.9678L1.73405 21.9616V21.9532L1.69401 21.9363V21.9271L1.67381 21.9238V21.9146L1.64443 21.9098V21.9003L1.60402 21.883V21.8738L1.58419 21.8712L1.58382 21.8621L1.5548 21.8566L1.54378 21.836L1.52542 21.8323V21.8235L1.50448 21.8198V21.8103L1.48501 21.8066V21.7971L1.46481 21.7937L1.44424 21.7721L1.42551 21.768L1.41449 21.7478L1.35462 21.7192L1.34434 21.6979L1.30504 21.6828L1.28483 21.6505L1.26537 21.6476L1.25398 21.6277L1.23525 21.6237L1.23415 21.6149L1.20513 21.6002L1.19484 21.5803L1.17501 21.5759L1.15517 21.5447L1.13534 21.5418L1.12616 21.5219L1.10559 21.5179L1.08612 21.4863L1.06555 21.4834L1.02588 21.4297L1.00605 21.4257L0.954993 21.3622L0.935159 21.3592L0.805133 21.2068L0.725428 21.1278V21.1098L0.654905 21.0419V21.0239L0.614502 20.9893V20.9713L0.574833 20.9357L0.574098 20.9185L0.553896 20.9052V20.8872L0.52341 20.863V20.8446L0.50431 20.8321L0.493658 20.8028L0.483741 20.8009V20.7826L0.463907 20.7693V20.751L0.444072 20.7381V20.7201L0.42387 20.708L0.402934 20.6485L0.382365 20.6367L0.36253 20.5783L0.342328 20.5651L0.332044 20.5265L0.321392 20.5247V20.5071L0.311475 20.5045V20.4865L0.301925 20.4847L0.30119 20.4659L0.291273 20.4645L0.290538 20.4461L0.281356 20.4439V20.4171L0.262256 20.405L0.260787 20.377L0.251237 20.3748L0.240585 20.337L0.231402 20.3348L0.230301 20.308L0.220383 20.3054L0.210099 20.2669L0.200181 20.265L0.188795 20.2092L0.179245 20.207V20.1886L0.169328 20.1864V20.1504L0.15941 20.1482V20.1302L0.149126 20.128V20.092L0.139209 20.0898V20.063L0.129291 20.0601L0.128557 20.0329L0.118272 20.0318L0.107253 19.9657L0.0977034 19.9642L0.0874186 19.8801L0.0775015 19.8779V19.8423L0.0675841 19.84V19.8033L0.056198 19.8019V19.7468L0.0451786 19.7449L0.034527 19.6156L0.0253441 19.6134L0 19.2623L0.010652 19.2641L0.0264462 18.9299L0.0359961 18.9313V18.877L0.0451786 18.8792V18.8245L0.056198 18.8263L0.0639114 18.7458L0.0730938 18.7477L0.0723593 18.7014L0.0833783 18.7036L0.0819092 18.6672L0.0932957 18.6691L0.101009 18.6063L0.111294 18.6085V18.5817L0.121211 18.5835V18.5552L0.130026 18.5571V18.5207L0.139943 18.5222V18.5049L0.14986 18.506L0.169328 18.4274L0.178878 18.4292L0.188795 18.3947L0.197978 18.3969L0.207528 18.3433L0.21818 18.3462L0.236912 18.2944L0.246829 18.297V18.279L0.256012 18.2801L0.265562 18.236L0.285764 18.2302L0.294946 18.1868L0.315148 18.1817L0.314413 18.1637L0.33388 18.1486L0.332778 18.1302L0.343798 18.1324V18.1137L0.353715 18.1159L0.35298 18.0972L0.372447 18.0924L0.392282 18.0399L0.402199 18.0421L0.411015 18.0167L0.430482 18.0116V17.9936L0.449949 17.9881V17.9697L0.480068 17.9561L0.489251 17.9216L0.519002 17.9099V17.8908L0.548019 17.8786L0.547285 17.8595L0.596504 17.8327V17.8151L0.646457 17.7864L0.645723 17.7692L0.685024 17.7486V17.7302L0.74416 17.7053V17.6869L0.812846 17.6443L0.822764 17.6285L0.842231 17.6322L0.862433 17.6182L0.861698 17.5995L0.960503 17.5536V17.5352L1.038 17.5044L1.04866 17.4886L1.06849 17.4915L1.08759 17.4676L1.10706 17.472L1.12763 17.4474L1.14709 17.4511L1.15664 17.4346L1.18566 17.4309V17.4221L1.20513 17.4258L1.21468 17.4092L1.23525 17.4136L1.2448 17.3975L1.2639 17.4008L1.51954 17.2285L1.66573 17.0739L1.67675 17.0757L1.7447 17.0067L1.75498 17.0081V16.9898L1.79282 16.9607L1.82294 16.9574L1.89272 16.8972L2.17665 16.6944V16.6761L2.19538 16.6526L2.21522 16.6386V16.6199L2.22477 16.6203V16.6037L2.24423 16.5975V16.5802L2.26407 16.5652L2.26333 16.5468L2.28354 16.542V16.5229L2.30227 16.5178V16.5005L2.32174 16.4752L2.3423 16.4697L2.39079 16.4157L2.44882 16.3532V16.3352L2.46903 16.3385L2.52045 16.3121L2.52963 16.3136V16.2948L2.56893 16.2754V16.2658L2.5884 16.2603V16.2419L2.64717 16.2078L2.7636 16.0833L2.7827 16.0866L2.84184 16.0333L2.86094 16.0377L2.88077 15.9848L2.89987 15.9889L2.93918 15.9499L2.95864 15.9532L2.96819 15.9374L2.98803 15.9415L3.00896 15.9176L3.09234 15.8599L3.10924 15.8463L3.12136 15.8383L3.20033 15.7545L3.20914 15.7196L3.21906 15.7211L3.22898 15.6957L3.24845 15.6899V15.6719L3.26791 15.6667V15.6487L3.30795 15.6278L3.3164 15.5933L3.33587 15.5878L3.34688 15.5624L3.39537 15.5349V15.5169L3.44422 15.4904V15.4713L3.54192 15.4074L3.55147 15.3821L3.92686 14.996L3.94706 14.9898L3.96653 14.9398L3.98453 14.934L4.0051 14.8822L4.01538 14.8836L4.02456 14.8576L4.04329 14.8528L4.05284 14.8179L4.0826 14.8058L4.09288 14.7716L4.12227 14.7588L4.12153 14.7397L4.15165 14.7272L4.15055 14.7088L4.17112 14.7037V14.6853L4.22034 14.6585L4.21923 14.6397L4.26845 14.6126V14.5953L4.69342 13.9926L4.70702 13.9731L4.72575 13.9683L4.73603 13.933L4.75476 13.9279L4.76431 13.8934L4.78452 13.8875L4.78415 13.8702L4.80435 13.864L4.80362 13.8453L4.82382 13.8405L4.82308 13.8218L4.84329 13.8166V13.7982L4.87193 13.785V13.7674L4.90205 13.7542L4.90132 13.7358L4.95054 13.709L4.95017 13.6906L4.99902 13.6631V13.6454L5.03906 13.6249L5.03832 13.6069L5.05853 13.5911L5.07799 13.5959" fill="#40BEAA"/>
</g>
<g filter="url(#filter4_i_580_2510)">
<path d="M12.5474 13.1694L12.5753 13.0644L12.5955 13.0681L12.6256 12.9443L12.6443 12.9388L12.6543 12.9123L12.6638 12.9153L12.6745 12.8892L12.6932 12.8925L12.7332 12.826L12.7534 12.8308L12.7916 12.7544L12.8122 12.7577L12.8508 12.6725L12.8713 12.6773L12.9103 12.61V12.5825L12.9297 12.5777V12.5498L12.9499 12.5443L12.9591 12.5002L12.969 12.5024L12.9683 12.4837L12.9878 12.4778L12.9988 12.4246L13.0179 12.4275L13.0289 12.3662L13.0473 12.3588L13.0561 12.2883L13.0763 12.2817L13.0858 12.2108L13.1049 12.2049L13.1042 12.159L13.1149 12.1608V12.1237L13.1347 12.1182L13.1431 12.0091L13.163 12.004L13.1619 11.9305L13.1722 11.9316V11.9044L13.1824 11.9067L13.1913 11.8618L13.2015 11.8637L13.2214 11.8578L13.2306 11.8137L13.2603 11.8104L13.2596 11.7832L13.2798 11.7865L13.2897 11.7417L13.3202 11.7388L13.3187 11.7105L13.3393 11.7153L13.3588 11.6532L13.379 11.6573L13.3874 11.6033L13.4083 11.6077L13.4767 11.4545L13.4961 11.4582L13.5053 11.4049L13.5266 11.4082L13.5351 11.3461L13.556 11.3495L13.5641 11.2686L13.5846 11.2716L13.6133 11.1482L13.6236 11.1496L13.6328 11.06L13.653 11.0545L13.6607 10.9274L13.6805 10.9219L13.6801 10.8844L13.6901 10.8863L13.7202 10.8279L13.7396 10.8312L13.769 10.8091L13.8186 10.7078L13.8385 10.7118L13.8774 10.6262L13.898 10.6299L14.1687 9.8615L14.1793 9.8626L14.1859 9.84166V9.84203L14.1951 9.84313V9.8626L14.2061 9.8637L14.2076 9.88243L14.2164 9.88354V9.9019L14.2267 9.90411V9.9221L14.237 9.92504V9.94304L14.2476 9.94414V9.96287L14.2568 9.96398V9.98344L14.2671 9.98491L14.2873 10.0429L14.2965 10.0455L14.479 10.361L14.4794 10.3798L14.5194 10.4139V10.433L14.5488 10.4558V10.4738L14.5789 10.4984V10.5171L14.5999 10.53V10.5484L14.6201 10.5605L14.6304 10.5899L14.6399 10.5913V10.6097L14.6601 10.631V10.6497L14.67 10.6519V10.6703L14.6906 10.6824L14.7005 10.721L14.7104 10.7236L14.7317 10.782L14.7417 10.7842L14.7424 10.8113L14.7516 10.8125L14.7615 10.851L14.7721 10.8529L14.9426 11.0942V11.1125L14.9933 11.1581V11.1765L15.034 11.2113V11.2297L15.0627 11.2529V11.2712L15.0829 11.2844L15.084 11.3024L15.1134 11.3267V11.3447L15.1325 11.3575L15.1442 11.3961L15.163 11.409L15.1846 11.4674L15.2037 11.4795L15.2155 11.518L15.225 11.5199L15.2346 11.5581L15.2456 11.5603V11.5882L15.2563 11.5897L15.2654 11.6279L15.275 11.6293L15.2864 11.6778L15.2967 11.6786L15.4671 11.9199V11.9386L15.5167 11.9842L15.5174 12.0018L15.5468 12.0268V12.0444L15.5769 12.0679V12.087L15.5971 12.0988L15.6085 12.1285L15.6173 12.1311V12.1487L15.6379 12.1608L15.6478 12.2005L15.6673 12.2126L15.6889 12.2707L15.6981 12.2729V12.2905L15.7088 12.2931V12.3111L15.7191 12.3129V12.3316L15.7297 12.3335L15.7495 12.3922L15.7591 12.3937V12.4212L15.769 12.4227V12.4414L15.7786 12.4429L15.7793 12.4705L15.7899 12.4727L15.7907 12.491L15.7999 12.4925V12.5197L15.8101 12.5219L15.8105 12.5491L15.8208 12.5513V12.5781L15.8303 12.5803L15.891 12.6725L15.9409 12.7463L15.9512 12.7485L15.9615 12.7775L15.9916 12.8014V12.8187L16.0118 12.8323V12.8506L16.0412 12.8745V12.8925L16.061 12.9057L16.072 12.9344L16.082 12.9366L16.0933 12.9751L16.1121 12.988V13.0056L16.1323 13.0277V13.0464L16.1422 13.0475V13.067L16.1517 13.0681L16.1525 13.0857L16.173 13.0993V13.1268L16.1837 13.129V13.1463L16.1925 13.1489L16.2032 13.1871L16.2131 13.1889V13.2161L16.2241 13.2179V13.2359L16.234 13.2381L16.2439 13.2855L16.255 13.2874V13.3145L16.2645 13.3167L16.3857 13.5305L16.425 13.5654L16.4265 13.5834L16.4566 13.6076V13.6256L16.4768 13.6378V13.6565L16.5466 13.77L16.5668 13.7832V13.8016L16.5863 13.8233L16.5885 13.8412L16.5969 13.8431L16.5977 13.8615L16.6072 13.8637V13.8813L16.6171 13.8824V13.9015L16.6278 13.9033L16.6487 13.9614L16.6579 13.9636L16.8291 14.2049L16.8489 14.2368L16.8595 14.2379V14.2559L16.8992 14.2908V14.3096L16.9293 14.3327V14.3511L16.9602 14.3757V14.3929L16.9796 14.4062V14.4245L17.0002 14.4367L17.0101 14.4657L17.0189 14.4686L17.0311 14.5061L17.0505 14.52L17.0605 14.5579L17.1108 14.6585H17.1247L17.1229 14.6673L17.0928 14.6802V14.6897L17.0733 14.6861V14.696L17.0542 14.6916L17.0344 14.7162L17.0234 14.7136V14.7327L17.0138 14.7309L17.0039 14.7467L16.983 14.743L16.9738 14.7694L16.9437 14.7918L16.9334 14.79V14.7995L16.9143 14.7955V14.8043L16.8841 14.8172V14.8359L16.8647 14.8422V14.8602L16.8246 14.88L16.7751 14.9175V14.9355L16.7644 14.9347V14.9531L16.7358 14.9656V14.9755L16.7156 14.9707L16.706 14.9883L16.6649 14.9898L16.5653 15.0177L16.5363 15.0401V15.0489L16.515 15.0449L16.5161 15.0548L16.4944 15.0512L16.4753 15.0747L16.4551 15.071L16.4456 15.0871L16.425 15.0846L16.3655 15.1371L16.346 15.1342L16.3156 15.1658L16.2862 15.1694L16.2763 15.1951L16.2461 15.1992V15.2179L16.2168 15.2403L16.2061 15.2377L16.2072 15.2473L16.176 15.251L16.1668 15.2671L16.1363 15.2613L16.1271 15.2778L16.1069 15.2745V15.2844L16.086 15.2807L16.0871 15.2899L16.0463 15.2815V15.291L15.9865 15.2987V15.3083L15.956 15.3028L15.9571 15.3119L15.9365 15.3083L15.927 15.3248L15.8862 15.3274L15.7822 15.3949L15.6419 15.4614L15.4171 15.5724L15.3866 15.5948L15.2669 15.7024L15.2383 15.7244L15.1479 15.7354L15.1273 15.7593L15.0366 15.7707L15.0282 15.7872L14.9874 15.7887L14.9687 15.814L14.9477 15.8093L14.9371 15.8258L14.8974 15.828L14.8783 15.8522L14.8386 15.8724L14.8184 15.8688V15.8879L14.7975 15.8824L14.7791 15.9081L14.7578 15.9029L14.7589 15.9132L14.738 15.9092V15.918L14.7174 15.9242L14.7181 15.9422L14.6983 15.9485L14.699 15.9577L14.6586 15.9591L14.6487 15.9753L14.4441 15.9922L14.3259 15.8464L14.2957 15.8232L14.2858 15.7942L14.2454 15.7578V15.7406L14.2153 15.7174V15.698L14.1852 15.6748V15.6561L14.165 15.6432V15.626L14.1452 15.6124L14.1349 15.5738L14.115 15.5613L14.104 15.522L14.0934 15.5213L14.0842 15.4827L14.0746 15.4805L14.0739 15.4629L14.064 15.4603L14.0478 15.4394L14.039 15.4372L13.9479 15.3119L13.8726 15.2253V15.215L13.8329 15.1812V15.1628L13.7334 15.0622V15.0438L13.7081 15.0122V14.9935L13.6875 14.981V14.9626L13.6669 14.9498V14.9314L13.6471 14.9193V14.9009L13.6269 14.8877V14.8701L13.6071 14.8565V14.8385L13.5968 14.8366L13.5861 14.7984L13.5674 14.7852L13.5567 14.7467L13.5461 14.7459L13.5097 14.6838L13.4998 14.682V14.6537L13.4902 14.6534L13.4803 14.6141L13.4697 14.6126L13.2783 14.3492V14.3309L13.2276 14.2857V14.267L13.1975 14.2431V14.2251L13.1678 14.2016L13.1674 14.1832L13.1483 14.1707V14.1516L13.1277 14.1395L13.1178 14.1101L13.1075 14.1086L13.0869 14.0495L13.0671 14.037L12.8647 13.6811L12.8548 13.651L12.7747 13.5727V13.554L12.7343 13.5199V13.5011L12.6939 13.4666L12.6932 13.4479L12.6745 13.4354L12.6638 13.4064L12.6539 13.4049V13.3858L12.6337 13.3729V13.3553L12.6142 13.3424L12.6135 13.3233L12.594 13.3105L12.5926 13.2925L12.543 13.2201V13.2146L12.5474 13.2161V13.1694Z" fill="#A6C628"/>
</g>
<g filter="url(#filter5_i_580_2510)">
<path d="M14.1859 9.81454V9.82593L14.1768 9.81417L14.1859 9.81454Z" fill="#74C232"/>
</g>
<g filter="url(#filter6_i_580_2510)">
<path d="M14.1874 9.82845L14.1855 9.84277V9.82624L14.1874 9.82845Z" fill="#74C232"/>
</g>
<g filter="url(#filter7_i_580_2510)">
<path d="M14.1758 9.81151L14.1765 9.81445L14.1758 9.81409V9.81151Z" fill="#74C232"/>
</g>
<g filter="url(#filter8_i_580_2510)">
<path d="M12.5427 13.215L12.5369 13.2135L12.5361 13.2095L12.5427 13.2109V13.215Z" fill="#74C232"/>
</g>
<g filter="url(#filter9_i_580_2510)">
<path d="M12.4967 13.1327L12.496 13.1051L12.4861 13.1037V13.0853L12.4758 13.0831V13.0647L12.4567 13.0515V13.0328L12.4049 12.9872V12.9773L12.3741 12.9626V12.9443L12.3539 12.9402L12.3439 12.9108L12.2738 12.8429L12.2731 12.8241L12.2334 12.7893L12.2326 12.7716L12.1919 12.7356V12.7173L12.1618 12.693V12.6747L12.1515 12.6732L12.1408 12.6434L12.11 12.6196L12.0905 12.5612L12.0707 12.5476L12.0696 12.5292L12.0497 12.5072V12.4884L12.0398 12.4859L12.0394 12.4682L12.0292 12.466V12.4477L12.0189 12.4451V12.4275L12.0086 12.426L12.0082 12.4062L11.9987 12.4058L11.9777 12.3459L11.9675 12.3441V12.3169L11.9572 12.3151V12.2978L11.9473 12.2945L11.8352 12.1362V12.1175L11.8154 12.1046V12.0947L11.7959 12.091L11.7845 12.0712L11.7544 12.0473V12.0286L11.7129 11.9937V11.9746L11.6725 11.9404V11.9209L11.6538 11.9085L11.6424 11.8695L11.6229 11.857V11.8379L11.6013 11.8254L11.5814 11.7663L11.5612 11.7546L11.5506 11.7156L11.53 11.7017V11.6737L11.5204 11.6726V11.6535L11.5102 11.6524V11.6341L11.4995 11.6315L11.4988 11.6131L11.4889 11.6106L11.469 11.5525L11.4584 11.5511V11.5235L11.4485 11.5213L11.4492 11.503L11.4385 11.5007L11.285 11.2422V11.2234L11.235 11.1779V11.1592L11.1932 11.1246L11.1833 11.0945L11.1638 11.082L11.1531 11.0427L11.1223 11.0192L11.1013 10.9593L11.0811 10.9472V10.9289L11.0617 10.9061V10.8877L11.051 10.8859V10.8679L11.0415 10.8649V10.8473L11.0305 10.8447V10.8267L11.0209 10.8249L10.9996 10.7661L10.9901 10.7643L10.9801 10.7066L10.9695 10.7048L10.9585 10.685L10.9485 10.6548L10.8879 10.5329L10.8567 10.4822L10.8373 10.4778V10.4683L10.8064 10.4447V10.4253L10.7866 10.4128V10.3948L10.7561 10.3705V10.3522L10.7348 10.3481L10.7249 10.3188L10.7146 10.3173L10.7047 10.2879L10.6841 10.2751L10.6734 10.2365L10.6437 10.2122L10.6228 10.1531L10.6037 10.1402L10.6033 10.1211L10.5823 10.1002V10.0811L10.5721 10.0789V10.0602L10.5625 10.0583V10.0411L10.5526 10.0381L10.5511 10.0198L10.5423 10.0179L10.5412 9.9992L10.532 9.9981L10.5104 9.93933L10.5008 9.93713L10.5001 9.90995L10.4909 9.90701L10.4902 9.8802L10.4795 9.87799V9.85008L10.4692 9.84824V9.82069L10.4593 9.81922V9.79094L10.4486 9.78911V9.76156L10.4391 9.75935L10.438 9.73181L10.4284 9.73034L10.4277 9.69361L10.4185 9.69177L10.4182 9.65467L10.4075 9.65247L10.4064 9.61537L10.3969 9.61427L10.3862 9.50151L10.3763 9.49967L10.3631 9.31308L10.3535 9.31161L10.3605 9.10151L10.3719 9.10261L10.3888 8.9219L10.4854 8.6365L10.4964 8.63834L10.5148 8.58618L10.525 8.58802V8.57075L10.5346 8.57186V8.55312L10.5449 8.55496V8.53696L10.5541 8.53917V8.5208L10.564 8.5219L10.5632 8.50317L10.5838 8.48848L10.5827 8.47011L10.6037 8.46424L10.6228 8.41355L10.6525 8.40069L10.6621 8.36617L10.683 8.35919L10.6918 8.33421L10.7017 8.33494L10.7113 8.30997L10.7315 8.31364L10.7513 8.28058L10.7605 8.28132L10.7612 8.26295L10.8097 8.21777L10.8303 8.22181L10.8295 8.2119L10.8505 8.20639L10.8497 8.18839L10.8799 8.18398L10.8791 8.16635L10.9192 8.15533L10.9695 8.10942L10.989 8.11236L10.9882 8.10391L11.0389 8.08591L11.0374 8.06644L11.0679 8.06351V8.05359L11.098 8.05102L11.1072 8.03302L11.1473 8.03155L11.1678 8.00804L11.227 8.00033L11.2361 7.9838L11.2567 7.98784L11.2769 7.97278L11.2957 7.97682L11.2964 7.9669L11.3162 7.97021V7.96176L11.3364 7.9658L11.3471 7.94964L11.3864 7.94634V7.93789L11.4459 7.93054V7.92062L11.4764 7.92687L12.0758 7.91879L12.3965 7.98747V7.99592L12.5059 8.02567L12.737 8.13329L12.7979 8.1535V8.16305L12.8174 8.16598L12.8181 8.17553L12.9078 8.21998L12.9177 8.24055L12.9386 8.24349L12.9588 8.26626L12.979 8.2703V8.27985L12.9981 8.28279L13.0099 8.30336L13.0297 8.30703V8.31658L13.0499 8.31952L13.0701 8.34229L13.0899 8.34596V8.35515L13.1201 8.3691L13.1303 8.38967L13.1909 8.41942L13.2012 8.43963L13.231 8.45469V8.4635L13.2615 8.47819V8.49656L13.3114 8.53366V8.54321L13.3324 8.54651L13.3819 8.61116L13.4227 8.63724L13.4235 8.65597L13.444 8.65928L13.4536 8.68829L13.5241 8.75735L13.5248 8.77571L13.5557 8.79959V8.81832L13.5858 8.84256V8.86129L13.6053 8.87378L13.6159 8.9039L13.6563 8.93806V8.95753L13.6868 8.98103L13.7085 9.0398L13.7279 9.05303L13.7287 9.07139L13.7485 9.09343L13.7493 9.11253L13.7595 9.114V9.13236L13.7687 9.13457L13.7695 9.15257L13.7794 9.15404V9.17313L13.79 9.17497V9.19297L13.7996 9.19481L13.8297 9.25615L14.0148 9.57533V9.59333L14.0247 9.5959L14.0449 9.62712L14.0751 9.65063V9.66936L14.0956 9.68295L14.096 9.70058L14.1265 9.72519L14.1368 9.76376L14.1661 9.78653L14.1753 9.81114V9.81371L14.1761 9.81408L14.1856 9.82584V9.84236L14.179 9.86293L14.1683 9.86183L13.8973 10.6302L13.8771 10.6266L13.8378 10.7121L13.8183 10.7081L13.7687 10.8095L13.6523 11.0548L13.6324 11.0603L13.6229 11.15L13.613 11.1485L13.5843 11.2719L13.5634 11.269L13.5557 11.3498L13.5347 11.3465L13.5263 11.4086L13.505 11.4052L13.4958 11.4585L13.4763 11.4548L13.4077 11.608L13.3871 11.6036L13.3783 11.6576L13.3584 11.6535L13.339 11.7156L13.3195 11.7395L13.2795 11.7869L13.26 11.8108L13.1627 12.0043L13.134 12.1186L13.1145 12.1241V12.1612L13.1035 12.1593L13.1043 12.2052L13.0855 12.2111L13.076 12.282L13.0554 12.2886L13.047 12.3591L13.0282 12.3669L13.0176 12.4282L12.9981 12.4249L12.9875 12.4781L12.968 12.484L12.9687 12.5028L12.9588 12.5006L12.9493 12.5446L12.9294 12.5501V12.5781L12.91 12.5828V12.6104L12.871 12.6776L12.8505 12.6732L12.8115 12.758L12.7913 12.7547L12.7528 12.8311L12.5952 13.0684L12.5471 13.1698V13.2168L12.5427 13.215V13.2106L12.536 13.2095L12.5059 13.1349L12.4967 13.1327Z" fill="#289394"/>
</g>
<g filter="url(#filter10_i_580_2510)">
<path d="M20.5623 17.1488L20.5707 17.1572L20.5516 17.1543L20.5469 17.1425L20.5623 17.1396V17.1488Z" fill="#74C232"/>
</g>
<g filter="url(#filter11_i_580_2510)">
<path d="M22.4751 14.2251L22.4857 14.2274V14.249L22.4482 14.2024L22.4751 14.2251Z" fill="#74C232"/>
</g>
<g filter="url(#filter12_i_580_2510)">
<path d="M20.5109 17.0992L20.501 17.0606L20.4709 17.0368L20.4592 16.9879L20.4492 16.9868L20.4085 16.9233L20.2762 16.834V16.8149L20.2469 16.8002L20.2369 16.7807L20.216 16.7771L20.1851 16.7341L20.1646 16.7301L20.115 16.6739L20.0941 16.643L20.0739 16.6397L20.0434 16.5868L20.0232 16.5831L19.9717 16.5093L19.9611 16.5078V16.4891L19.9005 16.4311L19.8998 16.4127L19.881 16.3995V16.3815L19.8597 16.3686V16.3492L19.8193 16.3308L19.747 16.1721L19.726 16.1677L19.6437 15.9771L19.6239 15.9631V15.9451L19.6136 15.9422L19.6033 15.8849L19.5934 15.8827L19.592 15.8562L19.5828 15.854L19.5813 15.8261L19.5725 15.8243V15.7967L19.5622 15.7953L19.5611 15.7578L19.5519 15.756L19.5402 15.6983L19.5295 15.6965V15.6785L19.5203 15.6763V15.6388L19.51 15.6377L19.5086 15.5819L19.4994 15.58L19.4987 15.5326L19.4898 15.5308L19.488 15.4573L19.4777 15.4551L19.3308 14.9472L19.3201 14.8524L19.3099 14.8513L19.3095 14.8329L19.2992 14.8303L19.2977 14.7661L19.279 14.7521L19.2775 14.6504L19.257 14.6379L19.2529 14.3495L19.2735 14.3455V14.2427L19.293 14.2463L19.3007 14.1556L19.3106 14.156V14.1203L19.3216 14.1226L19.3209 14.0759L19.34 14.0697V14.0333L19.3609 14.0282L19.3697 13.9642L19.3903 13.969L19.4182 13.8713L19.4392 13.8754L19.4377 13.8482L19.4586 13.8515L19.538 13.7273L19.5582 13.731L19.5875 13.6715L19.6066 13.6759V13.6568L19.6272 13.6601L19.6764 13.5958L19.6959 13.5988V13.5808L19.726 13.5867L19.7561 13.5639L19.7554 13.5463L19.7756 13.5496V13.5316L19.7965 13.5345L19.8156 13.511L19.8366 13.5139L19.8458 13.4974L19.8755 13.4941V13.475L19.9269 13.4482L20.0155 13.4364V13.4181L20.1165 13.4096L20.1154 13.3901L20.2061 13.3799L20.2369 13.3857V13.3766L20.2579 13.3799V13.3699L20.2961 13.3777L20.3064 13.3608L20.4166 13.3721L20.4257 13.3556L20.5176 13.3721L20.5278 13.3556L20.688 13.3857L20.7089 13.3802L20.98 13.4397V13.4577L21.2011 13.5268L21.2026 13.5459L21.2522 13.5547L21.254 13.5731L21.4171 13.6238L21.8105 13.8368L21.8784 13.8746V13.8831L21.9192 13.8911L21.9284 13.9114L21.9692 13.9194V13.9282L21.9996 13.9338V13.9426L22.0305 13.9484V13.958L22.0702 13.9657V13.9753L22.2127 14.0384V14.0564L22.4136 14.1681V14.1857L22.4481 14.2026L22.4859 14.2493V14.2548L22.5062 14.2585L22.5161 14.3069L22.5267 14.3095V14.3459L22.537 14.3481V14.3657L22.5477 14.3679V14.3958L22.5576 14.3977V14.4359L22.5693 14.437V14.4553L22.5785 14.4568V14.5034L22.5987 14.5167L22.6002 14.5817L22.62 14.5956L22.6211 14.6783L22.6413 14.6904L22.6432 14.8483L22.6645 14.9736L22.6553 14.9707V15.0085L22.6454 15.0067L22.6472 15.1639L22.6263 15.1694L22.6274 15.2527L22.6079 15.2579L22.6086 15.3236L22.5877 15.3291L22.5892 15.3751L22.5785 15.3732V15.392L22.5693 15.3905V15.4276L22.5594 15.425V15.4445L22.5499 15.4415L22.5396 15.5047L22.5304 15.5029L22.5212 15.5477L22.5003 15.544V15.5811L22.4808 15.5771L22.4815 15.6142L22.4617 15.6105L22.443 15.6715L22.422 15.6682L22.4029 15.72L22.3725 15.7325V15.7607L22.3335 15.8085L22.3133 15.8048L22.3137 15.8235L22.2938 15.821V15.8386L22.2744 15.8346L22.2039 15.9234L22.1837 15.9201L22.1844 15.9381L22.094 15.9774V15.9954L22.0338 16.0127L22.0353 16.0314L21.8656 16.1571L21.8446 16.153L21.8454 16.1813L21.8255 16.1861L21.8263 16.2048L21.795 16.2184V16.236L21.7657 16.2496V16.2687L21.7267 16.2889L21.7062 16.3128V16.3308L21.686 16.3275L21.6459 16.3664L21.6364 16.3642V16.3826L21.607 16.3958L21.5971 16.4127L21.5776 16.409L21.2577 16.6456L21.2481 16.6437L21.2386 16.6702L21.2187 16.6753V16.6944L21.1996 16.6992V16.7176L21.1802 16.7234V16.7422L21.1497 16.755V16.7734L21.1199 16.7866L21.11 16.8131L21.0696 16.8325L21.0105 16.8773L21.0109 16.8957L20.98 16.8997L20.9201 16.9534L20.9014 16.9493L20.8904 16.967L20.8705 16.9622L20.8408 16.9934L20.8099 16.9978L20.8008 17.0147L20.7813 17.0107L20.7714 17.0272L20.7515 17.0235L20.7412 17.0408L20.7214 17.0368V17.0459L20.6913 17.0492L20.6817 17.0669L20.6619 17.0625L20.6413 17.0867L20.6208 17.0827L20.5712 17.1378V17.1572V17.1569L20.5627 17.1484V17.1392L20.5473 17.1422L20.5209 17.101L20.5109 17.0992Z" fill="#55B94D"/>
</g>
<g filter="url(#filter13_i_580_2510)">
<path d="M14.4421 15.9972L14.4385 15.9935L14.4444 15.9924L14.4466 15.9972H14.4421Z" fill="#74C232"/>
</g>
<g filter="url(#filter14_i_580_2510)">
<path d="M14.6581 15.9594L14.6985 15.9579L14.6978 15.9491L14.7176 15.9429L14.7169 15.9249L14.7375 15.9186V15.9094L14.758 15.9135L14.7573 15.9036L14.7786 15.9083L14.797 15.883L14.8179 15.8881V15.869L14.8381 15.8731L14.8778 15.8525L14.8969 15.8286L14.9365 15.8261L14.9472 15.8095L14.9681 15.8143L14.9869 15.7893L15.0276 15.7875L15.0361 15.771L15.1268 15.7596L15.1474 15.7357L15.2377 15.7247L15.2664 15.7027L15.3861 15.595L15.4162 15.5726L15.5966 15.4687L15.626 15.4746V15.4551L15.7659 15.3886L15.8856 15.328L15.9264 15.3251L15.936 15.3089L15.9565 15.3122L15.9554 15.303L15.9859 15.3089V15.2993L16.0458 15.2916V15.2817L16.0866 15.2902L16.0855 15.281L16.1064 15.285V15.2747L16.1266 15.2784L16.1358 15.2619L16.1663 15.2678L16.1755 15.2512L16.2067 15.2476L16.2056 15.238L16.2162 15.2406L16.2456 15.2182V15.1994L16.2757 15.1954L16.2856 15.1701L16.315 15.166L16.3455 15.1344L16.3646 15.1377L16.4245 15.0848L16.4451 15.0874L16.4546 15.0713L16.4748 15.0749L16.4939 15.0514L16.5156 15.0551L16.5145 15.0455L16.5358 15.0492V15.0404L16.5648 15.018L16.6643 14.9901L16.8237 14.8803L16.8642 14.8604V14.8424L16.8836 14.8362V14.8178L16.9137 14.8046V14.7958L16.9328 14.8002V14.7903L16.9431 14.7921L16.9732 14.7701L16.9824 14.7432L17.0034 14.7473L17.0133 14.7315L17.0228 14.733V14.7139L17.0338 14.7164L17.0533 14.6918L17.0728 14.6962V14.6863L17.0922 14.69V14.6808L17.1224 14.6676L17.1242 14.6588H17.1308L17.133 14.6599V14.6782L17.1734 14.705V14.7238L17.2535 14.7859L17.255 14.8039L17.2752 14.8075V14.8252L17.2954 14.8299V14.8483L17.3159 14.8523V14.8707L17.3361 14.8733L17.3876 14.9574L17.4074 14.9607L17.4291 15.0106L17.4482 15.0151V15.0334L17.4684 15.0371L17.5393 15.1524L17.6825 15.3089V15.328L17.7229 15.3434V15.3622L17.7736 15.3901V15.4081L17.7938 15.4114L17.7953 15.4308L17.8147 15.4349L17.8158 15.4536L17.8654 15.5083L17.8867 15.5124V15.5308L17.9066 15.5348V15.5528L17.9264 15.5568L17.998 15.6714L18.0186 15.6758V15.6942L18.0384 15.6982V15.7258L18.0586 15.7291L18.3238 16.0281V16.0468L18.3433 16.0505L18.3745 16.103L18.3943 16.106L18.3951 16.1254L18.4153 16.1284L18.4461 16.1805L18.466 16.1842V16.2033L18.4862 16.2062L18.5178 16.2767L18.538 16.2808V16.2999L18.5571 16.3032L18.589 16.3733L18.6081 16.3774L18.6092 16.4053L18.6291 16.409L18.6404 16.438L18.6496 16.4406L18.6595 16.4891L18.6812 16.5012V16.5199L18.7021 16.5328V16.561L18.7216 16.5735L18.7323 16.6312L18.7528 16.6437V16.6808L18.7631 16.6834L18.7738 16.7315L18.7925 16.7351L18.8039 16.8306L18.8153 16.8317V16.8501L18.8248 16.8527L18.8256 16.9078L18.8461 16.921L18.8987 17.0962L18.9189 17.1006L18.9387 17.1789L18.9593 17.1818L18.9703 17.249L18.9905 17.2527L19.0026 17.3478L19.0221 17.3511L19.0559 17.6813L19.0456 17.6791L19.047 17.8282L19.0379 17.8253L19.0386 17.8911L19.0283 17.8889L19.0294 17.9439L19.0085 17.9502L19 18.0226L18.9798 18.0189L18.9317 18.1669L18.9108 18.1636L18.8311 18.2973L18.812 18.3021L18.8013 18.3002L18.8021 18.3274L18.7819 18.3245V18.3333L18.7425 18.3542L18.7135 18.377V18.4042L18.6434 18.4277V18.4427L18.6382 18.4413L18.636 18.445H18.6331L18.6158 18.4552L18.6092 18.4545L18.5898 18.4685L18.5703 18.4655V18.474L18.5508 18.4707V18.4798L18.531 18.4765L18.5211 18.4931L18.4612 18.5L18.4516 18.5169L18.4322 18.5133L18.423 18.5291L18.3719 18.5581L18.3433 18.557V18.5764L18.1626 18.5886V18.6073L17.9723 18.5904V18.6L17.9517 18.5959V18.6051L17.821 18.5812L17.4581 18.4769V18.4582L17.3776 18.4343L17.3677 18.4141L17.3468 18.4101V18.4012L17.2968 18.391V18.3814L17.2675 18.377V18.3674L17.1661 18.3491L17.1562 18.3289L17.0449 18.3079L17.0349 18.287L16.9641 18.2734V18.265L16.9251 18.2584L16.9237 18.2481L16.8935 18.2429V18.233L16.8425 18.2242L16.8333 18.2029L16.7822 18.1937V18.1757L16.7429 18.1687L16.7319 18.1478L16.6618 18.1254V18.1063L16.621 18.0997V18.081L16.5791 18.0644L16.5806 18.0549L16.5494 18.0486V18.0398L16.5005 18.0126L16.499 17.9943L16.4682 17.9884V17.97L16.3066 17.8282L16.2867 17.8246V17.8055L16.2353 17.7504L16.2162 17.7471L16.214 17.728L16.1957 17.7247V17.7063L16.0021 17.5502L15.962 17.5234L15.9521 17.5046L15.9316 17.5002L15.9301 17.4914L15.9106 17.4878V17.4775L15.8706 17.4422L15.7376 17.353V17.3342L15.7185 17.3313V17.3122L15.6884 17.307V17.2883L15.6667 17.2843V17.2666L15.5551 17.1436L15.536 17.1399L15.5349 17.1212L15.3417 16.9199V16.9012L15.3016 16.8931V16.8747L15.2711 16.86V16.8501L15.2498 16.8468L15.2396 16.8259L15.2102 16.82L15.1999 16.8002L15.1294 16.7598V16.741L15.1095 16.7366V16.7186L15.0581 16.6903V16.6723L15.0375 16.6683L15.0361 16.6496L14.956 16.5882V16.5702L14.9358 16.5662L14.8855 16.4828L14.8653 16.4791V16.46L14.8447 16.4571L14.8238 16.4071L14.8036 16.4031V16.3847L14.783 16.3803V16.3535L14.7628 16.3396V16.3208L14.7518 16.3194L14.7327 16.2694L14.7117 16.2661V16.2378L14.6915 16.2338L14.6607 16.2007L14.6504 16.1801V16.1721L14.6199 16.1655V16.1464L14.538 16.0953V16.0766L14.4587 16.024L14.4579 16.0057L14.4414 15.9972H14.4458L14.4436 15.9925L14.6482 15.9756L14.6581 15.9594Z" fill="#54A126"/>
</g>
</g>
<defs>
<filter id="filter0_i_580_2510" x="20.5713" y="14.2491" width="7.42871" height="7.45886" filterUnits="userSpaceOnUse" color-interpolation-filters="sRGB">
<feFlood flood-opacity="0" result="BackgroundImageFix"/>
<feBlend mode="normal" in="SourceGraphic" in2="BackgroundImageFix" result="shape"/>
<feColorMatrix in="SourceAlpha" type="matrix" values="0 0 0 0 0 0 0 0 0 0 0 0 0 0 0 0 0 0 127 0" result="hardAlpha"/>
<feOffset/>
<feGaussianBlur stdDeviation="1"/>
<feComposite in2="hardAlpha" operator="arithmetic" k2="-1" k3="1"/>
<feColorMatrix type="matrix" values="0 0 0 0 1 0 0 0 0 1 0 0 0 0 1 0 0 0 0.7 0"/>
<feBlend mode="normal" in2="shape" result="effect1_innerShadow_580_2510"/>
</filter>
<filter id="filter1_i_580_2510" x="12.3711" y="15.9972" width="6.00098" height="3.98413" filterUnits="userSpaceOnUse" color-interpolation-filters="sRGB">
<feFlood flood-opacity="0" result="BackgroundImageFix"/>
<feBlend mode="normal" in="SourceGraphic" in2="BackgroundImageFix" result="shape"/>
<feColorMatrix in="SourceAlpha" type="matrix" values="0 0 0 0 0 0 0 0 0 0 0 0 0 0 0 0 0 0 127 0" result="hardAlpha"/>
<feOffset/>
<feGaussianBlur stdDeviation="1"/>
<feComposite in2="hardAlpha" operator="arithmetic" k2="-1" k3="1"/>
<feColorMatrix type="matrix" values="0 0 0 0 1 0 0 0 0 1 0 0 0 0 1 0 0 0 0.7 0"/>
<feBlend mode="normal" in2="shape" result="effect1_innerShadow_580_2510"/>
</filter>
<filter id="filter2_i_580_2510" x="17.1318" y="13.0453" width="5.31641" height="5.39905" filterUnits="userSpaceOnUse" color-interpolation-filters="sRGB">
<feFlood flood-opacity="0" result="BackgroundImageFix"/>
<feBlend mode="normal" in="SourceGraphic" in2="BackgroundImageFix" result="shape"/>
<feColorMatrix in="SourceAlpha" type="matrix" values="0 0 0 0 0 0 0 0 0 0 0 0 0 0 0 0 0 0 127 0" result="hardAlpha"/>
<feOffset/>
<feGaussianBlur stdDeviation="1"/>
<feComposite in2="hardAlpha" operator="arithmetic" k2="-1" k3="1"/>
<feColorMatrix type="matrix" values="0 0 0 0 1 0 0 0 0 1 0 0 0 0 1 0 0 0 0.7 0"/>
<feBlend mode="normal" in2="shape" result="effect1_innerShadow_580_2510"/>
</filter>
<filter id="filter3_i_580_2510" x="0" y="4.99951" width="14.6895" height="17.394" filterUnits="userSpaceOnUse" color-interpolation-filters="sRGB">
<feFlood flood-opacity="0" result="BackgroundImageFix"/>
<feBlend mode="normal" in="SourceGraphic" in2="BackgroundImageFix" result="shape"/>
<feColorMatrix in="SourceAlpha" type="matrix" values="0 0 0 0 0 0 0 0 0 0 0 0 0 0 0 0 0 0 127 0" result="hardAlpha"/>
<feOffset/>
<feGaussianBlur stdDeviation="1"/>
<feComposite in2="hardAlpha" operator="arithmetic" k2="-1" k3="1"/>
<feColorMatrix type="matrix" values="0 0 0 0 1 0 0 0 0 1 0 0 0 0 1 0 0 0 0.7 0"/>
<feBlend mode="normal" in2="shape" result="effect1_innerShadow_580_2510"/>
</filter>
<filter id="filter4_i_580_2510" x="12.543" y="9.84167" width="4.58203" height="6.15051" filterUnits="userSpaceOnUse" color-interpolation-filters="sRGB">
<feFlood flood-opacity="0" result="BackgroundImageFix"/>
<feBlend mode="normal" in="SourceGraphic" in2="BackgroundImageFix" result="shape"/>
<feColorMatrix in="SourceAlpha" type="matrix" values="0 0 0 0 0 0 0 0 0 0 0 0 0 0 0 0 0 0 127 0" result="hardAlpha"/>
<feOffset/>
<feGaussianBlur stdDeviation="1"/>
<feComposite in2="hardAlpha" operator="arithmetic" k2="-1" k3="1"/>
<feColorMatrix type="matrix" values="0 0 0 0 1 0 0 0 0 1 0 0 0 0 1 0 0 0 0.7 0"/>
<feBlend mode="normal" in2="shape" result="effect1_innerShadow_580_2510"/>
</filter>
<filter id="filter5_i_580_2510" x="14.1768" y="9.81421" width="0.00878906" height="0.0117188" filterUnits="userSpaceOnUse" color-interpolation-filters="sRGB">
<feFlood flood-opacity="0" result="BackgroundImageFix"/>
<feBlend mode="normal" in="SourceGraphic" in2="BackgroundImageFix" result="shape"/>
<feColorMatrix in="SourceAlpha" type="matrix" values="0 0 0 0 0 0 0 0 0 0 0 0 0 0 0 0 0 0 127 0" result="hardAlpha"/>
<feOffset/>
<feGaussianBlur stdDeviation="1"/>
<feComposite in2="hardAlpha" operator="arithmetic" k2="-1" k3="1"/>
<feColorMatrix type="matrix" values="0 0 0 0 1 0 0 0 0 1 0 0 0 0 1 0 0 0 0.7 0"/>
<feBlend mode="normal" in2="shape" result="effect1_innerShadow_580_2510"/>
</filter>
<filter id="filter6_i_580_2510" x="14.1855" y="9.82629" width="0.00195312" height="0.0164795" filterUnits="userSpaceOnUse" color-interpolation-filters="sRGB">
<feFlood flood-opacity="0" result="BackgroundImageFix"/>
<feBlend mode="normal" in="SourceGraphic" in2="BackgroundImageFix" result="shape"/>
<feColorMatrix in="SourceAlpha" type="matrix" values="0 0 0 0 0 0 0 0 0 0 0 0 0 0 0 0 0 0 127 0" result="hardAlpha"/>
<feOffset/>
<feGaussianBlur stdDeviation="1"/>
<feComposite in2="hardAlpha" operator="arithmetic" k2="-1" k3="1"/>
<feColorMatrix type="matrix" values="0 0 0 0 1 0 0 0 0 1 0 0 0 0 1 0 0 0 0.7 0"/>
<feBlend mode="normal" in2="shape" result="effect1_innerShadow_580_2510"/>
</filter>
<filter id="filter7_i_580_2510" x="14.1758" y="9.81152" width="0.000976562" height="0.00292969" filterUnits="userSpaceOnUse" color-interpolation-filters="sRGB">
<feFlood flood-opacity="0" result="BackgroundImageFix"/>
<feBlend mode="normal" in="SourceGraphic" in2="BackgroundImageFix" result="shape"/>
<feColorMatrix in="SourceAlpha" type="matrix" values="0 0 0 0 0 0 0 0 0 0 0 0 0 0 0 0 0 0 127 0" result="hardAlpha"/>
<feOffset/>
<feGaussianBlur stdDeviation="1"/>
<feComposite in2="hardAlpha" operator="arithmetic" k2="-1" k3="1"/>
<feColorMatrix type="matrix" values="0 0 0 0 1 0 0 0 0 1 0 0 0 0 1 0 0 0 0.7 0"/>
<feBlend mode="normal" in2="shape" result="effect1_innerShadow_580_2510"/>
</filter>
<filter id="filter8_i_580_2510" x="12.5361" y="13.2095" width="0.00683594" height="0.00549316" filterUnits="userSpaceOnUse" color-interpolation-filters="sRGB">
<feFlood flood-opacity="0" result="BackgroundImageFix"/>
<feBlend mode="normal" in="SourceGraphic" in2="BackgroundImageFix" result="shape"/>
<feColorMatrix in="SourceAlpha" type="matrix" values="0 0 0 0 0 0 0 0 0 0 0 0 0 0 0 0 0 0 127 0" result="hardAlpha"/>
<feOffset/>
<feGaussianBlur stdDeviation="1"/>
<feComposite in2="hardAlpha" operator="arithmetic" k2="-1" k3="1"/>
<feColorMatrix type="matrix" values="0 0 0 0 1 0 0 0 0 1 0 0 0 0 1 0 0 0 0.7 0"/>
<feBlend mode="normal" in2="shape" result="effect1_innerShadow_580_2510"/>
</filter>
<filter id="filter9_i_580_2510" x="10.3535" y="7.91882" width="3.83203" height="5.29797" filterUnits="userSpaceOnUse" color-interpolation-filters="sRGB">
<feFlood flood-opacity="0" result="BackgroundImageFix"/>
<feBlend mode="normal" in="SourceGraphic" in2="BackgroundImageFix" result="shape"/>
<feColorMatrix in="SourceAlpha" type="matrix" values="0 0 0 0 0 0 0 0 0 0 0 0 0 0 0 0 0 0 127 0" result="hardAlpha"/>
<feOffset/>
<feGaussianBlur stdDeviation="1"/>
<feComposite in2="hardAlpha" operator="arithmetic" k2="-1" k3="1"/>
<feColorMatrix type="matrix" values="0 0 0 0 1 0 0 0 0 1 0 0 0 0 1 0 0 0 0.7 0"/>
<feBlend mode="normal" in2="shape" result="effect1_innerShadow_580_2510"/>
</filter>
<filter id="filter10_i_580_2510" x="20.5469" y="17.1396" width="0.0234375" height="0.0175781" filterUnits="userSpaceOnUse" color-interpolation-filters="sRGB">
<feFlood flood-opacity="0" result="BackgroundImageFix"/>
<feBlend mode="normal" in="SourceGraphic" in2="BackgroundImageFix" result="shape"/>
<feColorMatrix in="SourceAlpha" type="matrix" values="0 0 0 0 0 0 0 0 0 0 0 0 0 0 0 0 0 0 127 0" result="hardAlpha"/>
<feOffset/>
<feGaussianBlur stdDeviation="1"/>
<feComposite in2="hardAlpha" operator="arithmetic" k2="-1" k3="1"/>
<feColorMatrix type="matrix" values="0 0 0 0 1 0 0 0 0 1 0 0 0 0 1 0 0 0 0.7 0"/>
<feBlend mode="normal" in2="shape" result="effect1_innerShadow_580_2510"/>
</filter>
<filter id="filter11_i_580_2510" x="22.4482" y="14.2024" width="0.0371094" height="0.0466309" filterUnits="userSpaceOnUse" color-interpolation-filters="sRGB">
<feFlood flood-opacity="0" result="BackgroundImageFix"/>
<feBlend mode="normal" in="SourceGraphic" in2="BackgroundImageFix" result="shape"/>
<feColorMatrix in="SourceAlpha" type="matrix" values="0 0 0 0 0 0 0 0 0 0 0 0 0 0 0 0 0 0 127 0" result="hardAlpha"/>
<feOffset/>
<feGaussianBlur stdDeviation="1"/>
<feComposite in2="hardAlpha" operator="arithmetic" k2="-1" k3="1"/>
<feColorMatrix type="matrix" values="0 0 0 0 1 0 0 0 0 1 0 0 0 0 1 0 0 0 0.7 0"/>
<feBlend mode="normal" in2="shape" result="effect1_innerShadow_580_2510"/>
</filter>
<filter id="filter12_i_580_2510" x="19.2529" y="13.3556" width="3.41113" height="3.80164" filterUnits="userSpaceOnUse" color-interpolation-filters="sRGB">
<feFlood flood-opacity="0" result="BackgroundImageFix"/>
<feBlend mode="normal" in="SourceGraphic" in2="BackgroundImageFix" result="shape"/>
<feColorMatrix in="SourceAlpha" type="matrix" values="0 0 0 0 0 0 0 0 0 0 0 0 0 0 0 0 0 0 127 0" result="hardAlpha"/>
<feOffset/>
<feGaussianBlur stdDeviation="1"/>
<feComposite in2="hardAlpha" operator="arithmetic" k2="-1" k3="1"/>
<feColorMatrix type="matrix" values="0 0 0 0 1 0 0 0 0 1 0 0 0 0 1 0 0 0 0.7 0"/>
<feBlend mode="normal" in2="shape" result="effect1_innerShadow_580_2510"/>
</filter>
<filter id="filter13_i_580_2510" x="14.4385" y="15.9924" width="0.0078125" height="0.00476074" filterUnits="userSpaceOnUse" color-interpolation-filters="sRGB">
<feFlood flood-opacity="0" result="BackgroundImageFix"/>
<feBlend mode="normal" in="SourceGraphic" in2="BackgroundImageFix" result="shape"/>
<feColorMatrix in="SourceAlpha" type="matrix" values="0 0 0 0 0 0 0 0 0 0 0 0 0 0 0 0 0 0 127 0" result="hardAlpha"/>
<feOffset/>
<feGaussianBlur stdDeviation="1"/>
<feComposite in2="hardAlpha" operator="arithmetic" k2="-1" k3="1"/>
<feColorMatrix type="matrix" values="0 0 0 0 1 0 0 0 0 1 0 0 0 0 1 0 0 0 0.7 0"/>
<feBlend mode="normal" in2="shape" result="effect1_innerShadow_580_2510"/>
</filter>
<filter id="filter14_i_580_2510" x="14.4414" y="14.6588" width="4.61426" height="3.94849" filterUnits="userSpaceOnUse" color-interpolation-filters="sRGB">
<feFlood flood-opacity="0" result="BackgroundImageFix"/>
<feBlend mode="normal" in="SourceGraphic" in2="BackgroundImageFix" result="shape"/>
<feColorMatrix in="SourceAlpha" type="matrix" values="0 0 0 0 0 0 0 0 0 0 0 0 0 0 0 0 0 0 127 0" result="hardAlpha"/>
<feOffset/>
<feGaussianBlur stdDeviation="1"/>
<feComposite in2="hardAlpha" operator="arithmetic" k2="-1" k3="1"/>
<feColorMatrix type="matrix" values="0 0 0 0 1 0 0 0 0 1 0 0 0 0 1 0 0 0 0.7 0"/>
<feBlend mode="normal" in2="shape" result="effect1_innerShadow_580_2510"/>
</filter>
<clipPath id="clip0_580_2510">
<rect width="28" height="28" fill="white"/>
</clipPath>
</defs>
</svg>
