<svg style="filter: drop-shadow(0 0 2px rgba(255, 255, 255, 0.70));" width="28" height="24" viewBox="0 0 28 24" fill="none" xmlns="http://www.w3.org/2000/svg">
<g>
<path d="M9.22433 18.9381C7.11982 18.9381 5.41398 17.2322 5.41398 15.1277C5.41398 14.1297 5.79731 13.2212 6.42598 12.5415C5.7692 11.3365 5.39609 9.95522 5.39609 8.48705C5.39609 8.2596 5.40503 8.03471 5.42292 7.81238C2.25912 8.96366 0 11.9984 0 15.5596C0 20.1098 3.69024 23.8 8.24044 23.8C9.69839 23.8 11.0669 23.4205 12.2552 22.7574V17.4379C11.5588 18.3503 10.4599 18.9393 9.22433 18.9393V18.9381Z" fill="url(#paint0_linear_364_2348)"/>
</g>
<g>
<path d="M9.22473 11.3173C9.65534 11.3173 10.0681 11.3889 10.454 11.5205C10.0259 10.8714 9.77545 10.0945 9.77545 9.25883C9.77545 6.98948 11.6142 5.15075 13.8835 5.15075C15.5395 5.15075 16.9656 6.12953 17.6159 7.54021C18.2293 7.39454 18.8682 7.3166 19.5262 7.3166C20.5165 7.3166 21.4659 7.49165 22.345 7.8111C22.0013 3.44108 18.3443 0 13.8823 0C9.19662 0 5.39648 3.80013 5.39648 8.48705C5.39648 9.95522 5.7696 11.3365 6.42638 12.5415C7.12277 11.7888 8.11817 11.3173 9.22473 11.3173Z" fill="url(#paint1_linear_364_2348)"/>
</g>
<g>
<path d="M19.5236 7.31763C18.8655 7.31763 18.2266 7.39557 17.6133 7.54124C17.8548 8.06385 17.989 8.64652 17.989 9.25986C17.989 10.0955 17.7398 10.8724 17.3105 11.5203C17.6964 11.3887 18.1091 11.3184 18.5397 11.3184C20.6442 11.3184 22.35 13.0242 22.35 15.1287C22.35 17.2332 20.6442 18.9391 18.5397 18.9391C17.3041 18.9391 16.2052 18.3513 15.5088 17.439V22.7571C16.6971 23.4216 18.0656 23.7998 19.5236 23.7998C24.0738 23.7998 27.764 20.1095 27.764 15.5593C27.764 11.0091 24.0738 7.31763 19.5236 7.31763Z" fill="url(#paint2_linear_364_2348)"/>
</g>
<defs>
<linearGradient id="paint0_linear_364_2348" x1="7.36643" y1="23.8869" x2="4.52975" y2="7.79832" gradientUnits="userSpaceOnUse">
<stop offset="0.15" stop-color="#54C3F1"/>
<stop offset="0.3" stop-color="#4EBDED"/>
<stop offset="0.5" stop-color="#3FACE2"/>
<stop offset="0.73" stop-color="#2691D1"/>
<stop offset="0.97" stop-color="#036CB9"/>
<stop offset="1" stop-color="#0068B7"/>
</linearGradient>
<linearGradient id="paint1_linear_364_2348" x1="4.84065" y1="8.46405" x2="20.7964" y2="2.65651" gradientUnits="userSpaceOnUse">
<stop offset="0.15" stop-color="#54C3F1"/>
<stop offset="0.3" stop-color="#4EBDED"/>
<stop offset="0.5" stop-color="#3FACE2"/>
<stop offset="0.73" stop-color="#2691D1"/>
<stop offset="0.97" stop-color="#036CB9"/>
<stop offset="1" stop-color="#0068B7"/>
</linearGradient>
<linearGradient id="paint2_linear_364_2348" x1="23.1896" y1="8.05619" x2="20.3631" y2="24.0911" gradientUnits="userSpaceOnUse">
<stop offset="0.15" stop-color="#54C3F1"/>
<stop offset="0.3" stop-color="#4EBDED"/>
<stop offset="0.5" stop-color="#3FACE2"/>
<stop offset="0.73" stop-color="#2691D1"/>
<stop offset="0.97" stop-color="#036CB9"/>
<stop offset="1" stop-color="#0068B7"/>
</linearGradient>
</defs>
</svg>
