<svg width="28" height="20" viewBox="0 0 28 20" fill="none" xmlns="http://www.w3.org/2000/svg">
<g>
<path d="M7.74607 9.73669C10.8941 11.7609 11.1992 13.5726 10.5226 15.0658C10.2426 15.6893 9.65107 16.2324 9.65107 16.2324C9.65107 16.2324 12.323 14.9436 13.1685 13.0593C14.1139 10.9547 13.0899 8.72608 10.2266 6.79429C7.85452 5.19564 8.84007 3.68339 8.84007 3.68339C8.84007 3.68339 9.62212 1.69112 12.5429 1.69198C15.5294 1.69198 15.7497 3.70024 15.7497 3.70024L16.9163 1.38867C17.0796 1.02444 15.0152 0.000864139 12.0473 0C9.12524 0 6.43042 1.1748 5.38006 3.51532C4.09595 6.37346 5.72572 8.43962 7.74607 9.73669Z" fill="#1277BD"/>
</g>
<g>
<path d="M26.9525 12.9764C27.3625 11.8266 29.7013 6.04683 25.677 6.04596C22.9304 6.04596 19.8225 8.20069 19.8225 8.20069L22.5497 1.85446C22.5497 1.85446 23.3045 0.33314 21.5594 0.332275H18.7475C18.7475 0.332275 19.7909 0.744038 18.8689 2.7981L14.8018 12.0617C14.8018 12.0617 12.4929 17.0706 7.84897 17.0698C1.73692 17.0698 2.21004 10.8588 2.21004 10.8588L0 15.736C0 15.736 1.97585 19.4907 6.80812 19.4915C9.7302 19.4915 11.5838 18.2597 12.4842 17.288C12.4842 17.288 11.6119 19.3187 13.9265 19.3187H16.3028C16.3028 19.3187 15.6336 18.8521 15.6833 18.2606C15.7329 17.6691 16.528 15.8004 17.0659 14.8222C17.6038 13.844 20.2688 9.0981 23.3745 8.79997C26.1743 8.53209 21.9552 17.3264 21.9552 17.3264C21.9552 17.3264 21.1403 19.2301 23.257 19.2863C25.3737 19.3425 25.763 19.3403 25.763 19.3403C25.763 19.3403 24.9667 18.7449 25.3599 17.6604C25.7531 16.5759 26.542 14.127 26.9525 12.9764Z" fill="#1277BD"/>
</g>
<defs>
</defs>
</svg>
