<svg width="28" height="25" viewBox="0 0 28 25" fill="none" xmlns="http://www.w3.org/2000/svg">
<g clip-path="url(#clip0_364_2362)">
<g>
<path d="M25.3316 14.2292C24.0941 17.251 22.0196 18.1058 22.0196 18.1058C28.1218 12.0296 24.3952 5.0285 24.3952 5.0285C23.4945 3.45932 24.6414 2.77626 24.6414 2.77626C22.0209 3.41922 22.84 5.55239 22.84 5.55239C24.1566 8.63434 23.8912 11.1372 23.4447 12.6864L22.581 12.2114L22.5938 12.1913C22.5938 12.1913 24.6401 4.26898 16.2938 1.49034L16.2875 0.00012207H14.5256V9.81748L22.7175 14.4047C22.5682 14.703 22.41 14.9825 22.2455 15.2482L14.0178 10.5657L5.75446 15.2469C5.58988 14.9825 5.43168 14.7017 5.28241 14.4034L13.4731 9.81623V0.00012207H11.7124L11.7048 1.49034C3.35851 4.26898 5.40489 12.1913 5.40489 12.1913L5.41765 12.2114L4.55393 12.6864C4.10613 11.1372 3.84076 8.63434 5.15866 5.55239C5.15866 5.55239 5.97773 3.41922 3.35595 2.77626C3.35595 2.77626 4.5029 3.45932 3.60218 5.0285C3.60218 5.0285 -0.12443 12.0296 5.97773 18.1058C5.97773 18.1058 3.90327 17.251 2.66575 14.2292C2.66575 14.2292 1.96406 12.7553 -0.00195312 13.0762C-0.00195312 13.0762 0.739287 13.4058 1.17561 14.7418C1.17561 14.7418 2.9477 20.2778 9.78727 21.1226V24.1807H13.1465V19.6737C13.1465 19.6737 9.58314 19.6461 6.86313 16.7058L7.70643 16.222C7.86463 16.3687 10.4507 18.7199 13.9783 18.7813C13.9847 18.7813 13.991 18.7813 13.9987 18.7813C14.0051 18.7813 14.0127 18.7813 14.0191 18.7813C17.5467 18.7187 20.1327 16.3674 20.2909 16.2208L21.1355 16.7046C18.4155 19.6449 14.8522 19.6724 14.8522 19.6724V24.1794H18.2114V21.1213C25.0509 20.2766 26.8218 14.7406 26.8218 14.7406C27.2568 13.4045 27.9993 13.0749 27.9993 13.0749C26.0333 12.7528 25.3316 14.228 25.3316 14.228V14.2292ZM20.9556 11.3064L20.9492 11.314L16.327 8.77095L16.3015 3.339H16.327C16.327 3.339 21.8972 4.82796 20.9556 11.3052V11.3064ZM11.6716 3.339H11.6971L11.6716 8.77095L7.0494 11.314L7.04302 11.3064C6.10148 4.82796 11.6716 3.34026 11.6716 3.34026V3.339ZM14.0127 12.6174L18.6209 15.2645V15.272L18.5801 15.2494C16.9317 16.5278 15.36 16.9502 14 16.9515C12.64 16.9515 11.0682 16.5278 9.41984 15.2494L9.37901 15.272V15.2645L14.014 12.6174H14.0127Z" fill="#0056A7"/>
</g>
</g>
<defs>
<clipPath id="clip0_364_2362">
<rect width="28" height="24.1818" fill="white"/>
</clipPath>
</defs>
</svg>
