<svg width="26" height="26" viewBox="0 0 26 26" fill="none" xmlns="http://www.w3.org/2000/svg">
<g filter="url(#filter0_i_364_2127)">
<path d="M25.2 12.6C25.2 15.0912 24.4615 17.5266 23.0778 19.5982C21.6942 21.6699 19.7275 23.2848 17.4262 24.2391C15.125 25.1933 12.5925 25.4439 10.1489 24.9593C7.70528 24.4747 5.46015 23.2765 3.69724 21.5163C1.93434 19.7561 0.732798 17.5128 0.244459 15.0699C-0.243879 12.627 0.00289139 10.0942 0.953613 7.79151C1.90433 5.48883 3.51632 3.51964 5.58585 2.13283C7.65538 0.746024 10.0896 0.00380933 12.5808 1.46189e-05C14.2371 -0.00250826 15.8776 0.321536 17.4085 0.953616C18.9394 1.5857 20.3307 2.51342 21.5027 3.68369C22.6748 4.85396 23.6046 6.2438 24.239 7.77376C24.8734 9.30371 25.2 10.9437 25.2 12.6Z" fill="#FAFAFA"/>
<path d="M12.5812 24.6146C14.9579 24.6165 17.2817 23.9135 19.2588 22.5945C21.2358 21.2754 22.7773 19.3997 23.6881 17.2044C24.5989 15.0092 24.8382 12.5932 24.3757 10.2619C23.9132 7.93071 22.7697 5.78903 21.0898 4.10779C19.4099 2.42656 17.2691 1.28132 14.9383 0.816958C12.6074 0.352593 10.1912 0.589947 7.99524 1.49902C5.7993 2.4081 3.9223 3.94803 2.60169 5.92403C1.28108 7.90003 0.576176 10.2233 0.576176 12.6C0.574915 14.1773 0.88451 15.7394 1.48725 17.1971C2.09 18.6547 2.97407 19.9793 4.08897 21.0951C5.20386 22.2108 6.52773 23.096 7.98487 23.6999C9.44201 24.3038 11.0039 24.6146 12.5812 24.6146Z" fill="#0083CA"/>
<mask id="mask0_364_2127" style="mask-type:luminance" maskUnits="userSpaceOnUse" x="0" y="0" width="25" height="25">
<path d="M12.5812 24.6146C14.9556 24.6146 17.2766 23.9106 19.2508 22.5914C21.2251 21.2723 22.7638 19.3974 23.6724 17.2037C24.581 15.0101 24.8188 12.5963 24.3556 10.2676C23.8923 7.93883 22.749 5.79973 21.07 4.1208C19.3911 2.44187 17.252 1.29851 14.9233 0.835295C12.5945 0.372078 10.1807 0.609811 7.98707 1.51844C5.79344 2.42707 3.91853 3.96578 2.5994 5.94C1.28028 7.91421 0.576172 10.2353 0.576172 12.6096C0.578713 15.7928 1.84434 18.8448 4.09517 21.0957C6.346 23.3465 9.39805 24.6121 12.5812 24.6146Z" fill="white"/>
</mask>
<g mask="url(#mask0_364_2127)">
<path d="M12.7151 18.3962C18.0027 18.3962 22.513 19.874 24.4611 21.9564C25.1084 20.4201 25.435 18.7677 25.4207 17.1007C25.3296 13.7826 23.9475 10.6309 21.5684 8.31624C19.1893 6.00152 16.0009 4.70642 12.6815 4.70642C9.3622 4.70642 6.17383 6.00152 3.79471 8.31624C1.41559 10.6309 0.0334608 13.7826 -0.0576172 17.1007C-0.0499759 18.7518 0.292838 20.3842 0.950016 21.8989C2.92686 19.874 7.44675 18.3962 12.7151 18.3962Z" fill="#0083CA"/>
<path d="M12.7148 18.4058C17.9832 18.4058 22.4839 19.8741 24.432 21.9373C25.0734 20.4194 25.3999 18.787 25.3916 17.1391C25.3916 13.7694 24.053 10.5377 21.6702 8.15493C19.2875 5.77217 16.0557 4.43353 12.686 4.43353C9.31629 4.43353 6.08459 5.77217 3.70183 8.15493C1.31908 10.5377 -0.0195312 13.7694 -0.0195312 17.1391C-0.0181351 18.7909 0.324942 20.4245 0.988102 21.9373C2.98414 19.8741 7.45604 18.4058 12.7148 18.4058Z" fill="#0085CB"/>
<path d="M12.715 18.425C17.9642 18.425 22.4648 19.874 24.3937 21.9276C25.0433 20.4123 25.3702 18.7782 25.3533 17.1295C25.2625 13.829 23.8876 10.6943 21.521 8.39194C19.1545 6.08963 15.9831 4.80145 12.6814 4.80145C9.37969 4.80145 6.20825 6.08963 3.8417 8.39194C1.47516 10.6943 0.100239 13.829 0.00940621 17.1295C-0.00740513 18.7782 0.319415 20.4123 0.96904 21.9276C2.98427 19.874 7.46578 18.425 12.715 18.425Z" fill="#0086CD"/>
<path d="M12.7155 18.4346C17.9551 18.4346 22.4366 19.8741 24.3654 21.9085C25.008 20.4111 25.3347 18.7973 25.3251 17.1679C25.1977 13.9012 23.8105 10.8107 21.4542 8.54451C19.098 6.27833 15.9558 5.01251 12.6867 5.01251C9.4175 5.01251 6.27534 6.27833 3.91911 8.54451C1.56287 10.8107 0.175621 13.9012 0.0482966 17.1679C0.0340716 18.7946 0.360978 20.4063 1.00793 21.8989C2.98478 19.8741 7.48547 18.4346 12.7155 18.4346Z" fill="#0088CE"/>
<path d="M12.715 18.4538C17.9354 18.4538 22.4073 19.874 24.3361 21.8989C24.9778 20.4147 25.3046 18.8136 25.2958 17.1967C25.1686 13.9375 23.7845 10.8542 21.4336 8.59329C19.0828 6.33239 15.9478 5.06952 12.6862 5.06952C9.42455 5.06952 6.28962 6.33239 3.93877 8.59329C1.58792 10.8542 0.203773 13.9375 0.0765974 17.1967C0.0626937 18.8141 0.389671 20.4163 1.03623 21.8989C2.98429 19.874 7.49458 18.4538 12.715 18.4538Z" fill="#008ACF"/>
<path d="M12.7059 18.4634C17.9263 18.4634 22.379 19.874 24.2982 21.8797C24.945 20.4107 25.2721 18.8209 25.2579 17.2158C25.2579 10.604 19.6248 5.16284 12.6771 5.16284C5.72932 5.16284 0.105854 10.604 0.105854 17.2254C0.0926407 18.8273 0.419733 20.4137 1.06549 21.8797C3.04233 19.874 7.50464 18.4634 12.7059 18.4634Z" fill="#008CD0"/>
<path d="M12.7054 18.473C17.9066 18.473 22.3593 19.8836 24.269 21.8605C24.9102 20.4066 25.2372 18.8337 25.2286 17.2446C25.2286 10.6807 19.6051 5.26843 12.6766 5.26843C5.74803 5.26843 0.143769 10.6903 0.143769 17.2446C0.133952 18.8338 0.461014 20.4069 1.1034 21.8605C3.06106 19.8836 7.51376 18.473 12.7054 18.473Z" fill="#008ED2"/>
<path d="M12.7057 18.4921C17.8974 18.4921 22.3021 19.8836 24.2214 21.8509C24.8637 20.4075 25.1908 18.8437 25.181 17.2638C25.181 10.7575 19.5767 5.38354 12.7057 5.38354C5.83477 5.38354 0.230507 10.7671 0.230507 17.2734C0.226381 18.8496 0.553314 20.4091 1.19014 21.8509C3.09022 19.8836 7.53332 18.4921 12.7057 18.4921Z" fill="#008FD3"/>
<path d="M12.7058 18.5018C17.8782 18.5018 22.3021 19.8836 24.2214 21.8317C24.8635 20.4052 25.1908 18.857 25.181 17.2927C25.181 10.8439 19.5863 5.48914 12.7058 5.48914C5.82517 5.48914 0.230509 10.8439 0.230509 17.2927C0.226312 18.8565 0.553366 20.4034 1.19014 21.8317C3.10941 19.8836 7.54292 18.5018 12.7058 18.5018Z" fill="#0091D4"/>
<path d="M12.7059 18.5209C17.8591 18.5209 22.3022 19.8836 24.1735 21.8221C24.8148 20.4054 25.1421 18.8668 25.1331 17.3118C25.1331 10.9206 19.5577 5.59467 12.6579 5.59467C5.75813 5.59467 0.182657 10.9206 0.182657 17.3118C0.178449 18.8663 0.505593 20.4039 1.14229 21.8221C3.13833 19.8836 7.55266 18.5209 12.7059 18.5209Z" fill="#0093D5"/>
<path d="M12.7054 18.5306C17.8491 18.5306 22.2538 19.8836 24.1443 21.8029C24.7808 20.4016 25.1081 18.8797 25.1039 17.3406C25.1039 10.9974 19.538 5.70026 12.6862 5.70026C5.83444 5.70026 0.268594 11.007 0.268594 17.3406C0.264408 18.8797 0.591705 20.4016 1.22823 21.8029C3.15709 19.8836 7.5618 18.5306 12.7054 18.5306Z" fill="#0095D7"/>
<path d="M12.6956 18.5401C17.8296 18.5401 22.2247 19.8836 24.1056 21.7837C24.7467 20.3975 25.0743 18.887 25.0652 17.3598C25.0652 11.0742 19.5186 5.84418 12.6764 5.84418C5.83418 5.84418 0.306673 11.1222 0.306673 17.3598C0.302877 18.8865 0.630283 20.3958 1.26631 21.7837C3.18558 19.8836 7.5807 18.5401 12.6956 18.5401Z" fill="#0097D8"/>
<path d="M12.6962 18.5593C17.8207 18.5593 22.1966 19.8836 24.0775 21.7741C24.713 20.3997 25.0406 18.9029 25.0371 17.3886C25.0371 11.1606 19.5096 5.87299 12.6866 5.87299C5.86361 5.87299 0.34573 11.1222 0.34573 17.3886C0.342289 18.9029 0.669807 20.3997 1.30536 21.7741C3.20544 19.8836 7.59096 18.5593 12.6962 18.5593Z" fill="#0099D9"/>
<path d="M12.6958 18.569C17.801 18.569 22.1674 19.8933 24.0483 21.755C24.6846 20.3943 25.0123 18.9099 25.0079 17.4078C25.0079 11.2374 19.49 6.01697 12.6862 6.01697C5.88235 6.01697 0.374067 11.2374 0.374067 17.4078C0.36968 18.9099 0.697376 20.3943 1.3337 21.755C3.23378 19.8933 7.60011 18.569 12.6958 18.569Z" fill="#009BDA"/>
<path d="M12.6962 18.5881C17.7823 18.5881 22.1486 19.8932 24.0103 21.7453C24.6455 20.3945 24.9733 18.9197 24.97 17.427C24.97 11.3141 19.4712 6.1225 12.6866 6.1225C5.90202 6.1225 0.403331 11.3141 0.403331 17.4366C0.40112 18.9261 0.728847 20.3976 1.36297 21.7453C3.25344 19.8932 7.61018 18.5881 12.6962 18.5881Z" fill="#009DDC"/>
<path d="M12.6959 18.5978C17.7724 18.5978 22.1195 19.8933 23.9812 21.7262C24.6162 20.3923 24.9441 18.9331 24.9409 17.4558C24.9409 11.3909 19.4517 6.22809 12.6863 6.22809C5.9209 6.22809 0.441406 11.4005 0.441406 17.4558C0.442321 18.9326 0.770034 20.3909 1.40104 21.7262C3.28192 19.8933 7.62905 18.5978 12.6959 18.5978Z" fill="#009FDD"/>
<path d="M12.6956 18.6073C17.7529 18.6073 22.0904 19.8932 23.9521 21.7069C24.5884 20.3872 24.9165 18.9401 24.9118 17.475C24.9118 11.4773 19.4418 6.33362 12.6956 6.33362C5.94939 6.33362 0.479492 11.4773 0.479492 17.475C0.479361 18.9396 0.807264 20.3856 1.43913 21.7069C3.30082 19.8932 7.63834 18.6073 12.6956 18.6073Z" fill="#00A1DE"/>
<path d="M12.6864 18.6265C17.7436 18.6265 22.062 19.8933 23.9141 21.6974C24.5472 20.3902 24.8753 18.9563 24.8737 17.5038C24.8737 11.5541 19.4134 6.44879 12.6768 6.44879C5.94015 6.44879 0.499023 11.5541 0.499023 17.5038C0.501046 18.9559 0.828985 20.3889 1.45866 21.6974C3.32035 19.8933 7.64828 18.6265 12.6864 18.6265Z" fill="#00A3DF"/>
<path d="M12.6861 18.6361C17.7241 18.6361 22.0329 19.8932 23.885 21.6781C24.5198 20.3852 24.8482 18.9633 24.8446 17.5229C24.8446 11.6308 19.4035 6.55432 12.6861 6.55432C5.96861 6.55432 0.537109 11.6308 0.537109 17.5229C0.538302 18.9628 0.86643 20.3836 1.49674 21.6781C3.34884 19.8932 7.66716 18.6361 12.6861 18.6361Z" fill="#00A5E1"/>
<path d="M12.6866 18.6553C17.7054 18.6553 22.0142 19.8933 23.8567 21.6686C24.4861 20.3874 24.8144 18.9792 24.8163 17.5518C24.8163 11.7076 19.3848 6.65991 12.6866 6.65991C5.98831 6.65991 0.566406 11.7172 0.566406 17.5518C0.568382 18.9792 0.896619 20.3874 1.52604 21.6686C3.36854 19.8933 7.67727 18.6553 12.6866 18.6553Z" fill="#00A7E2"/>
<path d="M12.6864 18.6649C17.6957 18.6649 21.9853 19.9028 23.8278 21.6493C24.457 20.3817 24.7854 18.9861 24.7874 17.5709C24.7874 11.8131 19.3751 6.76544 12.696 6.76544C6.01699 6.76544 0.614258 11.7939 0.614258 17.5709C0.616297 18.9861 0.944685 20.3817 1.57389 21.6493C3.3972 19.9508 7.68675 18.6649 12.6864 18.6649Z" fill="#00A9E3"/>
<path d="M12.686 18.6745C17.6761 18.6745 21.956 19.9029 23.7889 21.6302C24.4182 20.3797 24.7468 18.9996 24.7486 17.5997C24.7486 11.8419 19.3554 6.87103 12.6956 6.87103C6.03572 6.87103 0.642578 11.8707 0.642578 17.5997C0.644356 18.9996 0.972957 20.3797 1.60221 21.6302C3.41592 19.9508 7.69588 18.6745 12.686 18.6745Z" fill="#00ABE5"/>
<path d="M12.6865 18.6937C17.667 18.6937 21.9278 19.9028 23.7607 21.6206C24.3896 20.3803 24.7183 19.0095 24.7203 17.6189C24.7203 11.9475 19.3368 6.97656 12.6961 6.97656C6.05542 6.97656 0.671875 11.9475 0.671875 17.6189C0.673877 19.0095 1.00259 20.3803 1.63151 21.6206C3.44522 19.9508 7.71558 18.6937 12.6865 18.6937Z" fill="#00ADE6"/>
<path d="M12.6766 18.7033C17.6475 18.7033 21.9083 19.9028 23.7316 21.5822C24.3563 20.3541 24.685 18.9968 24.6912 17.6189C24.6912 12.005 19.3269 7.06293 12.6958 7.06293C6.06471 7.06293 0.709961 12.0146 0.709961 17.6189C0.716534 18.9967 1.04516 20.354 1.66959 21.5822C3.46411 19.9508 7.72489 18.7033 12.6766 18.7033Z" fill="#00AFE7"/>
<path d="M12.6769 18.7225C17.6383 18.7225 21.8798 19.9029 23.6935 21.6014C24.3219 20.3919 24.651 19.0492 24.6532 17.6861C24.6532 12.1298 19.2984 7.20691 12.6865 7.20691C6.07465 7.20691 0.729492 12.1298 0.729492 17.6861C0.736049 19.0487 1.06488 20.3903 1.68913 21.6014C3.49324 19.9508 7.78281 18.7225 12.6769 18.7225Z" fill="#00B2E9"/>
<path d="M12.6768 18.7321C17.6189 18.7321 21.8509 19.9029 23.6646 21.611C24.2889 20.4102 24.6179 19.0779 24.6242 17.7245C24.6242 12.2258 19.2887 7.33167 12.696 7.33167C6.1033 7.33167 0.777344 12.2258 0.777344 17.7245C0.783698 19.0779 1.11267 20.4102 1.73698 21.611C3.5123 19.9509 7.78267 18.7321 12.6768 18.7321Z" fill="#00B4EA"/>
<path d="M12.6763 18.7417C17.5993 18.7417 21.8216 19.9028 23.6353 21.5534C24.2582 20.3693 24.5873 19.0528 24.595 17.7149C24.595 12.2641 19.269 7.3988 12.6955 7.3988C6.12202 7.3988 0.805664 12.2641 0.805664 17.7149C0.813348 19.0528 1.14247 20.3693 1.7653 21.5534C3.54062 19.9508 7.7822 18.7417 12.6763 18.7417Z" fill="#00B6EB"/>
<path d="M12.6768 18.7609C17.5902 18.7609 21.7934 19.9124 23.5975 21.5438C24.2294 20.3632 24.5591 19.0444 24.5571 17.7053C24.5571 12.3121 19.2407 7.48517 12.696 7.48517C6.15132 7.48517 0.834961 12.2833 0.834961 17.7053C0.837694 19.0438 1.1671 20.3615 1.7946 21.5438C3.56032 19.9508 7.78271 18.7609 12.6768 18.7609Z" fill="#00B8ED"/>
<path d="M12.6668 18.7704C17.5705 18.7704 21.7737 19.9124 23.5682 21.5246C24.1909 20.368 24.5204 19.0764 24.5279 17.7628C24.5279 12.4273 19.2211 7.61951 12.686 7.61951C6.15084 7.61951 0.863281 12.4177 0.863281 17.7628C0.870754 19.0764 1.20026 20.368 1.82292 21.5246C3.57905 19.9508 7.78223 18.7704 12.6668 18.7704Z" fill="#01BBEE"/>
<path d="M12.6676 18.7897C17.5618 18.7897 21.7458 19.9124 23.5403 21.5054C24.1628 20.3626 24.4925 19.0834 24.4999 17.782C24.4999 12.5041 19.2123 7.7251 12.6964 7.7251C6.1805 7.7251 0.912109 12.5232 0.912109 17.782C0.919572 19.0834 1.24927 20.3626 1.87174 21.5054C3.60868 19.9508 7.78309 18.7897 12.6676 18.7897Z" fill="#11BDF0"/>
<path d="M12.6672 18.7992C17.5421 18.7992 21.7165 19.9124 23.5014 21.4958C24.1226 20.3663 24.4525 19.0998 24.4611 17.8108C24.4611 12.5808 19.1927 7.83063 12.6959 7.83063C6.19922 7.83063 0.94043 12.5808 0.94043 17.8012C0.94784 19.0934 1.27769 20.3633 1.90006 21.4958C3.6274 19.9508 7.78262 18.7992 12.6672 18.7992Z" fill="#1AC0F1"/>
<path d="M12.6677 18.8089C17.5234 18.8089 21.6882 19.9124 23.4732 21.4766C24.0943 20.361 24.4243 19.1069 24.4328 17.83C24.4328 12.6576 19.174 7.93622 12.6965 7.93622C6.21893 7.93622 0.969727 12.6576 0.969727 17.83C0.976962 19.1071 1.30708 20.3615 1.92936 21.4766C3.6567 19.9508 7.78313 18.8089 12.6677 18.8089Z" fill="#1FC4F4"/>
<path d="M12.667 18.8473C17.5228 18.8473 21.678 19.9412 23.4533 21.4958C24.0744 20.3871 24.4045 19.1392 24.4129 17.8684C24.4129 12.7344 19.1637 8.03217 12.6958 8.03217C6.22787 8.03217 0.988281 12.7344 0.988281 17.8684C1.0032 19.1383 1.33293 20.3847 1.94792 21.4958C3.66566 19.9508 7.78247 18.8473 12.667 18.8473Z" fill="#32C5F4"/>
<path d="M12.6672 18.876C17.5133 18.876 21.6686 19.9604 23.4439 21.5054C24.0603 20.4053 24.3903 19.1678 24.4035 17.9068C24.4035 12.8015 19.1639 8.12811 12.696 8.12811C6.22805 8.12811 0.998047 12.8015 0.998047 17.9068C1.01127 19.1678 1.34126 20.4053 1.95768 21.5054C3.67543 19.9508 7.83064 18.876 12.6672 18.876Z" fill="#3FC7F4"/>
<path d="M12.6675 18.9048C17.4657 18.9048 21.6593 19.9796 23.425 21.515C24.0453 20.4269 24.3758 19.1977 24.3846 17.9452C24.3846 12.8687 19.1546 8.2337 12.6963 8.2337C6.23797 8.2337 1.01758 12.8687 1.01758 17.9452C1.03067 19.1971 1.36083 20.4253 1.97721 21.515C3.69496 19.9508 7.84056 18.9048 12.6675 18.9048Z" fill="#4AC8F5"/>
<path d="M12.6671 18.9336C17.4652 18.9336 21.6396 20.0084 23.415 21.5342C24.0302 20.4509 24.3604 19.2293 24.3746 17.9836C24.3746 12.9455 19.1542 8.32965 12.7054 8.32965C6.25671 8.32965 1.0459 12.9455 1.0459 17.974C1.05894 19.2228 1.38915 20.4479 2.00553 21.5342C3.70408 20.0084 7.84969 18.9336 12.6671 18.9336Z" fill="#54CAF5"/>
<path d="M12.6674 18.9912C17.4656 18.9912 21.6304 20.0564 23.3961 21.5726C24.0165 20.4985 24.3472 19.2816 24.3557 18.0412C24.3557 13.0415 19.1353 8.44482 12.6962 8.44482C6.25704 8.44482 1.06543 13.0127 1.06543 18.0316C1.08291 19.2707 1.41299 20.4854 2.02506 21.563C3.71402 20.0276 7.85004 18.9912 12.6674 18.9912Z" fill="#5CCCF5"/>
<path d="M12.6674 18.9912C17.4656 18.9912 21.6208 20.0564 23.3865 21.563C24.0013 20.4935 24.3317 19.2843 24.3462 18.0508C24.3462 13.0799 19.1353 8.52161 12.7058 8.52161C6.27625 8.52161 1.06543 13.0799 1.06543 18.0316C1.07985 19.2651 1.41024 20.4744 2.02506 21.5438C3.72362 20.0564 7.85963 18.9912 12.6674 18.9912Z" fill="#64CDF6"/>
<path d="M12.6669 18.9912C17.4651 18.9912 21.6107 20.0372 23.3668 21.5342C23.9817 20.4752 24.3123 19.2752 24.3265 18.0507C24.3265 13.1182 19.1253 8.57916 12.7053 8.57916C6.28538 8.57916 1.09375 13.1182 1.09375 18.0507C1.0963 19.2706 1.4101 20.4695 2.00541 21.5342C3.73275 20.0756 7.86876 18.9912 12.6669 18.9912Z" fill="#6CCFF6"/>
<path d="M12.6674 19.0584C17.4656 19.0584 21.592 20.1044 23.3577 21.5822C23.9723 20.5336 24.303 19.3429 24.3174 18.1275C24.3174 13.2238 19.1161 8.72308 12.7058 8.72308C6.29544 8.72308 1.06543 13.2334 1.06543 18.1275C1.07843 19.3431 1.40927 20.5341 2.02506 21.5822C3.7524 20.1044 7.86923 19.0584 12.6674 19.0584Z" fill="#73D1F6"/>
<path d="M12.6674 19.0871C17.4656 19.0871 21.5824 20.1235 23.3385 21.6014C23.9528 20.5596 24.2836 19.3752 24.2982 18.1659C24.2982 13.2909 19.1066 8.81903 12.7058 8.81903C6.30504 8.81903 1.06543 13.2909 1.06543 18.1659C1.07999 19.3752 1.41084 20.5596 2.02506 21.6014C3.762 20.1235 7.87883 19.0871 12.6674 19.0871Z" fill="#7AD2F7"/>
<path d="M12.667 19.116C17.4651 19.116 21.5724 20.1524 23.3285 21.611C23.922 20.5734 24.2361 19.3996 24.2402 18.2043C24.2402 13.4061 19.0581 8.91504 12.667 8.91504C6.27581 8.91504 1.15137 13.3677 1.15137 18.2043C1.15546 19.3996 1.46958 20.5734 2.06303 21.611C3.77118 20.1524 7.888 19.116 12.667 19.116Z" fill="#81D4F7"/>
<path d="M12.6676 19.1447C17.4658 19.1447 21.5634 20.1715 23.31 21.6206C23.9237 20.5996 24.2549 19.4338 24.2696 18.2427C24.2696 13.4445 19.0876 9.01099 12.706 9.01099C6.32447 9.01099 1.19043 13.4349 1.19043 18.2331C1.20496 19.4303 1.53604 20.6023 2.15006 21.6302C3.78144 20.1715 7.88867 19.1447 12.6676 19.1447Z" fill="#88D6F8"/>
<path d="M12.6675 19.1832C17.4657 19.1832 21.5441 20.2004 23.3002 21.6398C23.8934 20.6161 24.2078 19.4547 24.2119 18.2715C24.2119 13.4733 19.0395 9.10699 12.6963 9.10699C6.35309 9.10699 1.18066 13.5021 1.18066 18.2715C1.18478 19.4547 1.49914 20.6161 2.09233 21.6398C3.80048 20.2004 7.8981 19.1832 12.6675 19.1832Z" fill="#8ED8F8"/>
<path d="M12.667 19.2119C17.4652 19.2119 21.534 20.1715 23.2806 21.6494C23.8903 20.6407 24.2215 19.4883 24.2402 18.3099C24.2402 13.5789 19.0774 9.21252 12.7246 9.21252C6.37182 9.21252 1.20898 13.5789 1.20898 18.3099C1.22307 19.489 1.55456 20.6426 2.16862 21.6494C3.80959 20.2195 7.90723 19.2119 12.667 19.2119Z" fill="#94DAF8"/>
<path d="M12.667 19.2407C17.4651 19.2407 21.5244 20.2003 23.2229 21.6686C23.835 20.668 24.1665 19.521 24.1826 18.3482C24.1826 13.646 19.0198 9.30847 12.667 9.30847C6.3142 9.30847 1.15137 13.646 1.15137 18.3482C1.15713 19.516 1.47166 20.6615 2.06303 21.6686C3.81916 20.2387 7.90719 19.2407 12.667 19.2407Z" fill="#9BDCF9"/>
<path d="M12.6671 19.2695C17.4653 19.2695 21.5149 20.2291 23.2231 21.6782C23.8142 20.6816 24.1289 19.5454 24.1347 18.3866C24.1347 13.7132 18.9815 9.40448 12.6191 9.40448C6.25675 9.40448 1.10352 13.7228 1.10352 18.3866C1.10932 19.5454 1.424 20.6816 2.01515 21.6782C3.82886 20.2675 7.91691 19.2695 12.6671 19.2695Z" fill="#A1DDF9"/>
<path d="M12.6671 19.2983C17.4653 19.2983 21.4957 20.2579 23.2231 21.6877C23.814 20.7016 24.1289 19.5746 24.1347 18.425C24.1347 13.7899 18.9911 9.50037 12.6191 9.50037C6.24715 9.50037 1.10352 13.7899 1.10352 18.425C1.11042 19.5775 1.42514 20.7073 2.01515 21.6973C3.84805 20.2867 7.9265 19.2983 12.6671 19.2983Z" fill="#A7DFF9"/>
<path d="M12.667 19.3271C17.4652 19.3271 21.4861 20.2867 23.223 21.707C23.8297 20.7322 24.1613 19.6114 24.1826 18.4634C24.1826 13.8572 19.0486 9.59637 12.667 9.59637C6.28545 9.59637 1.20898 13.8572 1.20898 18.4634C1.22938 19.6115 1.56105 20.7326 2.16862 21.707C3.85757 20.3155 7.92642 19.3367 12.667 19.3271Z" fill="#ADE1FA"/>
<path d="M12.6667 19.3654C17.4073 19.3654 21.4761 20.325 23.2227 21.7165C23.8133 20.7478 24.1285 19.6363 24.1343 18.5017C24.1343 13.9243 19.0099 9.7019 12.6859 9.7019C6.3619 9.7019 1.24707 13.9339 1.24707 18.4922C1.24829 19.6291 1.56021 20.744 2.14913 21.7165C3.86687 20.3346 7.93571 19.3654 12.6667 19.3654Z" fill="#B3E3FA"/>
<path d="M12.6671 19.3943C17.3981 19.3943 21.4669 20.3539 23.223 21.7262C23.8102 20.767 24.1222 19.6648 24.1251 18.5402C24.1251 14.0011 19.0102 9.79791 12.6958 9.79791C6.38145 9.79791 1.2666 14.0011 1.2666 18.5306C1.27275 19.6621 1.588 20.7704 2.17827 21.7357C3.87682 20.3635 7.94566 19.3943 12.6671 19.3943Z" fill="#B8E5FA"/>
<path d="M12.6667 19.423C17.3977 19.423 21.4474 20.3827 23.2227 21.7453C23.8129 20.7905 24.1284 19.6914 24.1344 18.569C24.1344 14.0683 19.0195 9.93225 12.7147 9.93225C6.40995 9.93225 1.30469 14.1067 1.30469 18.569C1.3122 19.6899 1.62398 20.7878 2.20675 21.7453C3.94368 20.3827 7.94535 19.423 12.6667 19.423Z" fill="#BEE7FB"/>
<path d="M12.6672 19.4518C17.3886 19.4518 21.4383 20.4115 23.1656 21.7549C23.7483 20.8079 24.0603 19.7193 24.0677 18.6073C24.0677 14.1355 18.9624 9.97064 12.6672 9.97064C6.37202 9.97064 1.27637 14.1259 1.27637 18.6073C1.2793 19.7199 1.59162 20.8097 2.17843 21.7549C3.94415 20.4115 7.95541 19.4518 12.6672 19.4518Z" fill="#C4E9FB"/>
<path d="M12.6674 19.4806C17.3792 19.4806 21.4288 20.4403 23.1466 21.7742C23.7323 20.8355 24.0447 19.7522 24.0487 18.6458C24.0487 14.2123 18.953 10.0858 12.6674 10.0858C6.38177 10.0858 1.28613 14.2123 1.28613 18.6458C1.29508 19.7514 1.60708 20.8335 2.18819 21.7742C3.94432 20.4307 7.96517 19.4902 12.6674 19.4806Z" fill="#CAEBFC"/>
<path d="M12.6667 19.519C17.3786 19.519 21.4186 20.4786 23.1364 21.7837C23.7174 20.8536 24.0296 19.7808 24.0384 18.6841C24.0384 14.2794 18.9428 10.1818 12.6667 10.1818C6.39074 10.1818 1.30469 14.2794 1.30469 18.6841C1.31347 19.7808 1.62569 20.8536 2.20675 21.7837C3.94368 20.4594 7.96454 19.519 12.6667 19.519Z" fill="#CFEDFC"/>
<path d="M12.6671 19.5478C17.3693 19.5478 21.3998 20.5074 23.1175 21.7933C23.6981 20.8736 24.0105 19.8101 24.0196 18.7225C24.0196 14.3466 18.9335 10.2873 12.6671 10.2873C6.40069 10.2873 1.32422 14.3561 1.32422 18.7225C1.33116 19.8121 1.64011 20.8784 2.2167 21.8029C3.94404 20.4786 7.97449 19.5478 12.6671 19.5478Z" fill="#D5EFFC"/>
<path d="M12.6673 19.5765C17.3599 19.5765 21.3903 20.5362 23.1081 21.8125C23.6861 20.8992 23.9954 19.8417 24.0005 18.7609C24.0005 14.4233 18.9241 10.3832 12.6673 10.3832C6.41045 10.3832 1.33398 14.4233 1.33398 18.7609C1.34203 19.8426 1.65465 20.9002 2.23604 21.8125C3.94419 20.4978 7.98425 19.5765 12.6673 19.5765Z" fill="#DAF1FD"/>
<path d="M12.6676 19.6054C17.3602 19.6054 21.3811 20.565 23.0892 21.8221C23.6693 20.9199 23.982 19.8718 23.9913 18.7993C23.9913 14.4905 18.9148 10.4792 12.6676 10.4792C6.42039 10.4792 1.35352 14.4905 1.35352 18.7897C1.35813 19.8646 1.66762 20.9161 2.246 21.8221C3.94455 20.5266 7.99419 19.6054 12.6676 19.6054Z" fill="#E0F3FD"/>
<path d="M12.667 19.6341C17.35 19.6341 21.3612 20.5458 23.079 21.8413C23.6501 20.9391 23.9591 19.8958 23.9714 18.828C23.9714 14.5672 18.9046 10.5752 12.667 10.5752C6.42933 10.5752 1.37207 14.5672 1.37207 18.828C1.37821 19.8967 1.68769 20.9417 2.26452 21.8413C3.94388 20.5458 7.99353 19.6437 12.667 19.6341Z" fill="#E6F5FD"/>
<path d="M12.6671 19.6725C17.3406 19.6725 21.3518 20.5746 23.06 21.8509C23.6365 20.9618 23.9461 19.9261 23.9524 18.8664C23.9524 14.6344 18.8952 10.6711 12.6671 10.6711C6.43912 10.6711 1.38184 14.6344 1.38184 18.8664C1.39236 19.9254 1.70173 20.96 2.27432 21.8509C3.99206 20.5746 8.00332 19.6725 12.6671 19.6725Z" fill="#EBF7FE"/>
<path d="M12.6675 19.7013C17.3409 19.7013 21.3042 20.5938 23.0411 21.8605C23.6201 20.9827 23.9334 19.9564 23.9432 18.9048C23.9432 14.7016 18.8859 10.7767 12.6675 10.7767C6.44903 10.7767 1.40137 14.7016 1.40137 18.9048C1.40864 19.9583 1.71841 20.9876 2.29382 21.8701C4.00197 20.5938 8.01324 19.7013 12.6675 19.7013Z" fill="#F1FAFE"/>
<path d="M12.6668 19.7301C17.3307 19.7301 21.3036 20.6226 23.0309 21.8797C23.6015 21.0056 23.9111 19.987 23.9234 18.9432C23.9234 14.7784 18.8757 10.8727 12.6668 10.8727C6.458 10.8727 1.41992 14.7784 1.41992 18.9432C1.42876 19.9861 1.73505 21.0048 2.3028 21.8797C4.01095 20.6226 8.01261 19.7301 12.6668 19.7301Z" fill="#F7FCFE"/>
<path d="M12.667 19.7589C17.3212 19.7589 21.3037 20.6417 23.0118 21.8893C23.5808 21.0358 23.8908 20.036 23.9043 19.0104C23.9043 14.8743 18.8662 10.9974 12.667 10.9974C6.46776 10.9974 1.42969 14.8359 1.42969 19.0104C1.44322 20.036 1.75316 21.0358 2.32214 21.8893C4.02069 20.6417 8.02236 19.7589 12.667 19.7589Z" fill="#FAFAFA"/>
</g>
<g filter="url(#filter1_i_364_2127)">
<path d="M12.5809 15.6324C8.84337 15.5992 5.12959 16.2296 1.6123 17.4941C2.55589 19.6152 4.09421 21.4172 6.04098 22.6818C7.98774 23.9465 10.2594 24.6196 12.5809 24.6196C14.9024 24.6196 17.1741 23.9465 19.1209 22.6818C21.0676 21.4172 22.6059 19.6152 23.5495 17.4941C20.0322 16.2296 16.3185 15.5992 12.5809 15.6324Z" fill="#0083CA"/>
</g>
</g>
<defs>
<filter id="filter0_i_364_2127" x="0" y="0" width="25.2002" height="25.2" filterUnits="userSpaceOnUse" color-interpolation-filters="sRGB">
<feFlood flood-opacity="0" result="BackgroundImageFix"/>
<feBlend mode="normal" in="SourceGraphic" in2="BackgroundImageFix" result="shape"/>
<feColorMatrix in="SourceAlpha" type="matrix" values="0 0 0 0 0 0 0 0 0 0 0 0 0 0 0 0 0 0 127 0" result="hardAlpha"/>
<feOffset/>
<feGaussianBlur stdDeviation="1"/>
<feComposite in2="hardAlpha" operator="arithmetic" k2="-1" k3="1"/>
<feColorMatrix type="matrix" values="0 0 0 0 1 0 0 0 0 1 0 0 0 0 1 0 0 0 0.7 0"/>
<feBlend mode="normal" in2="shape" result="effect1_innerShadow_364_2127"/>
</filter>
<filter id="filter1_i_364_2127" x="1.6123" y="15.6312" width="21.9375" height="8.9884" filterUnits="userSpaceOnUse" color-interpolation-filters="sRGB">
<feFlood flood-opacity="0" result="BackgroundImageFix"/>
<feBlend mode="normal" in="SourceGraphic" in2="BackgroundImageFix" result="shape"/>
<feColorMatrix in="SourceAlpha" type="matrix" values="0 0 0 0 0 0 0 0 0 0 0 0 0 0 0 0 0 0 127 0" result="hardAlpha"/>
<feOffset/>
<feGaussianBlur stdDeviation="1"/>
<feComposite in2="hardAlpha" operator="arithmetic" k2="-1" k3="1"/>
<feColorMatrix type="matrix" values="0 0 0 0 1 0 0 0 0 1 0 0 0 0 1 0 0 0 0.7 0"/>
<feBlend mode="normal" in2="shape" result="effect1_innerShadow_364_2127"/>
</filter>
</defs>
</svg>
