<svg width="26" height="26" viewBox="0 0 26 26" fill="none" xmlns="http://www.w3.org/2000/svg">
<g filter="url(#filter0_i_364_2389)">
<path d="M9.75614 23.2806C8.3663 23.1438 6.70534 22.7065 5.25656 21.4509C3.92331 20.3038 3.0993 18.7228 2.6985 17.3281C2.28945 15.904 2.11734 14.2428 2.79399 14.3749C3.00264 14.4126 3.36336 15.3286 3.75355 15.9936C4.15789 16.6797 4.48561 17.0617 4.7921 17.2951C4.93238 17.4 5.40745 16.3449 6.09942 15.7424C6.5014 15.4076 6.93638 15.2956 7.01418 16.2871C7.0967 17.4991 6.87862 18.9433 7.23463 18.9433C7.55998 18.9433 8.30972 18.6945 9.94947 18.5542C10.5683 18.5023 10.922 18.6191 10.3326 19.4455C10.0379 19.8605 9.64651 20.4441 8.71523 21.1149C10.1098 22.4212 11.7814 22.262 11.8132 22.8173C11.8321 23.138 11.2085 23.3148 10.3903 23.3148C10.1888 23.3148 9.9754 23.303 9.75614 23.2794M14.449 11.543C13.1724 11.2766 12.9107 10.1177 12.9107 10.1177C12.8058 9.7086 12.781 9.19223 12.8671 8.5332C13.0392 7.15619 13.4117 6.51249 13.8337 5.44436C14.4031 4.01195 13.0215 3.17372 13.2466 2.64909C13.559 1.937 14.5445 2.84243 15.6491 2.90963C16.598 2.96033 17.1686 2.91553 17.9054 3.01456C18.8861 3.14306 20.0614 3.47671 20.5837 4.08976C21.0611 4.65211 20.3279 5.33472 19.452 4.90794C18.8083 4.59434 17.9997 4.78533 18.4736 5.45615C19.0441 6.09278 19.3176 6.11047 19.9035 6.26255C21.5079 6.68697 21.5409 8.22667 20.4516 9.01892C19.2198 9.92435 17.9619 9.54827 17.4645 7.77514C17.2122 6.88857 16.5898 6.43939 15.9462 6.69169C15.3119 6.94162 15.688 8.10642 16.1737 9.18751C17.0118 11.3297 15.3167 11.5548 14.6659 11.5548C14.5634 11.5548 14.4879 11.5501 14.4502 11.5454M13.5284 23.6838C13.5178 23.4009 13.9315 23.3289 13.9315 23.3289C17.6602 22.5933 16.5698 20.1482 15.2518 18.902C14.6966 18.3797 9.50976 13.9009 9.50976 13.9009C4.56341 9.64023 4.95949 6.31796 4.95949 6.31796C5.20351 2.22467 8.78007 1.2096 11.4914 1.44656C11.8085 1.47368 11.9865 1.66349 11.9264 1.93229C11.8698 2.22113 11.4489 2.23999 11.4489 2.23999C10.586 2.29069 9.81508 2.37675 9.2292 2.77406C7.04719 4.2442 7.68612 6.74238 10.599 9.52469C10.9668 9.87248 11.3558 10.2438 11.7578 10.6199C11.7578 10.6199 12.3378 11.1351 13.506 12.241C15.7469 14.3041 16.9717 15.4159 16.9717 15.4159C20.9208 18.7039 19.5687 21.7114 18.0633 22.7536C16.9104 23.5518 15.6373 23.9255 13.9645 24.0163L13.9221 24.0186C13.77 24.0186 13.539 23.9255 13.5296 23.6838M12.0254 0.0129683C5.07737 0.326567 -0.301609 6.21893 0.0131377 13.17C0.327884 20.1199 6.21966 25.5006 13.1688 25.187C20.1157 24.8734 25.5005 18.9834 25.187 12.0323C24.8828 5.27224 19.3058 0.00117894 12.6042 0C12.4132 0 12.2199 0.00471574 12.0266 0.0129683" fill="#0046FF"/>
</g>
<defs>
<filter id="filter0_i_364_2389" x="0" y="0" width="25.2002" height="25.2" filterUnits="userSpaceOnUse" color-interpolation-filters="sRGB">
<feFlood flood-opacity="0" result="BackgroundImageFix"/>
<feBlend mode="normal" in="SourceGraphic" in2="BackgroundImageFix" result="shape"/>
<feColorMatrix in="SourceAlpha" type="matrix" values="0 0 0 0 0 0 0 0 0 0 0 0 0 0 0 0 0 0 127 0" result="hardAlpha"/>
<feOffset/>
<feGaussianBlur stdDeviation="1"/>
<feComposite in2="hardAlpha" operator="arithmetic" k2="-1" k3="1"/>
<feColorMatrix type="matrix" values="0 0 0 0 1 0 0 0 0 1 0 0 0 0 1 0 0 0 0.7 0"/>
<feBlend mode="normal" in2="shape" result="effect1_innerShadow_364_2389"/>
</filter>
</defs>
</svg>
