<svg width="28" height="28" viewBox="0 0 28 28" fill="none" xmlns="http://www.w3.org/2000/svg">
<g filter="url(#filter0_i_364_2225)">
<rect width="28" height="28" rx="7" fill="#FFE300"/>
<g filter="url(#filter1_i_364_2225)">
<path d="M14.5673 17.0267H13.427V10.9724H14.5673V17.0267ZM17.5481 13.9996C18.5315 13.3514 19.1806 12.2383 19.1806 10.9725C19.1806 8.97182 17.5581 7.3501 15.5574 7.3501H9.48512C9.36869 7.3501 9.27539 7.4434 9.27539 7.55983V20.4395C9.27539 20.556 9.3687 20.6501 9.48512 20.6501H15.5574C17.5581 20.6501 19.1806 19.0284 19.1806 17.0269C19.1806 15.7611 18.5316 14.647 17.5481 13.9996Z" fill="#1C1C1C"/>
</g>
</g>
<defs>
<filter id="filter0_i_364_2225" x="0" y="0" width="28" height="28" filterUnits="userSpaceOnUse" color-interpolation-filters="sRGB">
<feFlood flood-opacity="0" result="BackgroundImageFix"/>
<feBlend mode="normal" in="SourceGraphic" in2="BackgroundImageFix" result="shape"/>
<feColorMatrix in="SourceAlpha" type="matrix" values="0 0 0 0 0 0 0 0 0 0 0 0 0 0 0 0 0 0 127 0" result="hardAlpha"/>
<feOffset/>
<feGaussianBlur stdDeviation="1"/>
<feComposite in2="hardAlpha" operator="arithmetic" k2="-1" k3="1"/>
<feColorMatrix type="matrix" values="0 0 0 0 1 0 0 0 0 1 0 0 0 0 1 0 0 0 0.7 0"/>
<feBlend mode="normal" in2="shape" result="effect1_innerShadow_364_2225"/>
</filter>
<filter id="filter1_i_364_2225" x="9.27539" y="7.3501" width="9.90527" height="13.3" filterUnits="userSpaceOnUse" color-interpolation-filters="sRGB">
<feFlood flood-opacity="0" result="BackgroundImageFix"/>
<feBlend mode="normal" in="SourceGraphic" in2="BackgroundImageFix" result="shape"/>
<feColorMatrix in="SourceAlpha" type="matrix" values="0 0 0 0 0 0 0 0 0 0 0 0 0 0 0 0 0 0 127 0" result="hardAlpha"/>
<feOffset/>
<feGaussianBlur stdDeviation="1"/>
<feComposite in2="hardAlpha" operator="arithmetic" k2="-1" k3="1"/>
<feColorMatrix type="matrix" values="0 0 0 0 1 0 0 0 0 1 0 0 0 0 1 0 0 0 0.7 0"/>
<feBlend mode="normal" in2="shape" result="effect1_innerShadow_364_2225"/>
</filter>
</defs>
</svg>
