<svg width="28" height="7" viewBox="0 0 28 7" fill="none" xmlns="http://www.w3.org/2000/svg">
<g>
<path d="M5.69563 0.000366211H4.00946L1.34636 3.10007V0.000366211H0V6.76281H1.34636V3.65521L4.09737 6.76281H5.78354L2.79052 3.38159L5.69563 0.000366211Z" fill="#140064"/>
</g>
<g>
<path d="M28.0002 6.76281L25.9782 4.42371L27.9399 2.08461H26.4879L24.778 4.1086V0.000366211H23.4326V6.76281H24.778V4.73388L26.5205 6.76281H28.0002Z" fill="#140064"/>
</g>
<g>
<path d="M9.00832 1.92163C8.44231 1.92163 7.95928 2.16561 7.56218 2.50047V0.000366211H6.21582V4.45433C6.21582 5.79576 7.10483 6.91789 8.77223 6.91789C10.2727 6.91789 11.3286 5.8817 11.3286 4.42964C11.3286 3.05463 10.4199 1.92163 9.00832 1.92163ZM8.77223 5.70093C8.43925 5.69981 8.11973 5.56938 7.88107 5.33718C7.64241 5.10497 7.50328 4.78913 7.49304 4.45631C7.49304 4.44446 7.49304 4.4326 7.49304 4.42075C7.49304 4.16677 7.56835 3.9185 7.70945 3.70732C7.85056 3.49615 8.05111 3.33156 8.28576 3.23436C8.5204 3.13717 8.7786 3.11174 9.02769 3.16129C9.27679 3.21084 9.5056 3.33314 9.68519 3.51273C9.86478 3.69232 9.98708 3.92113 10.0366 4.17023C10.0862 4.41932 10.0607 4.67752 9.96356 4.91216C9.86636 5.14681 9.70177 5.34736 9.4906 5.48847C9.27942 5.62957 9.03115 5.70488 8.77717 5.70488L8.77223 5.70093Z" fill="#140064"/>
</g>
<g>
<path d="M20.8445 1.9218C20.2704 1.91485 19.7151 2.12677 19.2917 2.51447V2.06898H17.9463V6.76199H19.2917V4.13149C19.2917 3.8682 19.3963 3.6157 19.5824 3.42953C19.7686 3.24335 20.0211 3.13876 20.2844 3.13876C20.5477 3.13876 20.8002 3.24335 20.9864 3.42953C21.1725 3.6157 21.2771 3.8682 21.2771 4.13149V6.76199H22.6314V3.75613C22.6314 3.73736 22.6314 3.71958 22.6314 3.7018C22.6278 3.22964 22.4381 2.77796 22.1036 2.44473C21.7691 2.1115 21.3166 1.9236 20.8445 1.9218Z" fill="#140064"/>
</g>
<g>
<path d="M14.5499 1.92163C13.0326 1.92163 11.9658 2.95783 11.9658 4.41087C11.9658 5.7849 12.8845 6.91987 14.3118 6.91987C14.6227 6.9144 14.9283 6.83912 15.2062 6.6996C15.484 6.56008 15.727 6.35989 15.917 6.11383V6.76183H17.1349V4.41384H17.1241L17.1349 4.38717C17.1349 3.04673 16.238 1.92163 14.5499 1.92163ZM14.5785 5.69007C14.3246 5.69007 14.0763 5.61476 13.8651 5.47365C13.6539 5.33255 13.4893 5.132 13.3922 4.89735C13.295 4.66271 13.2695 4.40451 13.3191 4.15541C13.3686 3.90632 13.4909 3.6775 13.6705 3.49792C13.8501 3.31833 14.0789 3.19602 14.328 3.14648C14.5771 3.09693 14.8353 3.12236 15.07 3.21955C15.3046 3.31674 15.5052 3.48133 15.6463 3.69251C15.7874 3.90368 15.8627 4.15196 15.8627 4.40593C15.8629 4.57457 15.83 4.7416 15.7657 4.8975C15.7014 5.0534 15.607 5.19511 15.488 5.31453C15.3689 5.43396 15.2275 5.52877 15.0718 5.59354C14.9161 5.65831 14.7491 5.69179 14.5805 5.69205L14.5785 5.69007Z" fill="#140064"/>
</g>
<defs>
</defs>
</svg>
