<svg style="filter: drop-shadow(0 0 2px rgba(255, 255, 255, 0.70));" width="28" height="26" viewBox="0 0 28 26" fill="none" xmlns="http://www.w3.org/2000/svg">
<path d="M18.3009 15.0834C18.2389 14.6995 18.129 14.3248 17.9739 13.9681C17.5306 12.9005 16.7582 12.0023 15.7689 11.4041C14.9935 10.9385 14.1049 10.6952 13.2005 10.7008C12.296 10.7065 11.4105 10.9609 10.641 11.4362C9.92505 11.8665 9.34343 12.4881 8.9616 13.231C8.83551 13.4847 8.73046 13.7484 8.64751 14.0194C8.41284 14.7238 8.32254 15.4683 8.38201 16.2084C8.44148 16.9485 8.6495 17.669 8.99365 18.3269C9.22991 18.7311 9.59253 19.0464 10.0256 19.2243C10.2403 19.3129 10.4729 19.3499 10.7045 19.3321C10.9361 19.3142 11.1603 19.2422 11.3589 19.1217C11.5807 18.9502 11.7466 18.7167 11.8356 18.4508C11.9246 18.185 11.9327 17.8987 11.8589 17.6282C11.6839 16.9423 11.7017 16.2214 11.9102 15.545C11.9874 15.3241 12.1121 15.1228 12.2755 14.9552C12.3791 14.8556 12.4982 14.7733 12.6281 14.7117C12.9009 14.5732 13.2103 14.5239 13.5126 14.5706C13.771 14.6267 14.0126 14.7431 14.2175 14.9101C14.4224 15.0772 14.5851 15.2903 14.6921 15.5321C14.9012 16.0204 15.0102 16.5457 15.0126 17.0769C15.021 19.4167 14.6752 21.7442 13.987 23.9804C13.9293 24.2112 13.8652 24.4355 13.8011 24.6599C13.737 24.8842 13.6601 25.0573 13.8011 25.2303C13.8543 25.2992 13.9252 25.3524 14.0062 25.3842C14.3523 25.5252 14.6472 25.3137 14.8587 25.0829C16.1644 23.6874 17.1258 22.006 17.6663 20.1729C17.8907 19.4996 18.0706 18.8123 18.2047 18.1153C18.4129 17.1116 18.4476 16.0796 18.3073 15.0642" fill="#008485"/>
<path d="M27.9744 4.43677C27.9712 4.357 27.9519 4.2787 27.9175 4.20662C27.8832 4.13454 27.8346 4.07017 27.7747 4.01743C27.7148 3.96469 27.6447 3.92467 27.5689 3.89979C27.493 3.87491 27.4129 3.86569 27.3334 3.8727C27.0027 3.92017 26.6822 4.02197 26.3847 4.17396C20.4427 6.43026 13.7443 6.85972 7.48184 5.95592C6.41138 5.80208 5.3281 5.59056 4.27688 5.41749C3.63588 5.31493 2.9372 5.1611 2.25775 5.10982C1.64629 4.99148 1.01275 5.11314 0.488615 5.44954C0.217969 5.74479 0.0499197 6.11955 0.00949445 6.51803C-0.0309308 6.91651 0.0584309 7.31738 0.264269 7.66096C0.72301 8.44494 1.38817 9.08794 2.18725 9.51985C2.92525 10.0456 3.80086 10.3442 4.70635 10.3788C7.09725 10.2313 9.48815 9.99418 11.8662 9.6865C15.9237 9.16089 20.1991 8.66091 23.981 7.09048C25.2469 6.59134 26.4393 5.9229 27.5257 5.10341C27.718 4.95598 28 4.7124 28 4.46242" fill="#008485"/>
<path d="M10.9307 2.39912C10.962 2.99761 11.2219 3.56125 11.6566 3.97379C12.0913 4.38634 12.6678 4.61632 13.2671 4.61632C13.8664 4.61632 14.4429 4.38634 14.8776 3.97379C15.3123 3.56125 15.5721 2.99761 15.6035 2.39912C15.6053 2.20644 15.5637 2.01582 15.4817 1.84145C15.283 1.41199 15.0522 1.20046 15.0779 0.700486C15.0779 0.0146242 14.2254 0.00180675 13.751 0.00180675C13.2235 -0.0153564 12.6991 0.0899538 12.2191 0.30948C11.8411 0.501681 11.5223 0.792714 11.2966 1.15163C11.0709 1.51055 10.9466 1.92394 10.9371 2.34784V2.39912" fill="#E90061"/>
</svg>
